<svg width="192" height="192" viewBox="0 0 192 192" fill="none" xmlns="http://www.w3.org/2000/svg">
<g clip-path="url(#clip0)">
<path d="M159.91 89H111.85C111.67 89.001 111.492 88.9555 111.335 88.8679C111.177 88.7803 111.044 88.6536 110.95 88.5L105.06 78.89C104.967 78.7324 104.835 78.6017 104.676 78.511C104.518 78.4202 104.338 78.3724 104.155 78.3724C103.972 78.3724 103.792 78.4202 103.634 78.511C103.475 78.6017 103.343 78.7324 103.25 78.89L93 96.75C92.9183 96.9464 92.776 97.1116 92.594 97.2216C92.4119 97.3316 92.1995 97.3807 91.9877 97.3618C91.7758 97.3428 91.5755 97.2568 91.4159 97.1162C91.2562 96.9756 91.1456 96.7878 91.1 96.58L78.1 60.13C78.1 59.8648 77.9946 59.6104 77.8071 59.4229C77.6196 59.2354 77.3652 59.13 77.1 59.13C76.8348 59.13 76.5804 59.2354 76.3929 59.4229C76.2054 59.6104 76.1 59.8648 76.1 60.13L64.26 98.74C64.2243 98.9519 64.1213 99.1467 63.9663 99.2955C63.8113 99.4443 63.6124 99.5392 63.3992 99.5661C63.186 99.593 62.9698 99.5506 62.7826 99.445C62.5954 99.3394 62.4473 99.1764 62.36 98.98L56.55 89.45C56.4555 89.2964 56.3231 89.1697 56.1655 89.0821C56.0079 88.9945 55.8303 88.949 55.65 88.95H20.22L20 47.16C19.9987 45.8262 20.2603 44.5053 20.7698 43.2727C21.2793 42.0401 22.0267 40.92 22.9693 39.9764C23.912 39.0328 25.0314 38.2843 26.2635 37.7736C27.4956 37.2629 28.8162 37 30.15 37H149.76C151.093 37 152.413 37.2625 153.644 37.7726C154.876 38.2827 155.995 39.0304 156.937 39.9729C157.88 40.9154 158.627 42.0343 159.137 43.2658C159.647 44.4972 159.91 45.8171 159.91 47.15V89Z" fill="#D5DCE5"/>
<path d="M112.9 143.44H30.15C26.664 143.435 23.3223 142.048 20.8574 139.583C18.3924 137.118 17.0053 133.776 17 130.29V47.16C17.0026 43.6723 18.3886 40.328 20.8539 37.8609C23.3191 35.3938 26.6623 34.0053 30.15 34H149.76C153.246 34.0053 156.588 35.3924 159.053 37.8574C161.518 40.3223 162.905 43.664 162.91 47.15V97C162.91 97.7957 162.594 98.5587 162.031 99.1213C161.469 99.6839 160.706 100 159.91 100C159.114 100 158.351 99.6839 157.789 99.1213C157.226 98.5587 156.91 97.7957 156.91 97V47.16C156.91 45.2628 156.157 43.4431 154.816 42.1006C153.476 40.7582 151.657 40.0026 149.76 40H30.15C28.2528 40.0026 26.4342 40.7582 25.0936 42.1006C23.753 43.4431 23 45.2628 23 47.16V130.29C23.0026 132.185 23.7568 134.003 25.0971 135.343C26.4374 136.683 28.2545 137.437 30.15 137.44H112.9C113.696 137.44 114.459 137.756 115.021 138.319C115.584 138.881 115.9 139.644 115.9 140.44C115.9 141.236 115.584 141.999 115.021 142.561C114.459 143.124 113.696 143.44 112.9 143.44Z" fill="#363C44"/>
<path d="M63.2602 102.48C62.5657 102.48 61.8829 102.301 61.2772 101.961C60.6714 101.622 60.1629 101.132 59.8002 100.54L54.5602 91.9999H20.2202C19.4246 91.9999 18.6615 91.6839 18.0989 91.1213C17.5363 90.5587 17.2202 89.7956 17.2202 88.9999C17.2202 88.2043 17.5363 87.4412 18.0989 86.8786C18.6615 86.316 19.4246 85.9999 20.2202 85.9999H55.6502C56.3445 86.0013 57.0269 86.1803 57.6326 86.5199C58.2382 86.8595 58.7469 87.3483 59.1102 87.94L62.6602 93.7699L73.2302 59.2999C73.4726 58.4842 73.9689 57.767 74.6469 57.2527C75.3249 56.7383 76.1493 56.4536 77.0002 56.4399C77.8492 56.4268 78.6814 56.6775 79.3818 57.1576C80.0822 57.6377 80.6162 58.3233 80.9102 59.1199L92.5302 91.5799L100.64 77.3799C100.991 76.7725 101.495 76.2679 102.103 75.9169C102.71 75.5658 103.399 75.3807 104.1 75.3799C104.801 75.3784 105.49 75.5546 106.104 75.8922C106.718 76.2297 107.236 76.7175 107.61 77.3099L112.94 85.9999H159.94C160.736 85.9999 161.499 86.316 162.062 86.8786C162.624 87.4412 162.94 88.2043 162.94 88.9999C162.94 89.7956 162.624 90.5587 162.062 91.1213C161.499 91.6839 160.736 91.9999 159.94 91.9999H111.85C111.15 91.9923 110.464 91.8042 109.858 91.4539C109.252 91.1035 108.746 90.6027 108.39 89.9999L104.22 83.2099L95.6402 98.2099C95.2557 98.8822 94.6864 99.4302 93.9999 99.7888C93.3134 100.147 92.5385 100.302 91.767 100.233C90.9955 100.165 90.2598 99.8766 89.6471 99.4028C89.0344 98.929 88.5705 98.2894 88.3102 97.5599L77.2402 66.6699L67.1302 99.6699C66.8988 100.415 66.4582 101.078 65.8607 101.58C65.2632 102.081 64.5341 102.401 63.7602 102.5L63.2602 102.48Z" fill="#363C44"/>
<path d="M147.38 158C141.916 158.002 136.573 156.384 132.028 153.349C127.483 150.315 123.94 146.001 121.847 140.953C119.754 135.905 119.205 130.35 120.269 124.99C121.333 119.63 123.963 114.705 127.826 110.84C131.689 106.974 136.611 104.341 141.97 103.273C147.329 102.205 152.885 102.75 157.935 104.84C162.984 106.929 167.301 110.469 170.338 115.012C173.376 119.554 174.998 124.896 175 130.36C174.995 137.686 172.084 144.71 166.906 149.892C161.728 155.074 154.706 157.99 147.38 158ZM147.38 108.75C143.101 108.748 138.917 110.016 135.358 112.392C131.8 114.769 129.026 118.147 127.388 122.1C125.75 126.054 125.321 130.404 126.156 134.601C126.991 138.798 129.052 142.653 132.079 145.678C135.106 148.704 138.962 150.763 143.159 151.596C147.356 152.429 151.707 151.999 155.659 150.359C159.612 148.719 162.989 145.944 165.364 142.384C167.739 138.824 169.004 134.64 169 130.36C168.992 124.629 166.712 119.134 162.659 115.081C158.606 111.029 153.112 108.748 147.38 108.74V108.75Z" fill="#363C44"/>
<path d="M148.05 136.051C147.254 136.051 146.491 135.735 145.928 135.172C145.366 134.61 145.05 133.847 145.05 133.051V117.381C145.05 116.585 145.366 115.822 145.928 115.26C146.491 114.697 147.254 114.381 148.05 114.381C148.845 114.381 149.609 114.697 150.171 115.26C150.734 115.822 151.05 116.585 151.05 117.381V133.051C151.05 133.847 150.734 134.61 150.171 135.172C149.609 135.735 148.845 136.051 148.05 136.051Z" fill="#ED0080"/>
<path d="M148.05 147.471C147.254 147.471 146.491 147.155 145.928 146.592C145.366 146.03 145.05 145.267 145.05 144.471V143.121C145.05 142.325 145.366 141.562 145.928 141C146.491 140.437 147.254 140.121 148.05 140.121C148.845 140.121 149.609 140.437 150.171 141C150.734 141.562 151.05 142.325 151.05 143.121V144.471C151.05 145.267 150.734 146.03 150.171 146.592C149.609 147.155 148.845 147.471 148.05 147.471Z" fill="#ED0080"/>
</g>
<defs>
<clipPath id="clip0">
<rect width="192" height="192" fill="white"/>
</clipPath>
</defs>
</svg>
