<svg width="192" height="192" viewBox="0 0 192 192" fill="none" xmlns="http://www.w3.org/2000/svg">
<path d="M103.35 102.56C102.555 102.559 101.792 102.243 101.23 101.68C100.668 101.117 100.353 100.355 100.353 99.5599C100.353 98.7649 100.668 98.0024 101.23 97.4399L126.77 71.8799C127.343 71.3734 128.087 71.1046 128.851 71.1284C129.615 71.1523 130.342 71.4669 130.881 72.0081C131.421 72.5494 131.734 73.2763 131.756 74.0405C131.778 74.8047 131.508 75.5484 131 76.1199L105.47 101.68C104.908 102.243 104.145 102.559 103.35 102.56Z" fill="#ED0080"/>
<path d="M96 119.709C93.5277 119.709 91.111 118.976 89.0554 117.602C86.9998 116.229 85.3976 114.277 84.4515 111.993C83.5054 109.708 83.2579 107.195 83.7402 104.77C84.2225 102.346 85.413 100.118 87.1612 98.3701C88.9093 96.622 91.1366 95.4315 93.5614 94.9492C95.9861 94.4669 98.4995 94.7144 100.784 95.6605C103.068 96.6066 105.02 98.2087 106.393 100.264C107.767 102.32 108.5 104.737 108.5 107.209C108.495 110.523 107.176 113.699 104.833 116.042C102.49 118.385 99.3136 119.704 96 119.709ZM96 100.709C94.7144 100.709 93.4577 101.09 92.3888 101.804C91.3199 102.519 90.4868 103.534 89.9948 104.722C89.5028 105.909 89.3741 107.216 89.6249 108.477C89.8757 109.738 90.4948 110.896 91.4038 111.805C92.3129 112.714 93.471 113.333 94.7319 113.584C95.9928 113.835 97.2997 113.706 98.4874 113.214C99.6752 112.722 100.69 111.889 101.405 110.82C102.119 109.751 102.5 108.495 102.5 107.209C102.497 105.486 101.812 103.834 100.593 102.616C99.3749 101.397 97.7231 100.712 96 100.709Z" fill="#ED0080"/>
<path d="M45.59 165.439C44.8526 165.44 44.1406 165.17 43.59 164.679C31.5938 154.047 23.116 140.016 19.2824 124.452C15.4488 108.887 16.4409 92.5241 22.1269 77.5365C27.8129 62.5489 37.9237 49.6456 51.1166 40.5403C64.3094 31.4351 79.9601 26.5586 95.99 26.5586C112.02 26.5586 127.671 31.4351 140.863 40.5403C154.056 49.6456 164.167 62.5489 169.853 77.5365C175.539 92.5241 176.531 108.887 172.698 124.452C168.864 140.016 160.386 154.047 148.39 164.679C147.84 165.171 147.128 165.443 146.39 165.443C145.652 165.443 144.94 165.171 144.39 164.679C131.03 152.859 113.808 146.333 95.97 146.333C78.1317 146.333 60.9096 152.859 47.55 164.679C47.0097 165.161 46.3136 165.43 45.59 165.439ZM96 140.339C114.378 140.319 132.187 146.717 146.35 158.429C156.916 148.368 164.225 135.371 167.334 121.116C170.442 106.861 169.208 92.001 163.79 78.4541C158.372 64.9071 149.019 53.2945 136.937 45.1145C124.856 36.9345 110.6 32.5625 96.01 32.5625C81.4198 32.5625 67.1642 36.9345 55.0827 45.1145C43.0012 53.2945 33.648 64.9071 28.23 78.4541C22.8119 92.001 21.5776 106.861 24.6862 121.116C27.7948 135.371 35.1037 148.368 45.67 158.429C59.8244 146.715 77.6273 140.317 96 140.339Z" fill="#363C44"/>
<path d="M50.1 62.9983C49.313 62.995 48.5588 62.6825 48 62.1283L40.18 54.3083C39.901 54.0299 39.6795 53.6993 39.5282 53.3353C39.3769 52.9713 39.2988 52.581 39.2983 52.1868C39.2979 51.7927 39.3751 51.4022 39.5255 51.0379C39.6759 50.6735 39.8966 50.3424 40.175 50.0633C40.4534 49.7843 40.7841 49.5628 41.1481 49.4115C41.5121 49.2602 41.9023 49.1821 42.2965 49.1816C42.6907 49.1812 43.0811 49.2584 43.4454 49.4088C43.8098 49.5592 44.1409 49.7799 44.42 50.0583L52.25 57.8883C52.7994 58.4528 53.1047 59.2107 53.1 59.9983C53.1 60.794 52.7839 61.557 52.2213 62.1196C51.6587 62.6822 50.8957 62.9983 50.1 62.9983Z" fill="#363C44"/>
<path d="M96.1801 44C95.3844 44 94.6213 43.6839 94.0587 43.1213C93.4961 42.5587 93.1801 41.7956 93.1801 41V30C93.1801 29.2044 93.4961 28.4413 94.0587 27.8787C94.6213 27.3161 95.3844 27 96.1801 27C96.9757 27 97.7388 27.3161 98.3014 27.8787C98.864 28.4413 99.1801 29.2044 99.1801 30V41C99.1801 41.7956 98.864 42.5587 98.3014 43.1213C97.7388 43.6839 96.9757 44 96.1801 44Z" fill="#363C44"/>
<path d="M141.9 62.9985C141.104 62.9985 140.341 62.6825 139.779 62.1199C139.216 61.5573 138.9 60.7942 138.9 59.9985C138.901 59.2032 139.217 58.4406 139.78 57.8785L147.61 50.0485C147.889 49.7701 148.22 49.5494 148.585 49.399C148.949 49.2486 149.339 49.1714 149.734 49.1719C150.128 49.1723 150.518 49.2504 150.882 49.4017C151.246 49.553 151.577 49.7745 151.855 50.0535C152.133 50.3326 152.354 50.6638 152.505 51.0281C152.655 51.3925 152.732 51.7829 152.732 52.1771C152.731 52.5713 152.653 52.9615 152.502 53.3255C152.351 53.6895 152.129 54.0201 151.85 54.2985L144 62.1285C143.441 62.6828 142.687 62.9952 141.9 62.9985Z" fill="#363C44"/>
<path d="M171.82 109H160.93C160.134 109 159.371 108.684 158.809 108.121C158.246 107.559 157.93 106.796 157.93 106C157.93 105.204 158.246 104.441 158.809 103.879C159.371 103.316 160.134 103 160.93 103H171.82C172.616 103 173.379 103.316 173.941 103.879C174.504 104.441 174.82 105.204 174.82 106C174.82 106.796 174.504 107.559 173.941 108.121C173.379 108.684 172.616 109 171.82 109Z" fill="#363C44"/>
<path d="M31.07 109H20.18C19.3843 109 18.6213 108.684 18.0587 108.121C17.4961 107.559 17.18 106.796 17.18 106C17.18 105.204 17.4961 104.441 18.0587 103.879C18.6213 103.316 19.3843 103 20.18 103H31.07C31.8656 103 32.6287 103.316 33.1913 103.879C33.7539 104.441 34.07 105.204 34.07 106C34.07 106.796 33.7539 107.559 33.1913 108.121C32.6287 108.684 31.8656 109 31.07 109Z" fill="#363C44"/>
</svg>
