<svg width="192" height="192" viewBox="0 0 192 192" fill="none" xmlns="http://www.w3.org/2000/svg">
<path d="M157 150H117.81L41.9199 149.79H41.6799C34.0275 149.143 26.723 146.307 20.639 141.621C14.555 136.934 9.94877 130.595 7.37047 123.361C4.79217 116.127 4.35083 108.304 6.09918 100.826C7.84753 93.3479 11.7116 86.5312 17.2299 81.1901C24.9482 73.7531 35.2824 69.651 45.9999 69.7701H48.1299L49.2399 68.0001C54.0748 60.0459 60.8801 53.4737 68.998 48.919C77.1159 44.3643 86.2716 41.9812 95.5799 42.0001C99.613 42.009 103.634 42.4346 107.58 43.2701C130.43 48.0901 146.77 65.1301 150.23 87.7201L150.78 91.3001L154.39 90.9601C155.234 90.8742 156.082 90.8308 156.93 90.8301C173.49 90.8301 186.93 104.1 186.93 120.41C186.861 128.296 183.675 135.833 178.067 141.378C172.459 146.922 164.886 150.022 157 150V150ZM42.0999 143.79L117.86 144H157C160.138 144.065 163.257 143.502 166.175 142.346C169.094 141.19 171.751 139.463 173.994 137.267C176.236 135.07 178.017 132.448 179.233 129.555C180.449 126.661 181.076 123.554 181.076 120.415C181.076 117.276 180.449 114.169 179.233 111.276C178.017 108.382 176.236 105.76 173.994 103.564C171.751 101.367 169.094 99.6402 166.175 98.484C163.257 97.3278 160.138 96.7655 157 96.8301C156.38 96.8301 155.74 96.8301 155 96.9301L148.57 97.5401C147.805 97.6153 147.04 97.3937 146.433 96.921C145.826 96.4483 145.424 95.7607 145.31 95.0001L144.31 88.6201C141.24 68.5601 126.69 53.4301 106.31 49.1301C102.781 48.3877 99.1858 48.009 95.5799 48.0001C87.3021 47.9784 79.1585 50.092 71.9361 54.1368C64.7137 58.1815 58.6566 64.0207 54.3499 71.0901L52.3499 74.3301C52.0818 74.7629 51.708 75.1203 51.2636 75.3687C50.8193 75.6171 50.319 75.7484 49.8099 75.7501H46.0099C36.8449 75.6444 28.0058 79.1463 21.3999 85.5001C16.7199 90.0332 13.4408 95.8155 11.9531 102.159C10.4654 108.502 10.8317 115.14 13.0083 121.281C15.1849 127.422 19.0803 132.808 24.2307 136.799C29.3812 140.79 35.5698 143.216 42.0599 143.79H42.0999Z" fill="#363C44"/>
<path d="M105.78 95.85C104.984 95.85 104.221 95.5339 103.659 94.9713C103.096 94.4087 102.78 93.6456 102.78 92.85V86.21C102.727 84.6015 102.134 83.0576 101.096 81.8275C100.058 80.5974 98.6365 79.7528 97.0598 79.43C96.1035 79.2878 95.1277 79.3533 94.1989 79.6221C93.2701 79.8909 92.4101 80.3567 91.6775 80.9877C90.9449 81.6188 90.3569 82.4003 89.9535 83.279C89.5501 84.1577 89.3408 85.1131 89.3398 86.08V92.85C89.3398 93.6456 89.0238 94.4087 88.4612 94.9713C87.8986 95.5339 87.1355 95.85 86.3398 95.85C85.5442 95.85 84.7811 95.5339 84.2185 94.9713C83.6559 94.4087 83.3398 93.6456 83.3398 92.85V86.08C83.3395 84.2547 83.732 82.4508 84.4907 80.7906C85.2493 79.1305 86.3564 77.6531 87.7367 76.4588C89.117 75.2644 90.7381 74.3811 92.49 73.8689C94.2419 73.3566 96.0836 73.2274 97.8898 73.49C100.901 74.0129 103.636 75.569 105.623 77.8907C107.611 80.2123 108.727 83.1542 108.78 86.21V92.85C108.78 93.6456 108.464 94.4087 107.901 94.9713C107.339 95.5339 106.575 95.85 105.78 95.85Z" fill="#ED0080"/>
<path d="M107.8 125.51H84.32C81.8507 125.507 79.4832 124.526 77.7362 122.781C75.9892 121.036 75.0053 118.669 75 116.2V99.28C75.0132 96.8159 76.0006 94.4571 77.7468 92.7185C79.4929 90.9799 81.8559 90.0026 84.32 90H107.8C110.269 90.0026 112.637 90.984 114.384 92.7291C116.131 94.4743 117.115 96.8407 117.12 99.31V116.2C117.115 118.669 116.131 121.036 114.384 122.781C112.637 124.526 110.269 125.507 107.8 125.51V125.51ZM84.32 96C83.4464 95.9999 82.6079 96.3442 81.9864 96.9582C81.365 97.5722 81.0105 98.4064 81 99.28V116.2C81 117.078 81.3487 117.92 81.9695 118.541C82.5902 119.161 83.4321 119.51 84.31 119.51H107.8C108.679 119.51 109.522 119.162 110.144 118.541C110.766 117.921 111.117 117.079 111.12 116.2V99.28C111.109 98.4064 110.755 97.5722 110.134 96.9582C109.512 96.3442 108.674 95.9999 107.8 96H84.32Z" fill="#ED0080"/>
</svg>
