<svg width="192" height="192" viewBox="0 0 192 192" fill="none" xmlns="http://www.w3.org/2000/svg">
<path d="M8 115.42C8 112.072 8.99293 108.798 10.8532 106.014C12.7135 103.23 15.3576 101.06 18.4512 99.7787C21.5447 98.4973 24.9488 98.1621 28.2329 98.8153C31.517 99.4686 34.5336 101.081 36.9013 103.449C39.269 105.816 40.8814 108.833 41.5347 112.117C42.1879 115.401 41.8527 118.805 40.5713 121.899C39.2899 124.992 37.1199 127.636 34.3358 129.497C31.5517 131.357 28.2784 132.35 24.93 132.35V132.35C22.7138 132.358 20.5177 131.929 18.4672 131.088C16.4168 130.247 14.5522 129.01 12.98 127.448C11.4077 125.886 10.1587 124.029 9.30422 121.984C8.44974 119.939 8.00655 117.746 8 115.53V115.42Z" fill="#D5DCE5"/>
<path d="M24.86 135.35C19.6047 135.339 14.5669 133.251 10.8461 129.539C7.12536 125.828 5.02376 120.795 5 115.54V115.42C5 111.478 6.16887 107.625 8.35881 104.347C10.5487 101.07 13.6614 98.5155 17.3031 97.0071C20.9449 95.4986 24.9521 95.1039 28.8181 95.8729C32.6842 96.642 36.2354 98.5401 39.0226 101.327C41.8099 104.115 43.708 107.666 44.4771 111.532C45.2461 115.398 44.8514 119.405 43.3429 123.047C41.8345 126.689 39.28 129.801 36.0025 131.991C32.725 134.181 28.8718 135.35 24.93 135.35H24.86ZM24.93 101.49C21.2412 101.508 17.7087 102.982 15.1003 105.59C12.4919 108.199 11.0184 111.731 11 115.42V115.53C11.0185 119.198 12.4873 122.71 15.0859 125.299C17.6844 127.889 21.2017 129.345 24.87 129.35H24.92C28.6145 129.35 32.1576 127.882 34.77 125.27C37.3824 122.658 38.85 119.114 38.85 115.42C38.85 111.726 37.3824 108.182 34.77 105.57C32.1576 102.958 28.6145 101.49 24.92 101.49H24.93Z" fill="#363C44"/>
<path d="M103.56 132C103.56 128.652 104.553 125.378 106.413 122.594C108.274 119.81 110.918 117.64 114.011 116.359C117.105 115.077 120.509 114.742 123.793 115.395C127.077 116.049 130.094 117.661 132.461 120.029C134.829 122.396 136.442 125.413 137.095 128.697C137.748 131.981 137.413 135.385 136.131 138.479C134.85 141.572 132.68 144.217 129.896 146.077C127.112 147.937 123.838 148.93 120.49 148.93V148.93C118.274 148.938 116.078 148.509 114.027 147.668C111.977 146.827 110.112 145.59 108.54 144.028C106.968 142.466 105.719 140.609 104.864 138.564C104.01 136.52 103.567 134.326 103.56 132.11V132Z" fill="#D5DCE5"/>
<path d="M120.42 151.94C115.164 151.932 110.125 149.844 106.403 146.132C102.682 142.42 100.581 137.386 100.56 132.13V132C100.56 128.058 101.729 124.205 103.919 120.928C106.109 117.65 109.221 115.096 112.863 113.587C116.505 112.079 120.512 111.684 124.378 112.453C128.244 113.222 131.795 115.12 134.583 117.907C137.37 120.695 139.268 124.246 140.037 128.112C140.806 131.978 140.411 135.985 138.903 139.627C137.395 143.269 134.84 146.381 131.563 148.571C128.285 150.761 124.432 151.93 120.49 151.93L120.42 151.94ZM120.49 118.08C116.803 118.098 113.272 119.571 110.664 122.177C108.056 124.783 106.581 128.313 106.56 132V132.11C106.579 135.778 108.047 139.29 110.646 141.88C113.244 144.469 116.762 145.925 120.43 145.93V145.93C124.125 145.93 127.668 144.462 130.28 141.85C132.892 139.238 134.36 135.695 134.36 132C134.36 128.306 132.892 124.762 130.28 122.15C127.668 119.538 124.125 118.07 120.43 118.07L120.49 118.08Z" fill="#363C44"/>
<path d="M150.15 60.0001C150.15 56.6512 151.143 53.3776 153.004 50.5932C154.865 47.8089 157.509 45.6389 160.603 44.3578C163.698 43.0767 167.102 42.7421 170.386 43.3961C173.671 44.0502 176.687 45.6636 179.055 48.0323C181.422 50.401 183.034 53.4186 183.686 56.7033C184.338 59.9881 184.001 63.3925 182.718 66.4858C181.435 69.5792 179.264 72.2226 176.478 74.0817C173.693 75.9408 170.419 76.9321 167.07 76.9301V76.9301C164.855 76.938 162.66 76.5093 160.611 75.6687C158.562 74.8281 156.698 73.5919 155.127 72.0308C153.556 70.4697 152.307 68.6143 151.453 66.5706C150.599 64.5269 150.156 62.335 150.15 60.1201V60.0001Z" fill="#D5DCE5"/>
<path d="M167 79.9201C161.747 79.9096 156.712 77.8217 152.993 74.1122C149.274 70.4027 147.174 65.3727 147.15 60.1201V60.0001C147.15 56.0579 148.319 52.2042 150.509 48.9265C152.7 45.6488 155.813 43.0944 159.455 41.5862C163.098 40.078 167.105 39.6839 170.972 40.4538C174.838 41.2236 178.389 43.1227 181.176 45.911C183.963 48.6992 185.86 52.2514 186.628 56.1181C187.396 59.9848 187 63.9923 185.49 67.6339C183.98 71.2754 181.424 74.3874 178.145 76.5761C174.866 78.7649 171.012 79.9321 167.07 79.9301L167 79.9201ZM167.07 46.0601C163.376 46.0654 159.836 47.5364 157.226 50.1501C154.616 52.7638 153.15 56.3064 153.15 60.0001V60.0901C153.163 63.7574 154.627 67.2705 157.222 69.8618C159.817 72.4532 163.333 73.9122 167 73.9201H167.05C168.879 73.9201 170.691 73.5598 172.381 72.8597C174.071 72.1597 175.606 71.1336 176.9 69.8401C178.193 68.5466 179.22 67.0109 179.92 65.3209C180.62 63.6308 180.98 61.8194 180.98 59.9901C180.98 58.1608 180.62 56.3494 179.92 54.6593C179.22 52.9692 178.193 51.4336 176.9 50.1401C175.606 48.8466 174.071 47.8205 172.381 47.1204C170.691 46.4204 168.879 46.0601 167.05 46.0601H167.07Z" fill="#363C44"/>
<path d="M130.36 120.3C129.74 120.3 129.136 120.108 128.63 119.75C127.982 119.29 127.543 118.591 127.41 117.807C127.277 117.023 127.46 116.219 127.92 115.57L157.54 73.6801C157.763 73.3485 158.05 73.0648 158.384 72.8457C158.719 72.6266 159.093 72.4765 159.486 72.4042C159.88 72.3319 160.283 72.3389 160.673 72.4248C161.064 72.5106 161.433 72.6736 161.76 72.9041C162.086 73.1346 162.363 73.4281 162.575 73.7672C162.786 74.1064 162.928 74.4843 162.991 74.8789C163.054 75.2736 163.038 75.6769 162.944 76.0652C162.849 76.4535 162.678 76.8189 162.44 77.1401L132.82 119C132.545 119.399 132.178 119.726 131.75 119.953C131.321 120.179 130.845 120.298 130.36 120.3V120.3Z" fill="#363C44"/>
<path d="M111.18 120.62C110.745 120.622 110.315 120.528 109.919 120.347C109.524 120.166 109.173 119.901 108.89 119.57L88.15 95.1901C87.6342 94.5841 87.3802 93.798 87.444 93.0047C87.5077 92.2114 87.884 91.4759 88.49 90.9601C89.0961 90.4443 89.8822 90.1903 90.6755 90.254C91.4687 90.3178 92.2042 90.6941 92.72 91.3001L113.46 115.68C113.83 116.116 114.067 116.649 114.144 117.215C114.221 117.782 114.135 118.358 113.896 118.877C113.656 119.396 113.273 119.836 112.792 120.145C112.311 120.454 111.752 120.619 111.18 120.62V120.62Z" fill="#363C44"/>
<path d="M37.5499 105C36.9437 104.999 36.3521 104.814 35.8531 104.47C35.3541 104.125 34.9711 103.638 34.7545 103.072C34.538 102.505 34.4981 101.887 34.6401 101.298C34.7821 100.708 35.0993 100.176 35.5499 99.7702L47.2299 89.1702C47.829 88.7071 48.581 88.4877 49.3351 88.5559C50.0892 88.6242 50.7896 88.9751 51.2958 89.5382C51.8019 90.1013 52.0765 90.835 52.0642 91.5921C52.052 92.3492 51.754 93.0737 51.2299 93.6202L39.5299 104.19C38.9918 104.694 38.287 104.983 37.5499 105Z" fill="#363C44"/>
<path d="M69.3001 101.11C63.4141 101.11 57.6603 99.3647 52.7663 96.0946C47.8723 92.8246 44.0579 88.1767 41.8054 82.7388C39.5529 77.3008 38.9636 71.3171 40.1119 65.5442C41.2602 59.7713 44.0945 54.4686 48.2566 50.3066C52.4186 46.1446 57.7213 43.3102 63.4942 42.1619C69.267 41.0136 75.2508 41.603 80.6887 43.8554C86.1266 46.1079 90.7745 49.9223 94.0446 54.8163C97.3147 59.7103 99.0601 65.4641 99.0601 71.3501C99.0521 79.2405 95.9141 86.8055 90.3348 92.3848C84.7554 97.9642 77.1905 101.102 69.3001 101.11V101.11ZM69.3001 47.6001C64.6003 47.6001 60.0062 48.9939 56.0987 51.6051C52.1911 54.2163 49.1458 57.9277 47.3477 62.2699C45.5497 66.612 45.0797 71.3899 45.9973 75.9991C46.9149 80.6084 49.1788 84.842 52.5027 88.1645C55.8266 91.487 60.0612 93.7491 64.6708 94.6648C69.2805 95.5804 74.0581 95.1085 78.3995 93.3086C82.7409 91.5087 86.4511 88.4618 89.0606 84.5532C91.6702 80.6445 93.062 76.0498 93.0601 71.3501C93.0521 65.0519 90.546 59.0141 86.0915 54.5616C81.6371 50.109 75.5982 47.6054 69.3001 47.6001V47.6001Z" fill="#363C44"/>
<path d="M64.74 84.1701C63.9593 84.1695 63.2096 83.8646 62.65 83.3201L55.5 76.3801C55.2028 76.1093 54.963 75.7814 54.795 75.4161C54.6269 75.0508 54.5341 74.6554 54.5219 74.2534C54.5097 73.8515 54.5784 73.4512 54.724 73.0764C54.8696 72.7015 55.0891 72.3598 55.3694 72.0714C55.6497 71.7831 55.9851 71.554 56.3557 71.3979C56.7262 71.2418 57.1244 71.1617 57.5265 71.1625C57.9287 71.1633 58.3265 71.245 58.6965 71.4026C59.0664 71.5602 59.4009 71.7906 59.68 72.0801L64.55 76.8001L77.78 61.5301C78.3088 60.9572 79.0399 60.6127 79.8183 60.5695C80.5968 60.5264 81.3615 60.788 81.9504 61.2989C82.5393 61.8098 82.9062 62.5299 82.9733 63.3066C83.0404 64.0834 82.8025 64.8557 82.31 65.4601L67 83.1301C66.7296 83.4329 66.4004 83.6777 66.0326 83.8496C65.6647 84.0215 65.2658 84.1169 64.86 84.1301L64.74 84.1701Z" fill="#ED0080"/>
</svg>
