<?xml version="1.0" encoding="utf-8"?>
<!-- Generator: Adobe Illustrator 17.0.0, SVG Export Plug-In . SVG Version: 6.00 Build 0)  -->
<!DOCTYPE svg PUBLIC "-//W3C//DTD SVG 1.1//EN" "http://www.w3.org/Graphics/SVG/1.1/DTD/svg11.dtd">
<svg version="1.1" xmlns="http://www.w3.org/2000/svg" xmlns:xlink="http://www.w3.org/1999/xlink" x="0px" y="0px"
	 width="266.558px" height="159.046px" viewBox="0 0 266.558 159.046" enable-background="new 0 0 266.558 159.046"
	 xml:space="preserve">
<g id="Layer_1">
</g>
<g id="Layer_2">
</g>
<g id="Layer_3">
	<g>
		<g>
			<g>
				<path fill="#0095D9" d="M153.965,51.509c-24.932-3.119-57.343,16.314-60.96,18.542L66.676,29.242
					c13.449-12.297,53.832-17.877,53.832-17.877C108.539,4.152,94.517,0,79.523,0C35.604,0,0,35.604,0,79.523
					c0,9.484,1.663,18.579,4.709,27.012c12.294,0.35,39.242-1.182,61.027-18.613l26.392,39.506
					c-6.021,5.072-22.485,15.521-53.783,20.138c12.011,7.285,26.105,11.479,41.178,11.479c43.92,0,79.523-35.604,79.523-79.523
					C159.046,69.662,157.246,60.223,153.965,51.509z"/>
			</g>
		</g>
		<g>
			<g>
				<g>
					<g>
						<path fill="#8B8C8E" d="M180.216,112.464l-0.427-1.431c-0.143-0.462-0.478-1.515-1.007-3.159l-3.157-9.76
							c0.512,0.009,0.914,0.014,1.206,0.014c0.318,0,0.696-0.005,1.131-0.014l0.265,0.991c0.075,0.283,0.206,0.737,0.39,1.36
							l2.958,9.873l3.984-10.822l0.477-1.402c0.495,0.009,0.89,0.014,1.184,0.014c0.294,0,0.689-0.005,1.185-0.014l-1.632,3.952
							l-3.277,8.244l-0.804,2.153c-0.519-0.019-0.925-0.028-1.219-0.028C181.172,112.436,180.752,112.446,180.216,112.464z"/>
					</g>
					<g>
						<path fill="#8B8C8E" d="M189.548,112.464l0.217-3.57l0.244-6.091l0.102-4.689l1.157,0.014l1.132-0.014
							c-0.094,1.473-0.179,3.015-0.256,4.625c-0.077,1.611-0.139,3.369-0.186,5.277c-0.047,1.907-0.071,3.39-0.071,4.448
							c-0.528-0.019-0.905-0.028-1.132-0.028C190.545,112.436,190.143,112.446,189.548,112.464z M190.125,95.028
							c0.026-0.888,0.038-1.558,0.038-2.011c0.46,0.019,0.867,0.028,1.219,0.028c0.444,0,0.846-0.009,1.206-0.028
							c-0.017,0.293-0.042,0.963-0.075,2.011c-0.453-0.009-0.842-0.014-1.169-0.014C191.018,95.013,190.611,95.018,190.125,95.028z"
							/>
					</g>
					<g>
						<path fill="#8B8C8E" d="M205.695,110.212c-0.101,0.519-0.201,1.18-0.302,1.983c-0.804,0.227-1.501,0.38-2.092,0.46
							c-0.59,0.08-1.178,0.12-1.765,0.12c-1.047,0-1.987-0.142-2.82-0.425c-0.834-0.283-1.548-0.777-2.143-1.48
							c-0.595-0.703-1.022-1.509-1.282-2.415c-0.259-0.907-0.39-1.865-0.39-2.876c0-1.407,0.239-2.713,0.717-3.917
							c0.477-1.204,1.196-2.15,2.155-2.84c0.959-0.689,2.175-1.034,3.65-1.034c0.762,0,1.491,0.125,2.186,0.375
							c0.696,0.25,1.273,0.63,1.734,1.14c0.46,0.51,0.817,1.14,1.067,1.891c0.252,0.751,0.377,1.57,0.377,2.457
							c0,0.34-0.025,0.671-0.075,0.992h-9.588c-0.033,0.519-0.05,0.916-0.05,1.19c0,0.991,0.184,1.905,0.553,2.741
							c0.368,0.836,0.913,1.468,1.633,1.898s1.55,0.644,2.488,0.644C202.829,111.119,204.144,110.817,205.695,110.212z
							 M197.226,103.47h7.489c-0.009-0.595-0.042-1.058-0.1-1.388c-0.059-0.331-0.168-0.673-0.327-1.027s-0.375-0.661-0.647-0.921
							c-0.272-0.26-0.599-0.458-0.98-0.595c-0.381-0.137-0.793-0.205-1.237-0.205c-0.477,0-0.932,0.076-1.363,0.227
							c-0.432,0.151-0.813,0.359-1.144,0.623c-0.331,0.264-0.612,0.574-0.842,0.928s-0.402,0.696-0.515,1.027
							C197.445,102.469,197.334,102.913,197.226,103.47z"/>
					</g>
					<g>
						<path fill="#8B8C8E" d="M215.357,110.595c-0.092,0.463-0.193,1.076-0.302,1.841c-0.57,0.151-1.022,0.245-1.357,0.283
							c-0.335,0.038-0.653,0.057-0.955,0.057c-0.745,0-1.346-0.106-1.803-0.319c-0.457-0.213-0.807-0.552-1.05-1.02
							c-0.243-0.467-0.364-1.102-0.364-1.905c0-0.104,0.004-0.288,0.012-0.552c0.009-0.264,0.051-1.185,0.128-2.762l0.307-6.346
							h-1.678c0.033-0.397,0.063-0.963,0.088-1.7h1.713c0.043-0.529,0.085-1.431,0.127-2.706c0.786-0.17,1.45-0.33,1.993-0.482
							c-0.057,1.398-0.091,2.46-0.099,3.187h3.493c-0.043,0.595-0.068,1.161-0.076,1.7h-3.478l-0.336,7.975l-0.012,0.609
							c0,0.689,0.069,1.206,0.207,1.551c0.138,0.345,0.345,0.593,0.621,0.744c0.276,0.151,0.564,0.226,0.866,0.226
							c0.209,0,0.435-0.019,0.678-0.057C214.32,110.883,214.746,110.774,215.357,110.595z"/>
					</g>
					<g>
						<path fill="#8B8C8E" d="M217.128,112.464c0.401-5.921,0.609-10.704,0.626-14.349l1.132,0.014c0.277,0,0.642-0.005,1.095-0.014
							l-0.166,2.833c0.21-0.397,0.377-0.701,0.502-0.913c0.126-0.213,0.293-0.437,0.503-0.673c0.21-0.236,0.456-0.455,0.741-0.659
							c0.285-0.203,0.62-0.373,1.006-0.51c0.385-0.137,0.777-0.238,1.175-0.305c0.398-0.066,0.794-0.099,1.188-0.099
							c0.72,0,1.416,0.099,2.087,0.297c0.67,0.198,1.221,0.522,1.653,0.97c0.432,0.448,0.72,0.951,0.867,1.508
							c0.147,0.557,0.22,1.157,0.22,1.799c0,0.123-0.004,0.359-0.012,0.708c-0.008,0.349-0.025,0.807-0.05,1.374l-0.249,5.935
							c-0.016,0.566-0.029,1.26-0.037,2.082c-0.377-0.019-0.734-0.028-1.07-0.028c-0.411,0-0.797,0.01-1.158,0.028
							c0.085-1.142,0.148-2.243,0.19-3.301l0.165-3.3c0.05-1.133,0.076-1.988,0.076-2.564c0-0.831-0.126-1.494-0.377-1.99
							c-0.252-0.496-0.654-0.878-1.208-1.147c-0.554-0.269-1.175-0.404-1.862-0.404c-0.974,0-1.807,0.26-2.504,0.779
							c-0.637,0.482-1.132,1.166-1.484,2.054c-0.243,0.633-0.415,1.568-0.515,2.805c-0.128,1.482-0.217,3.839-0.269,7.068
							c-0.467-0.019-0.83-0.028-1.088-0.028S217.654,112.446,217.128,112.464z"/>
					</g>
					<g>
						<path fill="#8B8C8E" d="M233.527,100.396c0.075-0.415,0.154-1.029,0.238-1.841c1.005-0.293,1.879-0.493,2.62-0.602
							c0.741-0.108,1.464-0.163,2.168-0.163c0.754,0,1.46,0.078,2.117,0.234c0.658,0.156,1.204,0.408,1.64,0.758
							c0.435,0.349,0.724,0.751,0.866,1.204c0.143,0.453,0.214,0.94,0.214,1.459c0,0.652-0.044,1.745-0.131,3.279
							c-0.088,1.535-0.154,2.954-0.2,4.257c-0.046,1.303-0.068,2.465-0.068,3.485c-0.453-0.019-0.822-0.028-1.107-0.028
							c-0.269,0-0.65,0.01-1.145,0.028l0.267-3.867l0.191-4.575c-0.293,0.255-0.513,0.434-0.66,0.538
							c-0.147,0.104-0.312,0.201-0.497,0.29c-0.185,0.09-0.388,0.175-0.61,0.255c-0.222,0.08-0.654,0.219-1.295,0.418
							s-1.096,0.349-1.364,0.453c-0.579,0.208-1.036,0.416-1.371,0.623c-0.335,0.208-0.616,0.435-0.842,0.68
							c-0.227,0.246-0.386,0.491-0.478,0.737c-0.109,0.302-0.163,0.618-0.163,0.949c0,0.51,0.134,0.954,0.402,1.331
							c0.268,0.378,0.605,0.64,1.011,0.786c0.407,0.147,0.894,0.22,1.464,0.22c0.352,0,0.72-0.028,1.105-0.083
							c0.386-0.055,0.901-0.198,1.546-0.427c-0.117,0.365-0.251,0.927-0.402,1.685c-0.611,0.132-1.11,0.215-1.495,0.248
							c-0.385,0.033-0.75,0.05-1.093,0.05c-1.147,0-2.044-0.151-2.689-0.453c-0.645-0.302-1.126-0.762-1.445-1.381
							c-0.318-0.618-0.477-1.291-0.477-2.018c0-0.425,0.057-0.817,0.169-1.176c0.113-0.359,0.266-0.684,0.459-0.977
							c0.193-0.292,0.467-0.585,0.824-0.878c0.356-0.293,0.728-0.533,1.118-0.722c0.39-0.189,0.845-0.375,1.364-0.56
							c0.519-0.184,1.353-0.432,2.501-0.743c0.369-0.094,0.683-0.191,0.942-0.291c0.26-0.099,0.491-0.196,0.692-0.29
							c0.201-0.094,0.377-0.205,0.527-0.333c0.151-0.128,0.29-0.283,0.415-0.467c0.126-0.184,0.217-0.371,0.276-0.56
							c0.058-0.189,0.088-0.378,0.088-0.566c0-0.463-0.134-0.859-0.402-1.19c-0.268-0.33-0.618-0.562-1.05-0.694
							c-0.432-0.132-0.94-0.198-1.527-0.198c-0.544,0-1.103,0.05-1.678,0.149c-0.574,0.099-1.068,0.217-1.483,0.354
							C234.664,99.917,234.147,100.122,233.527,100.396z"/>
					</g>
					<g>
						<path fill="#8B8C8E" d="M246.368,112.464l0.137-2.054c0.026-0.434,0.058-1.119,0.1-2.054l0.301-8.626
							c0.009-0.708,0.012-1.246,0.012-1.615c0.394,0.009,0.755,0.014,1.081,0.014c0.352,0,0.7-0.005,1.043-0.014l-0.113,2.634
							c0.285-0.529,0.543-0.949,0.773-1.26c0.23-0.312,0.533-0.6,0.911-0.864c0.377-0.264,0.806-0.47,1.288-0.616
							c0.481-0.146,0.982-0.219,1.501-0.219c0.36,0,0.716,0.047,1.068,0.142c0.352,0.094,0.676,0.226,0.974,0.396
							s0.553,0.364,0.766,0.581c0.214,0.217,0.385,0.453,0.515,0.708c0.13,0.255,0.262,0.623,0.395,1.105
							c0.511-1.086,1.15-1.846,1.917-2.28c0.766-0.434,1.623-0.651,2.57-0.651c0.603,0,1.187,0.109,1.753,0.326
							c0.565,0.217,1.015,0.529,1.351,0.935c0.335,0.406,0.559,0.829,0.672,1.268c0.113,0.439,0.17,0.881,0.17,1.324
							c0,0.453-0.03,1.133-0.088,2.04c-0.057,0.907-0.124,2.288-0.2,4.143c-0.075,1.855-0.116,3.402-0.124,4.639
							c-0.445-0.019-0.793-0.028-1.044-0.028c-0.269,0-0.667,0.01-1.196,0.028c0.092-1.275,0.172-2.663,0.238-4.165l0.163-3.513
							c0.042-0.85,0.063-1.582,0.063-2.196c0-0.55-0.05-0.979-0.151-1.288c-0.101-0.309-0.262-0.586-0.484-0.833
							c-0.222-0.246-0.497-0.434-0.823-0.562c-0.327-0.128-0.699-0.193-1.119-0.193c-0.335,0-0.645,0.043-0.929,0.128
							c-0.269,0.085-0.528,0.213-0.779,0.384c-0.276,0.18-0.523,0.402-0.741,0.667c-0.218,0.256-0.402,0.545-0.553,0.867
							c-0.159,0.331-0.289,0.724-0.39,1.178c-0.126,0.568-0.214,1.264-0.264,2.088c-0.057,0.878-0.103,2.035-0.137,3.47
							l-0.099,3.966c-0.486-0.019-0.851-0.028-1.094-0.028c-0.227,0-0.609,0.01-1.145,0.028c0.084-1.171,0.151-2.375,0.201-3.612
							l0.15-3.428c0.042-1.058,0.063-1.959,0.063-2.706c0-0.482-0.042-0.89-0.126-1.225c-0.084-0.335-0.241-0.642-0.471-0.921
							c-0.231-0.278-0.508-0.491-0.835-0.637c-0.327-0.146-0.687-0.22-1.081-0.22c-0.418,0-0.816,0.083-1.193,0.248
							c-0.377,0.165-0.725,0.409-1.043,0.729c-0.318,0.321-0.587,0.715-0.804,1.183c-0.218,0.468-0.387,1.081-0.508,1.841
							c-0.122,0.76-0.218,2.085-0.288,3.973c-0.071,1.889-0.106,3.48-0.106,4.774c-0.536-0.019-0.905-0.028-1.106-0.028
							C247.295,112.436,246.913,112.446,246.368,112.464z"/>
					</g>
				</g>
				<g>
					<g>
						<g>
							<path fill="#8B8C8E" d="M176.222,82.104c0.382-12.075,0.463-21.83,0.246-29.264l2.231,0.029c0.545,0,1.263-0.01,2.155-0.029
								l-0.132,5.777c0.384-0.809,0.695-1.43,0.927-1.863c0.234-0.434,0.548-0.891,0.944-1.372c0.397-0.481,0.868-0.929,1.416-1.344
								c0.547-0.413,1.196-0.76,1.945-1.04c0.75-0.279,1.515-0.486,2.294-0.621c0.779-0.135,1.558-0.202,2.333-0.202
								c1.42,0,2.796,0.202,4.13,0.606c1.334,0.404,2.442,1.065,3.323,1.979c0.881,0.915,1.485,1.94,1.812,3.077
								c0.327,1.137,0.513,2.359,0.557,3.669c0.008,0.25,0.016,0.732,0.024,1.444c0.007,0.713,0.006,1.647-0.004,2.802
								l-0.082,12.104c0.006,1.156,0.029,2.571,0.07,4.247c-0.746-0.038-1.449-0.058-2.11-0.058c-0.809,0-1.568,0.019-2.278,0.058
								c0.087-2.33,0.136-4.574,0.147-6.731l0.098-6.731c0.022-2.311,0.013-4.054-0.026-5.229c-0.057-1.695-0.35-3.048-0.881-4.059
								c-0.529-1.011-1.349-1.791-2.457-2.34c-1.109-0.549-2.342-0.823-3.696-0.823c-1.917,0-3.543,0.53-4.878,1.589
								c-1.223,0.982-2.151,2.378-2.783,4.189c-0.435,1.29-0.709,3.197-0.824,5.72c-0.149,3.023-0.163,7.829-0.041,14.415
								c-0.922-0.038-1.638-0.058-2.147-0.058C178.026,82.046,177.255,82.065,176.222,82.104z"/>
						</g>
					</g>
					<g>
						<g>
							<path fill="#8B8C8E" d="M216.277,52.176c1.688,0,3.304,0.288,4.851,0.867c1.545,0.578,2.898,1.493,4.057,2.744
								c1.158,1.253,2.058,2.831,2.699,4.738c0.642,1.907,0.997,3.919,1.067,6.038c0.075,2.292-0.163,4.488-0.713,6.586
								c-0.549,2.1-1.359,3.881-2.428,5.345c-1.069,1.464-2.4,2.537-3.993,3.221c-1.593,0.683-3.314,1.025-5.162,1.025
								c-1.72,0-3.353-0.308-4.901-0.924c-1.547-0.616-2.902-1.579-4.061-2.889c-1.161-1.309-2.061-2.912-2.701-4.81
								c-0.642-1.897-0.996-3.886-1.065-5.965c-0.103-3.139,0.335-5.965,1.313-8.479c0.978-2.513,2.476-4.391,4.493-5.633
								C211.748,52.797,213.93,52.176,216.277,52.176z M216.288,55.844c-1.637,0-3.126,0.491-4.466,1.473
								c-1.34,0.982-2.307,2.46-2.899,4.434c-0.594,1.975-0.851,4.127-0.775,6.457c0.067,2.041,0.4,3.876,0.999,5.503
								c0.599,1.628,1.541,2.942,2.826,3.943c1.285,1.002,2.81,1.502,4.575,1.502c1.204,0,2.336-0.246,3.395-0.737
								c1.059-0.491,1.972-1.304,2.737-2.441c0.764-1.136,1.314-2.528,1.644-4.175c0.331-1.646,0.468-3.375,0.408-5.185
								c-0.056-1.695-0.301-3.284-0.735-4.767c-0.433-1.483-1.063-2.672-1.886-3.568c-0.825-0.896-1.744-1.526-2.759-1.892
								C218.337,56.027,217.315,55.844,216.288,55.844z"/>
						</g>
					</g>
					<g>
						<g>
							<path fill="#8B8C8E" d="M233.155,51.115c-0.011-1.81-0.031-3.178-0.061-4.102c0.853,0.039,1.605,0.058,2.257,0.058
								c0.821,0,1.564-0.019,2.229-0.058c-0.012,0.597-0.015,1.965-0.009,4.102c-0.838-0.019-1.558-0.029-2.162-0.029
								S234.052,51.096,233.155,51.115z M233.212,82.104l0.172-7.28l0.057-12.422l-0.113-9.562l2.14,0.029l2.093-0.029
								c-0.079,3.004-0.137,6.149-0.176,9.432c-0.039,3.284-0.039,6.871-0.003,10.761c0.036,3.89,0.089,6.914,0.158,9.071
								c-0.979-0.038-1.678-0.058-2.096-0.058C235.055,82.046,234.312,82.065,233.212,82.104z"/>
						</g>
					</g>
					<g>
						<g>
							<path fill="#8B8C8E" d="M240.555,95.161c0.175-4.969,0.262-11.729,0.264-20.28c0.002-8.551-0.076-15.541-0.234-20.973
								c2.838-0.674,5.112-1.131,6.823-1.373c1.71-0.24,3.43-0.361,5.158-0.361c2.722,0,5.104,0.476,7.145,1.43
								c2.042,0.953,3.663,2.629,4.865,5.026c1.203,2.398,1.858,5.109,1.966,8.133c0.074,2.099-0.115,4.127-0.569,6.081
								c-0.454,1.955-1.191,3.702-2.21,5.243c-1.02,1.541-2.276,2.701-3.767,3.481c-1.492,0.78-3.174,1.17-5.043,1.17
								c-1.118,0-2.198-0.149-3.239-0.448c-1.042-0.299-1.952-0.688-2.728-1.17c-0.777-0.481-1.434-1.02-1.971-1.618
								c-0.537-0.597-1.192-1.493-1.969-2.687l0.089,11.44c-0.005,1.868,0.007,3.216,0.037,4.044l0.101,2.86
								c-0.887-0.039-1.661-0.058-2.321-0.058C242.343,95.104,241.544,95.123,240.555,95.161z M245.203,57.346l-0.105,2.195
								l-0.024,3.004c-0.014,1.579-0.02,2.865-0.02,3.856c0,0.992,0.008,1.69,0.022,2.095c0.052,1.426,0.235,2.773,0.551,4.044
								c0.316,1.271,0.899,2.431,1.748,3.481c0.849,1.05,1.834,1.845,2.953,2.383c1.119,0.539,2.264,0.809,3.433,0.809
								c1.641,0,3.111-0.5,4.41-1.502c1.301-1.001,2.291-2.494,2.971-4.478c0.68-1.984,0.977-4.15,0.894-6.5
								c-0.085-2.369-0.55-4.41-1.397-6.124c-0.847-1.714-1.948-2.951-3.301-3.712c-1.354-0.76-2.869-1.141-4.545-1.141
								C250.402,55.758,247.871,56.288,245.203,57.346z"/>
						</g>
					</g>
				</g>
			</g>
		</g>
		<polygon fill="#015496" points="66.448,87.558 66.768,30.851 92.269,70.377 92.041,125.868 		"/>
	</g>
</g>
</svg>
