<?xml version="1.0" encoding="utf-8"?>
<!-- Generator: Adobe Illustrator 17.0.0, SVG Export Plug-In . SVG Version: 6.00 Build 0)  -->
<!DOCTYPE svg PUBLIC "-//W3C//DTD SVG 1.1//EN" "http://www.w3.org/Graphics/SVG/1.1/DTD/svg11.dtd">
<svg version="1.1" xmlns="http://www.w3.org/2000/svg" xmlns:xlink="http://www.w3.org/1999/xlink" x="0px" y="0px"
	 width="163.75px" height="163.75px" viewBox="0 0 163.75 163.75" enable-background="new 0 0 163.75 163.75" xml:space="preserve">
<g id="Layer_1">
</g>
<g id="Layer_2">
</g>
<g id="Layer_3">
	<g>
		<g>
			<g>
				<path fill="#00A651" d="M63.16,145.543c0.155-0.56,0.313-0.962,0.472-1.208c0.159-0.245,0.356-0.434,0.592-0.568
					c0.275-0.162,0.583-0.25,0.925-0.267c0.342-0.016,0.697,0.027,1.065,0.129c0.11,0.031,0.236,0.073,0.375,0.128
					c0.14,0.055,0.274,0.108,0.402,0.159c0.464,0.216,0.804,0.533,1.021,0.95c0.217,0.417,0.258,0.873,0.121,1.366l-0.319,1.149
					l-1.923-0.534l0.262-0.856c0.025-0.088,0.047-0.193,0.069-0.314c0.022-0.121,0.037-0.212,0.046-0.273
					c0.015-0.226-0.07-0.376-0.255-0.452l-0.155-0.043c-0.162-0.045-0.29-0.013-0.383,0.096c-0.094,0.109-0.169,0.267-0.227,0.473
					l-1.252,4.508c-0.057,0.206-0.072,0.381-0.042,0.524c0.029,0.143,0.138,0.241,0.327,0.293c0.196,0.055,0.345,0.029,0.448-0.078
					s0.183-0.263,0.24-0.469l0.356-1.282l1.9,0.528l-0.356,1.282c-0.188,0.678-0.56,1.13-1.115,1.357
					c-0.51,0.208-1.122,0.212-1.836,0.013c-0.906-0.252-1.485-0.638-1.736-1.161c-0.225-0.475-0.214-1.158,0.034-2.049
					L63.16,145.543z"/>
				<path fill="#00A651" d="M67.673,152.975l2.977-8.081l2.508,0.44l0.095,8.62l-1.807-0.317l0.024-2.126l-1.333-0.234l-0.724,2.004
					L67.673,152.975z M70.547,149.998l0.949,0.166l0.13-1.537c0.051-0.822,0.102-1.643,0.153-2.465l-0.068-0.012l-0.71,2.32
					L70.547,149.998z"/>
				<path fill="#00A651" d="M71.452,144.488l-1.318-0.156l1.335-1.136l1.343,0.159l1.049,1.417l-1.296-0.153l-0.509-0.568
					L71.452,144.488z M73.63,143.475l-1.096-1.677l1.549,0.183l0.412,1.596L73.63,143.475z"/>
				<path fill="#00A651" d="M75.163,154.181l0.523-8.458l2.747,0.17l0.495,3.875c0.037,0.271,0.073,0.615,0.109,1.031
					c0.007,0.131,0.044,0.705,0.112,1.722l0.069,0.004l0.105-2.802l0.233-3.761l1.602,0.099l-0.524,8.458l-2.518-0.156l-0.738-5.155
					c-0.056-0.333-0.109-0.781-0.158-1.345c-0.029-0.278-0.054-0.556-0.075-0.833l-0.019,0.298
					c-0.015,0.237-0.025,0.593-0.031,1.068c-0.007,0.475-0.017,0.831-0.032,1.068l-0.298,4.815L75.163,154.181z"/>
				<path fill="#00A651" d="M88.6,154.15l-1.988,0.174l-0.621-7.094l-1.348,0.118L84.525,146l4.707-0.412l0.118,1.348l-1.371,0.12
					L88.6,154.15z"/>
				<path fill="#00A651" d="M91.334,153.854l-1.544-8.332l1.939-0.359l0.564,3.044l0.969-0.18l-0.564-3.044l1.939-0.359l1.544,8.332
					l-1.939,0.359l-0.738-3.98l-0.97,0.18l0.738,3.98L91.334,153.854z"/>
				<path fill="#00A651" d="M99.791,142.788l-0.061-0.209l-0.606,0.176l-0.243-0.837l1.321-0.384l0.208,0.716
					c0.105,0.36,0.096,0.7-0.025,1.022c-0.098,0.26-0.239,0.448-0.421,0.564c0.129,0.114,0.23,0.238,0.305,0.371
					c0.075,0.134,0.142,0.303,0.202,0.509c0.022,0.074,0.057,0.195,0.106,0.363c0.049,0.169,0.089,0.305,0.119,0.407l0.986,3.391
					c0.258,0.888,0.278,1.571,0.059,2.049c-0.238,0.523-0.805,0.915-1.7,1.175c-0.426,0.124-0.811,0.18-1.157,0.169
					c-0.435-0.017-0.801-0.141-1.1-0.373c-0.22-0.183-0.394-0.405-0.522-0.666c-0.128-0.261-0.247-0.583-0.358-0.965l-0.986-3.391
					c-0.162-0.558-0.24-0.983-0.233-1.275c0.006-0.292,0.075-0.557,0.205-0.794c0.156-0.284,0.374-0.522,0.652-0.715
					c0.278-0.192,0.594-0.34,0.946-0.442c0.301-0.088,0.562-0.141,0.783-0.162c0.221-0.02,0.431-0.022,0.632-0.004
					c0.2,0.018,0.386,0.049,0.559,0.094c0.093-0.091,0.19-0.183,0.29-0.275C99.838,143.172,99.852,143.001,99.791,142.788z
					 M97.659,145.725l1.306,4.492c0.062,0.213,0.142,0.371,0.24,0.474c0.097,0.103,0.245,0.126,0.443,0.068
					c0.176-0.051,0.279-0.151,0.308-0.298c0.029-0.148,0.014-0.321-0.044-0.519l-1.306-4.492c-0.064-0.22-0.137-0.374-0.218-0.462
					c-0.116-0.125-0.266-0.161-0.449-0.108c-0.184,0.053-0.292,0.155-0.324,0.303C97.582,145.331,97.597,145.512,97.659,145.725z"/>
			</g>
			<path fill="#00A651" d="M74.487,29.337h17.107v1.101l10.352,5.213H64.649h-0.514l6.534-3.891l-0.734-0.147l-6.534,3.231
				l-1.615-0.367c0,0-0.587,0.294,0,1.175c0.587,0.881,3.965,3.157,3.965,3.157h0.441v1.468h1.836v1.322h1.248v14.758h-2.496v4.552
				h29.515v2.129H66.852v2.57H96.22l26.358,14.684c0,0,12.702,6.608,15.565,18.282c0-11.454,0-17.327,0-17.327h2.496v-4.993h-0.954
				v-7.342l2.827-2.827l-9.435-4.222l-0.514-0.661l-0.147-0.661h-0.954v0.808l-0.954,0.954h2.57l7.783,4.112l-17.254-0.073
				l2.57-1.762h-0.881l-2.276,1.175l-0.954,0.294l2.643,2.937l0.073,8.003l-23.935-13.436v-6.975h-3.598V41.746h1.028v-1.542h1.982
				v-1.689l4.699-3.231l-0.073-0.734l-0.661-0.147l-0.881,0.661l-11.013-5.213v-2.423l1.836-2.863l-0.294-0.587H93.43h-0.881
				l-3.231,2.129l-3.524-0.073c0,0-1.175-2.643-1.615-3.084c-0.441-0.441-1.598-0.734-2.304,0.441
				c-0.706,1.175-1.22,3.084-1.22,3.084l-3.231-0.073l-2.203-1.689l-0.441-0.587h-2.056l0.073,0.808l1.762,2.496L74.487,29.337z"/>
			<circle fill="#00A651" cx="83.638" cy="47.104" r="3.695"/>
			<g>
				<path fill="#00A651" d="M81.875,163.75C36.729,163.75,0,127.021,0,81.875S36.729,0,81.875,0s81.875,36.729,81.875,81.875
					S127.021,163.75,81.875,163.75z M81.875,0.75C37.143,0.75,0.75,37.143,0.75,81.875C0.75,126.608,37.143,163,81.875,163
					S163,126.608,163,81.875C163,37.143,126.607,0.75,81.875,0.75z"/>
			</g>
			<g>
				<path fill="#00A651" d="M137.088,105.433c-0.511-2.628-2.04-7.453-4.497-10.958c-0.019-0.028-0.037-0.052-0.056-0.079
					c-5.355-8.735-15.064-14.421-25.847-14.214c-7.506,0.144-14.783,1.653-21.809,4.336c-4.754,1.815-9.445,3.851-14.31,5.299
					c-5.393,1.605-10.973,2.487-16.544,0.612c-4.723-1.589-8.314-4.274-9.193-9.278c-0.223-2.616,0.582-6,1.54-8.987
					c-2.835,3.695-2.801,7.896-2.801,7.896l0,0.001c-0.466,4.638,1.503,9.016,5.702,11.673c2.577,1.63,5.586,2.858,8.565,3.515
					c7.689,1.697,14.969-0.284,21.78-3.752c6.994-3.561,14.289-6.05,21.981-7.43c10.022-1.798,18.79,0.823,26.261,7.706
					c2.311,2.129,4.166,4.538,5.637,7.179c0.349,0.723,3.906,8.293,3.511,15.654C137.485,110.688,137.6,108.06,137.088,105.433z"/>
				<path fill="#00A651" d="M147.917,51.772c-13.279-28.723-42.128-45.015-73.639-41.448C48.329,13.261,29.335,26.88,17.205,50.023
					c-0.505,0.964-0.862,2.098-1.56,2.859l-3.874-0.061c0.636,1.956,3.051,3.638,5.563,4.911c2.08,1.141,4.275,1.965,6.542,2.574
					c0.027,0.008,0.044,0.013,0.044,0.013l-0.001-0.001c1.631,0.436,3.298,0.762,4.986,1.017c1.66,0.25,3.331,0.431,5.027,0.647
					c-0.287,1.759-1.109,2.497-2.677,2.184c-3.424-0.684-6.906-1.179-10.247-2.154c-2.52-0.735-4.857-2.095-7.395-3.23
					c-0.215,0.61-0.445,1.193-0.628,1.79C10.33,69.25,9.168,78.101,9.969,87.167c2.063,23.372,12.843,41.688,32.241,54.8
					c4.08,2.758,8.737,4.671,13.175,6.88c0.109,0.054,0.26,0.083,0.429,0.091l1.196,0.53l0.81-2.698
					c0.471-1.454,0.885-2.948,1.349-4.491c-15.862-6.213-27.859-16.6-35.625-31.579c-7.783-15.012-9.405-30.784-5.412-47.179
					c4.576,1.436,8.842,2.775,13.081,4.106c0.019,1.828-0.916,2.122-2.372,1.708c-2.295-0.652-6.433-2.53-8.733-3.167
					c-0.278,0.073-0.584-0.119-0.222,0.466c2.252,1.1,6.298,3.548,8.607,4.512c1.149,0.479,1.491,0.939,1.325,2.232
					c-0.364,2.828-0.732,5.703-0.608,8.537c0.559,12.715,9.773,23.513,22.229,26.068c13.088,2.685,25.314-0.081,36.829-6.405
					c4.563-2.506,9.263-4.548,14.331-5.674c6.817-1.515,13.066-0.552,18.182,4.646c6.483,6.587,7.335,16.539,2.225,25.233
					c-3.951,6.723-9.52,11.707-16.317,15.424c-0.098,0.054-0.202,0.126-0.308,0.205c-0.828,0.473-1.404,0.791-1.404,0.791
					l2.33,7.765c3.544-1.992,6.941-3.603,10.02-5.686c10.186-6.889,16.847-16.023,17.303-28.775c0.223-6.223-0.65-12.32-4.436-17.46
					c-7.011-9.517-16.829-12.634-28.156-11.131c-7.387,0.98-14.14,4.109-20.725,7.537c-8.225,4.283-17.008,5.677-26.132,4.356
					C46.73,97.59,40.57,91.582,39.707,84.147c-0.684-5.894,1.191-10.912,5.813-14.588c4.763-3.788,10.017-6.141,16.241-3.173
					c0-3.19,0-6.273,0-9.582c-0.824,0-1.51,0-2.196,0c-3.121-0.002-6.243-0.01-9.364-0.004c-0.896,0.001-1.73-0.073-1.642-1.282
					c0.128-1.743-0.796-2.126-2.351-2.116c-7.325,0.05-14.651,0.019-21.976,0.018c-0.687,0-1.374,0-2.594,0
					c0.906-1.878,1.495-3.345,2.282-4.696c14.136-24.261,35.318-36.133,63.305-34.779c19.03,0.92,35.114,9.081,47.335,23.701
					c15.242,18.232,20.451,38.628,16.409,60.729c-0.412,1.643-4.84,18.98-10.092,25.167c2.293-2.293,7.31-8.935,11.031-22.109
					l-0.001-0.002C156.729,84.979,155.582,68.353,147.917,51.772z"/>
			</g>
		</g>
		<g>
			<g>
				<rect x="79.498" y="38.75" fill="#FFFFFF" width="1.784" height="17.073"/>
				<rect x="75.484" y="42.763" fill="#FFFFFF" width="15.544" height="1.784"/>
				<rect x="75.484" y="49.579" fill="#FFFFFF" width="15.544" height="1.784"/>
				<rect x="85.932" y="38.75" fill="#FFFFFF" width="1.784" height="17.073"/>
			</g>
			<rect x="126.544" y="70.315" fill="#FFFFFF" width="11.562" height="5.733"/>
			<rect x="126.544" y="67.926" fill="#FFFFFF" width="11.562" height="1.338"/>
			<rect x="71.089" y="38.75" fill="#FFFFFF" width="3.504" height="17.965"/>
			<rect x="91.729" y="38.75" fill="#FFFFFF" width="3.504" height="17.965"/>
		</g>
	</g>
</g>
</svg>
