<?xml version="1.0" encoding="utf-8"?>
<!-- Generator: Adobe Illustrator 17.0.0, SVG Export Plug-In . SVG Version: 6.00 Build 0)  -->
<!DOCTYPE svg PUBLIC "-//W3C//DTD SVG 1.1//EN" "http://www.w3.org/Graphics/SVG/1.1/DTD/svg11.dtd">
<svg version="1.1" xmlns="http://www.w3.org/2000/svg" xmlns:xlink="http://www.w3.org/1999/xlink" x="0px" y="0px" width="163px"
	 height="161.677px" viewBox="0 0 163 161.677" enable-background="new 0 0 163 161.677" xml:space="preserve">
<g id="Layer_1">
</g>
<g id="Layer_2">
</g>
<g id="Layer_3">
	<g>
		<path fill-rule="evenodd" clip-rule="evenodd" fill="#DE0023" d="M62.419,76.691l3.253-3.727l3.821,3.095L62.419,76.691z
			 M49.899,79.624l0.888,1.332v0.74l15.987-1.037l4.243-4.588l-5.378-4.441l-5.033,5.378l-9.178,3.997l-0.099-0.395l4.244-1.826
			l-4.441,1.432L49.899,79.624z M65.23,69.301l0.853-0.442l1.295,1.579l5.811,0.474l-5.4,0.283l0.284,0.379l13.738,0.6l0.127-0.947
			l0.63-0.19l0.19-6.441l0.347,6.348l0.505,0.252v1.074l10.244,0.836v-0.356l-5.25-0.474l5.448-0.079l0.672-1.302l1.026,0.868
			l-0.947,1.343l5.763,4.539l9.197,3.869l0.158-0.434l-3.671-1.618l4.224,1.104l1.657-0.394l0.04,0.948l-1.262,0.355v0.355
			l0.828,0.197l-0.158,0.553l-43.54-2.329l3.671-4.264l-5.842-5.407L65.23,69.301z M67.691,85.309v-1.882l51.733,1.696l-0.03,2.112
			L67.691,85.309z M67.691,86.577l51.684,1.925l-0.105,6.952l-51.579-0.463V86.577z M114.026,98.871
			c0-0.513-0.204-1.006-0.567-1.369c-0.364-0.363-0.855-0.567-1.368-0.567c-0.002,0-0.002,0-0.003,0c-1.121,0-2.03,0.909-2.03,2.03
			c0,2.448,0,6.237,0,6.237h3.969V98.871z M119.552,98.871c0-0.513-0.204-1.006-0.567-1.369c-0.363-0.363-0.855-0.567-1.368-0.567
			c-0.002,0-0.002,0-0.003,0c-1.121,0-2.03,0.909-2.03,2.03c0,2.448,0,6.237,0,6.237h3.969V98.871z M109.164,99.044
			c0.002-1.239-1.003-2.243-2.241-2.243c-0.002,0-0.002,0-0.002,0c-1.289,0-2.334,1.045-2.334,2.334v6.139h4.577V99.044z
			 M103.136,98.913c0-0.596-0.238-1.169-0.659-1.59c-0.423-0.422-0.995-0.659-1.59-0.659c-0.002,0-0.003,0-0.003,0
			c-0.622,0-1.218,0.247-1.658,0.687c-0.44,0.439-0.686,1.036-0.686,1.657c0,2.631,0,6.538,0,6.538h4.596V98.913z M97.083,98.782
			c0-1.247-1.012-2.258-2.258-2.258c-0.002,0-0.002,0-0.003,0c-0.624,0-1.223,0.248-1.663,0.689
			c-0.442,0.441-0.691,1.04-0.691,1.664c0,2.696,0,6.745,0,6.745h4.615V98.782z M91.006,98.643c0-0.602-0.239-1.178-0.664-1.604
			c-0.426-0.425-1.003-0.664-1.604-0.664c-0.002,0-0.003,0-0.005,0c-0.626,0-1.226,0.249-1.669,0.691
			c-0.442,0.443-0.691,1.043-0.691,1.669c0,2.791,0,7.063,0,7.063h4.633V98.643z M72.632,98.435c0-1.268-1.028-2.296-2.296-2.296
			c-0.001,0-0.002,0-0.003,0c-1.319,0-2.388,1.069-2.388,2.388c0,2.973,0,7.665,0,7.665h4.688V98.435z M78.781,98.465
			c0-0.607-0.241-1.188-0.67-1.617c-0.429-0.429-1.011-0.67-1.617-0.67c-0.001,0-0.002,0-0.003,0c-1.314,0-2.379,1.065-2.379,2.379
			c0,2.962,0,7.635,0,7.635h4.669V98.465z M84.906,98.495c0-0.604-0.239-1.183-0.667-1.61c-0.428-0.427-1.007-0.667-1.611-0.667
			c-0.002,0-0.003,0-0.005,0c-1.308,0-2.369,1.061-2.369,2.369c0,2.95,0,7.606,0,7.606h4.651V98.495z M97.27,51.001
			c-0.39-9.666-2.784-18.375-10.291-24.65c-6.077,3.185-11.203,8.589-15.247,16.517c-13.065-5.664-26.916-7.55-41.675-5.082
			c-0.437,13.123,2.766,25.418,9.783,36.847c-12.49-0.374-23.128,2.62-31.891,9.022c15.432,31.023,57.159,46.778,111.555,27.317
			v-4.701c0,0-12.452,5.082-28.969,5.082c-16.517,0-42.182-5.718-42.182-31.129c0-25.412,21.981-32.399,33.669-32.399
			C91.044,47.824,97.27,51.001,97.27,51.001z M87.959,121.931c-0.022,0-0.048-0.006-0.076-0.019
			c-0.029-0.013-0.046-0.028-0.055-0.046l-0.404-0.633h0.634c0.06,0,0.105,0.024,0.13,0.072l0.341,0.627H87.959z M88.252,122.272
			c-0.021-0.031-0.048-0.058-0.082-0.081c-0.043-0.029-0.087-0.043-0.133-0.043h-0.424c-0.041,0-0.082,0.013-0.127,0.041
			c-0.038,0.023-0.068,0.051-0.09,0.083l-0.789,0.84h0.697c0.025,0,0.059-0.003,0.098-0.008c0.06-0.008,0.12-0.054,0.195-0.145
			l0.23-0.252l0.228,0.232c0.076,0.1,0.136,0.149,0.195,0.161c0.041,0.008,0.076,0.012,0.103,0.012h0.691L88.252,122.272z
			 M45.913,123.111c-0.022,0-0.047-0.007-0.075-0.02c-0.028-0.013-0.047-0.028-0.056-0.045l-0.405-0.634h0.633
			c0.061,0,0.105,0.024,0.131,0.072l0.34,0.627H45.913z M100.306,123.111l0.339-0.627c0.025-0.048,0.07-0.072,0.131-0.072h0.632
			l-0.404,0.634c-0.009,0.017-0.027,0.032-0.055,0.045c-0.029,0.013-0.054,0.02-0.076,0.02H100.306z M57.872,123.114
			c-0.022,0-0.047-0.006-0.075-0.02c-0.029-0.013-0.047-0.028-0.055-0.045l-0.405-0.633h0.633c0.061,0,0.104,0.024,0.13,0.072
			l0.34,0.627H57.872z M77.209,124.666v0.672c0,0.064-0.019,0.112-0.062,0.155c-0.043,0.043-0.09,0.062-0.155,0.062h-1.39v-1.105
			h1.39c0.064,0,0.112,0.019,0.155,0.062C77.189,124.554,77.209,124.603,77.209,124.666z M46.741,126.489h-1.242l0.598-1.724h0.042
			L46.741,126.489z M66.725,127.067h1.882v-1.513h-1.882V127.067z M59.261,127.175c0,0.064-0.02,0.112-0.067,0.155
			c-0.046,0.043-0.098,0.062-0.168,0.062l-2.037,0.025c-0.07,0-0.121-0.019-0.168-0.062c-0.046-0.043-0.067-0.091-0.067-0.155
			v-2.539c0-0.065,0.021-0.112,0.067-0.155c0.046-0.043,0.098-0.062,0.168-0.062l2.037-0.025c0.07,0,0.121,0.019,0.168,0.062
			c0.046,0.043,0.067,0.091,0.067,0.155V127.175z M88.973,127.175c0,0.064-0.022,0.112-0.068,0.155
			c-0.048,0.043-0.1,0.062-0.171,0.062l-2.067,0.025c-0.07,0-0.124-0.019-0.169-0.062c-0.048-0.043-0.068-0.091-0.068-0.155v-2.539
			c0-0.065,0.021-0.112,0.068-0.155c0.046-0.043,0.1-0.062,0.169-0.062l2.067-0.025c0.071,0,0.124,0.019,0.171,0.062
			c0.046,0.043,0.068,0.091,0.068,0.155V127.175z M49.414,123.471h-0.7v4.535c0,0.176,0.127,0.303,0.303,0.303h0.7v-4.535
			C49.717,123.598,49.589,123.471,49.414,123.471z M107.967,123.5h-0.409c-0.071,0-0.141,0.02-0.207,0.059
			c-0.062,0.037-0.111,0.088-0.149,0.153l-1.259,2.299l-1.258-2.303c-0.036-0.061-0.086-0.111-0.147-0.148v0
			c-0.065-0.039-0.135-0.058-0.207-0.058h-0.409c-0.176,0-0.303,0.127-0.303,0.303v4.523h0.7c0.176,0,0.302-0.127,0.302-0.303
			v-2.491l0.797,1.514c0.068,0.116,0.182,0.182,0.314,0.182h0.426c0.13,0,0.244-0.066,0.317-0.191l0.793-1.506v2.491
			c0,0.176,0.127,0.303,0.302,0.303h0.698v-4.523C108.269,123.627,108.143,123.5,107.967,123.5z M92.848,123.592
			c-0.147,0.064-0.276,0.151-0.386,0.261c-0.109,0.11-0.196,0.239-0.26,0.385c-0.065,0.149-0.098,0.309-0.098,0.476v2.399
			c0,0.167,0.033,0.327,0.098,0.476c0.063,0.146,0.15,0.276,0.26,0.385c0.111,0.109,0.239,0.197,0.385,0.261
			c0.149,0.065,0.309,0.097,0.477,0.097h2.154v-0.653c0-0.175-0.128-0.303-0.304-0.303h-1.85c-0.065,0-0.112-0.019-0.155-0.063
			c-0.043-0.042-0.062-0.09-0.062-0.155v-2.492c0-0.064,0.019-0.112,0.062-0.155c0.043-0.042,0.09-0.062,0.155-0.062h1.85
			c0.176,0,0.304-0.127,0.304-0.303v-0.653h-2.154C93.155,123.494,92.996,123.527,92.848,123.592z M43.156,125.864l-2.191-0.724
			v-0.514c0-0.07,0.023-0.099,0.048-0.12c0.047-0.038,0.102-0.056,0.174-0.056h2.003c0.175,0,0.302-0.127,0.302-0.303v-0.653h-2.305
			c-0.16,0-0.315,0.025-0.458,0.073c-0.148,0.05-0.279,0.123-0.389,0.217c-0.114,0.096-0.205,0.215-0.271,0.352
			c-0.067,0.14-0.101,0.296-0.101,0.466v0.695c0,0.142,0.046,0.277,0.137,0.401c0.089,0.124,0.203,0.21,0.339,0.258l2.192,0.729
			v0.474c0,0.066-0.018,0.115-0.06,0.158c-0.04,0.041-0.083,0.059-0.146,0.059h-2.159c-0.175,0-0.303,0.127-0.303,0.302v0.653h2.462
			c0.165,0,0.321-0.029,0.464-0.086c0.145-0.058,0.273-0.142,0.379-0.249c0.106-0.106,0.19-0.233,0.25-0.376
			c0.06-0.144,0.09-0.301,0.09-0.467v-0.624c0-0.137-0.04-0.27-0.121-0.394C43.41,126.003,43.297,125.913,43.156,125.864z
			 M63.334,123.797l0,2.293c0.003,0.04,0.006,0.08,0.008,0.12l-1.216-2.297c-0.062-0.118-0.161-0.218-0.295-0.299
			c-0.133-0.079-0.268-0.12-0.403-0.12h-0.665c-0.175,0-0.302,0.127-0.302,0.303v4.535h0.7c0.175,0,0.303-0.127,0.303-0.303v-3.289
			l1.822,3.395c0.021,0.045,0.061,0.101,0.136,0.146c0.058,0.034,0.118,0.051,0.179,0.051h0.735v-4.837h-0.7
			C63.462,123.494,63.334,123.621,63.334,123.797z M98.81,123.797v1.635h-1.642v-1.635c0-0.176-0.127-0.303-0.303-0.303h-0.7v4.837
			h0.7c0.176,0,0.303-0.127,0.303-0.303v-1.641h1.642v1.641c0,0.176,0.127,0.303,0.303,0.303h0.698v-4.837h-0.698
			C98.936,123.494,98.81,123.621,98.81,123.797z M112.74,123.797l0.002,2.293c0.002,0.04,0.005,0.08,0.008,0.12l-1.216-2.297
			c-0.062-0.118-0.162-0.218-0.295-0.299c-0.133-0.079-0.268-0.12-0.402-0.12h-0.665c-0.176,0-0.303,0.127-0.303,0.303v4.535h0.7
			c0.174,0,0.303-0.127,0.303-0.303v-3.289l1.823,3.395c0.021,0.045,0.06,0.101,0.135,0.146c0.059,0.034,0.119,0.051,0.179,0.051
			h0.735v-4.837h-0.7C112.867,123.494,112.74,123.621,112.74,123.797z M70.765,123.797v0.653h1.308v3.882h0.699
			c0.176,0,0.303-0.127,0.303-0.303v-3.579h1.022c0.175,0,0.303-0.127,0.303-0.303v-0.653h-3.332
			C70.892,123.494,70.765,123.621,70.765,123.797z M84.291,123.797v1.635h-1.642v-1.635c0-0.176-0.127-0.303-0.303-0.303h-0.7v4.837
			h0.7c0.176,0,0.303-0.127,0.303-0.303v-1.641h1.642v1.641c0,0.176,0.127,0.303,0.303,0.303h0.7v-4.837h-0.7
			C84.418,123.494,84.291,123.621,84.291,123.797z M46.877,123.649c-0.056-0.098-0.154-0.155-0.267-0.155h-0.695
			c-0.153,0-0.293,0.045-0.416,0.133c-0.121,0.087-0.208,0.203-0.259,0.345l-1.53,4.359h0.798c0.154,0,0.277-0.09,0.319-0.228
			l0.338-0.515h1.907l0.336,0.507c0.045,0.145,0.168,0.236,0.322,0.236h0.799l-1.636-4.645L46.877,123.649z M77.853,123.853
			c-0.11-0.11-0.239-0.197-0.385-0.261c-0.148-0.065-0.309-0.098-0.476-0.098h-1.827c-0.153,0-0.291,0.057-0.4,0.166
			c-0.108,0.108-0.166,0.247-0.166,0.4v4.272h0.7c0.175,0,0.302-0.127,0.302-0.303v-1.527c0.036,0.006,0.073,0.009,0.111,0.009
			h1.279c0.166,0,0.327-0.033,0.476-0.098c0.147-0.064,0.276-0.152,0.385-0.261c0.109-0.11,0.197-0.239,0.261-0.385
			c0.065-0.149,0.098-0.309,0.098-0.476v-0.578c0-0.166-0.033-0.327-0.098-0.476C78.05,124.092,77.962,123.962,77.853,123.853z
			 M109.215,123.494h-0.7v4.535c0,0.176,0.127,0.303,0.302,0.303h0.7v-4.535C109.517,123.621,109.389,123.494,109.215,123.494z
			 M117.607,123.494c-0.176,0-0.303,0.127-0.303,0.303v1.635h-1.642v-1.635c0-0.176-0.127-0.303-0.303-0.303h-0.7v4.837h0.7
			c0.176,0,0.303-0.127,0.303-0.303v-1.641h1.642v1.641c0,0.176,0.127,0.303,0.303,0.303h0.7v-4.837H117.607z M101.005,123.494
			h-0.698v4.535c0,0.176,0.127,0.303,0.303,0.303h0.7v-4.535C101.309,123.621,101.18,123.494,101.005,123.494z M55.265,125.397
			h-1.786v0.653c0,0.176,0.127,0.303,0.303,0.303h0.835v0.83c0,0.023-0.005,0.043-0.015,0.062c-0.016,0.03-0.038,0.056-0.065,0.08
			c-0.027,0.024-0.058,0.042-0.092,0.056c-0.032,0.013-0.064,0.019-0.097,0.019H53.14c-0.064,0-0.112-0.019-0.155-0.062
			c-0.043-0.042-0.062-0.091-0.062-0.155v-2.539c0-0.064,0.019-0.112,0.062-0.155c0.043-0.043,0.091-0.062,0.155-0.062h1.92
			c0.179,0,0.309-0.127,0.309-0.303v-0.653H53.14c-0.167,0-0.327,0.033-0.476,0.098c-0.146,0.064-0.276,0.152-0.385,0.261
			c-0.11,0.109-0.197,0.239-0.261,0.385c-0.065,0.148-0.098,0.309-0.098,0.475v2.446c0,0.167,0.033,0.327,0.098,0.476
			c0.064,0.146,0.151,0.276,0.261,0.385c0.109,0.109,0.238,0.197,0.385,0.261c0.149,0.065,0.309,0.097,0.476,0.097h1.208
			c0.159,0,0.313-0.023,0.455-0.069c0.15-0.048,0.282-0.122,0.395-0.22c0.114-0.099,0.205-0.224,0.271-0.37
			c0.066-0.146,0.099-0.315,0.099-0.502V125.7C55.567,125.524,55.44,125.397,55.265,125.397z M89.655,124.22
			c-0.07-0.146-0.165-0.276-0.285-0.385c-0.12-0.109-0.263-0.197-0.424-0.261c-0.163-0.065-1.063-0.097-1.245-0.097
			c-0.184,0-1.083,0.032-1.246,0.098c-0.162,0.063-0.302,0.151-0.423,0.261c-0.12,0.109-0.217,0.239-0.287,0.385
			c-0.071,0.149-0.108,0.309-0.108,0.476v2.446c0,0.167,0.036,0.327,0.108,0.476c0.07,0.146,0.166,0.276,0.287,0.385
			c0.119,0.109,0.261,0.197,0.423,0.261c0.163,0.065,0.339,0.097,0.523,0.097h1.448c0.184,0,0.36-0.033,0.523-0.097
			c0.16-0.064,0.302-0.151,0.423-0.261c0.12-0.11,0.215-0.239,0.285-0.385c0.071-0.149,0.108-0.309,0.108-0.476v-2.446
			C89.763,124.528,89.727,124.368,89.655,124.22z M59.935,124.22c-0.069-0.146-0.164-0.276-0.282-0.385
			c-0.118-0.109-0.258-0.197-0.416-0.261c-0.161-0.065-1.048-0.097-1.228-0.097c-0.18,0-1.067,0.032-1.228,0.098
			c-0.159,0.063-0.299,0.151-0.417,0.261c-0.118,0.109-0.213,0.239-0.282,0.385c-0.07,0.149-0.105,0.309-0.105,0.476v2.446
			c0,0.167,0.035,0.327,0.105,0.476c0.069,0.146,0.164,0.276,0.282,0.385c0.118,0.109,0.258,0.197,0.417,0.261
			c0.16,0.065,0.334,0.097,0.515,0.097h1.426c0.18,0,0.354-0.033,0.515-0.097c0.158-0.064,0.298-0.151,0.416-0.261
			c0.118-0.11,0.213-0.239,0.282-0.385c0.07-0.149,0.105-0.309,0.105-0.476v-2.446C60.04,124.528,60.005,124.368,59.935,124.22z
			 M78.426,128.655h0.907v-1.587h-0.907V128.655z M151.112,52.927c0,0-14.029-52.927-71.152-52.927C38.472,0,0,34.496,0,80.057
			c0,45.56,36.06,81.621,80.263,81.621c44.204,0,63.819-30.324,67.08-36.642c8.811-17.069,10.321-37.573,15.657-43.652
			c-9.802-1.737-27.173-0.496-40.822,4.219v24.168c0,0,9.596-4.566,13.369-7.346c-3.575,10.423-15.339,46.895-63.256,46.895
			c-19.75,0-64.93-10.826-64.93-67.406c0-24.816,20.349-70.476,71.717-70.476C130.447,11.438,151.112,52.927,151.112,52.927z"/>
		<path fill-rule="evenodd" clip-rule="evenodd" fill="#F7E000" d="M140.927,86.965l3.244,6.154l7.119-2.633l-4.617,6.188
			l4.009,5.722l-6.615-2.243l-4.203,5.58l0.089-6.985l-6.606-2.273l7.087-2.005L140.927,86.965z M122.178,107.229
			c2.399-1.02,9.952-4.192,13.483-5.21c-0.105,0.188-0.222,0.38-0.348,0.575c-3.92,2.792-13.134,7.176-13.134,7.176V107.229z
			 M119.505,108.215c-3.076,1.152-17.949,6.385-34.233,6.385c-18.296,0-45.978-3.557-67.721-30.621
			c6.591-4.828,20.821-7.751,28.318-7.877c-5.591-9.275-9.148-26.173-8.894-33.669c7.369-1.143,20.583-0.382,36.973,4.446
			c6.099-11.053,10.799-13.483,12.96-15.882c3.136,2.862,7.385,10.203,9.94,19.805c0.277,0.125,0.423,0.2,0.423,0.2
			c-0.39-9.666-2.784-18.375-10.291-24.65c-6.077,3.185-11.203,8.589-15.247,16.517c-13.065-5.664-26.916-7.55-41.675-5.082
			c-0.437,13.123,2.766,25.418,9.783,36.847c-12.49-0.374-23.128,2.62-31.891,9.022c15.432,31.023,57.159,46.778,111.555,27.317
			V108.215z"/>
	</g>
</g>
</svg>
