<?xml version="1.0" encoding="utf-8"?>
<!-- Generator: Adobe Illustrator 17.0.0, SVG Export Plug-In . SVG Version: 6.00 Build 0)  -->
<!DOCTYPE svg PUBLIC "-//W3C//DTD SVG 1.1//EN" "http://www.w3.org/Graphics/SVG/1.1/DTD/svg11.dtd">
<svg version="1.1" xmlns="http://www.w3.org/2000/svg" xmlns:xlink="http://www.w3.org/1999/xlink" x="0px" y="0px"
	 width="163.468px" height="163.468px" viewBox="0 0 163.468 163.468" enable-background="new 0 0 163.468 163.468"
	 xml:space="preserve">
<g id="Layer_1">
	<g>
		<g>
			<circle fill="#FFFFFF" cx="81.734" cy="81.734" r="81.085"/>
			<g>
				<path fill="#1B75BB" d="M81.734,0C36.593,0,0,36.593,0,81.734c0,45.14,36.593,81.734,81.734,81.734
					c45.14,0,81.734-36.593,81.734-81.734C163.468,36.593,126.874,0,81.734,0z M81.734,161.212
					c-43.895,0-79.478-35.584-79.478-79.478c0-43.895,35.584-79.478,79.478-79.478s79.478,35.583,79.478,79.478
					C161.212,125.628,125.628,161.212,81.734,161.212z"/>
				<path fill="#1B75BB" d="M18.629,52.935c0.355-0.752,0.569-1.231,0.643-1.436c0.117-0.328,0.155-0.634,0.114-0.916
					c-0.041-0.282-0.152-0.542-0.333-0.781c-0.181-0.238-0.398-0.418-0.652-0.54c-0.322-0.155-0.648-0.194-0.978-0.117
					c-0.33,0.076-0.63,0.268-0.899,0.575c0.012-0.304-0.056-0.582-0.204-0.833c-0.148-0.252-0.352-0.441-0.614-0.566
					c-0.241-0.116-0.487-0.161-0.738-0.135c-0.251,0.026-0.478,0.101-0.681,0.223c-0.202,0.123-0.376,0.289-0.522,0.497
					c-0.145,0.209-0.329,0.544-0.55,1.005l-1.117,2.328l5.581,2.678L18.629,52.935z M15.641,50.495
					c-0.041,0.117-0.171,0.405-0.391,0.863l-0.37,0.771l-1.291-0.619l0.324-0.675c0.266-0.554,0.433-0.886,0.502-0.996
					c0.117-0.185,0.253-0.301,0.409-0.349c0.155-0.048,0.319-0.03,0.492,0.053c0.18,0.086,0.298,0.214,0.353,0.382
					C15.724,50.092,15.715,50.282,15.641,50.495z M15.809,52.574l0.456-0.949c0.257-0.535,0.45-0.87,0.58-1.005
					c0.13-0.134,0.274-0.216,0.431-0.245c0.157-0.029,0.32-0.003,0.487,0.077c0.198,0.095,0.33,0.226,0.395,0.392
					c0.065,0.167,0.071,0.345,0.018,0.534c-0.032,0.125-0.149,0.399-0.352,0.823l-0.523,1.089L15.809,52.574z"/>
				
					<rect x="22.48" y="46.376" transform="matrix(0.5215 -0.8533 0.8533 0.5215 -29.0239 42.184)" fill="#1B75BB" width="1.238" height="1.186"/>
				<path fill="#1B75BB" d="M16.293,44.392c-0.054,0.322-0.041,0.656,0.04,1.003c0.081,0.347,0.218,0.666,0.41,0.956
					c0.263,0.391,0.663,0.751,1.201,1.08c0.841,0.514,1.649,0.676,2.423,0.485s1.413-0.697,1.914-1.516
					c0.495-0.81,0.649-1.604,0.464-2.382c-0.186-0.778-0.705-1.428-1.558-1.949c-0.86-0.525-1.681-0.692-2.461-0.5
					c-0.781,0.192-1.419,0.695-1.916,1.507C16.536,43.526,16.364,43.964,16.293,44.392z M17.729,43.623
					c0.281-0.459,0.654-0.735,1.121-0.831c0.467-0.095,1.003,0.043,1.609,0.413c0.612,0.374,0.985,0.797,1.117,1.269
					c0.132,0.472,0.063,0.929-0.208,1.373c-0.271,0.444-0.649,0.715-1.134,0.815c-0.485,0.1-1.026-0.033-1.624-0.399
					c-0.608-0.372-0.976-0.79-1.106-1.255C17.373,44.543,17.449,44.081,17.729,43.623z"/>
				<polygon fill="#1B75BB" points="16.449,42.866 16.969,42.616 17.421,41.875 16.452,42.408 16.043,43.078 16.01,44.184 
					16.463,43.443 				"/>
				<polygon fill="#1B75BB" points="23.243,35.905 27.232,39.152 28.055,38.14 24.067,34.894 25.274,33.411 24.462,32.749 
					21.221,36.731 22.033,37.392 				"/>
				<polygon fill="#1B75BB" points="30.949,34.852 29.012,32.962 30.797,31.132 32.735,33.022 33.646,32.088 29.215,27.766 
					28.304,28.699 30.048,30.401 28.263,32.23 26.519,30.529 25.608,31.462 30.039,35.785 				"/>
				<polygon fill="#1B75BB" points="32.428,24.444 32.389,23.656 33.185,23.81 33.948,23.17 32.449,22.801 31.571,23.537 
					31.661,25.086 				"/>
				<path fill="#1B75BB" d="M32.087,25.374c-0.154,0.287-0.248,0.608-0.282,0.963c-0.034,0.355-0.006,0.701,0.084,1.037
					c0.124,0.455,0.388,0.923,0.793,1.407c0.633,0.755,1.347,1.166,2.142,1.232c0.795,0.066,1.561-0.209,2.298-0.826
					c0.727-0.609,1.127-1.313,1.199-2.109c0.072-0.797-0.213-1.578-0.854-2.344c-0.647-0.773-1.372-1.192-2.173-1.259
					c-0.802-0.067-1.567,0.206-2.297,0.817C32.594,24.63,32.29,24.991,32.087,25.374z M33.693,25.103
					c0.412-0.346,0.855-0.488,1.328-0.43c0.473,0.059,0.937,0.361,1.393,0.904c0.461,0.55,0.679,1.07,0.654,1.559
					c-0.025,0.489-0.237,0.901-0.636,1.235c-0.399,0.334-0.843,0.471-1.335,0.41c-0.491-0.06-0.962-0.359-1.412-0.896
					c-0.457-0.546-0.673-1.06-0.648-1.542C33.062,25.862,33.281,25.448,33.693,25.103z"/>
				<polygon fill="#1B75BB" points="41.542,25.629 39.273,22.29 43.696,24.165 44.779,23.43 41.3,18.31 40.297,18.991 42.621,22.41 
					38.111,20.476 37.061,21.19 40.539,26.31 				"/>
				<path fill="#1B75BB" d="M45.633,21.185c0.463,0.324,0.98,0.486,1.551,0.486c0.571,0,1.154-0.161,1.748-0.483
					c0.468-0.253,0.884-0.588,1.248-1.004c0.364-0.416,0.606-0.801,0.726-1.154l-1.174-2.168L47.259,18.2l0.496,0.917l1.314-0.711
					l0.374,0.691c-0.103,0.222-0.251,0.444-0.444,0.665c-0.193,0.221-0.409,0.397-0.65,0.527c-0.486,0.263-0.966,0.314-1.44,0.153
					c-0.475-0.161-0.887-0.564-1.237-1.211c-0.324-0.599-0.421-1.131-0.29-1.595c0.131-0.465,0.447-0.833,0.948-1.104
					c0.33-0.179,0.648-0.251,0.953-0.216c0.305,0.035,0.569,0.164,0.794,0.388l1.029-0.821c-0.384-0.438-0.852-0.692-1.402-0.761
					c-0.55-0.069-1.177,0.088-1.883,0.47c-0.543,0.293-0.947,0.629-1.214,1.007c-0.351,0.494-0.531,1.028-0.54,1.603
					c-0.01,0.575,0.139,1.146,0.446,1.712C44.798,20.438,45.17,20.862,45.633,21.185z"/>
				<polygon fill="#1B75BB" points="54.901,12.675 56.713,17.487 57.934,17.027 56.121,12.215 57.911,11.54 57.542,10.561 
					52.738,12.37 53.107,13.35 				"/>
				
					<rect x="57.472" y="12.23" transform="matrix(0.2929 0.9561 -0.9561 0.2929 55.1441 -48.8016)" fill="#1B75BB" width="6.19" height="1.304"/>
				<polygon fill="#1B75BB" points="64.794,14.901 63.883,10.968 67.331,14.313 68.607,14.018 67.209,7.987 66.029,8.261 
					66.962,12.288 63.453,8.858 62.216,9.144 63.613,15.174 				"/>
				<polygon fill="#1B75BB" points="76.17,13.02 77.905,6.644 76.527,6.771 75.373,11.478 73.323,7.067 71.915,7.197 74.784,13.148 
									"/>
				<polygon fill="#1B75BB" points="82.846,6.25 82.258,4.978 80.87,4.956 82.066,6.238 				"/>
				<path fill="#1B75BB" d="M80.753,11.356l2.582,0.042l0.541,1.415l1.419,0.023l-2.486-6.231L81.43,6.582l-2.616,6.149l1.383,0.022
					L80.753,11.356z M82.08,8.037l0.853,2.311l-1.762-0.029L82.08,8.037z"/>
				<polygon fill="#1B75BB" points="90.629,13.304 91.923,13.475 92.595,8.376 94.491,8.626 94.628,7.588 89.539,6.917 
					89.402,7.955 91.302,8.206 				"/>
				<path fill="#1B75BB" d="M96.804,11.694l0.258,0.058c0.292,0.066,0.5,0.137,0.625,0.213c0.124,0.076,0.233,0.188,0.326,0.337
					c0.093,0.149,0.25,0.496,0.47,1.039l0.624,1.521l1.522,0.343l-0.504-1.352c-0.198-0.538-0.366-0.919-0.503-1.144
					c-0.138-0.224-0.327-0.444-0.567-0.66c0.571,0.048,1.028-0.044,1.372-0.277c0.345-0.232,0.568-0.575,0.67-1.028
					c0.081-0.357,0.06-0.695-0.061-1.013c-0.121-0.319-0.322-0.567-0.602-0.744c-0.281-0.177-0.758-0.342-1.432-0.494L96.325,7.89
					l-1.362,6.038l1.273,0.287L96.804,11.694z M97.367,9.198l0.993,0.224c0.516,0.116,0.824,0.193,0.924,0.23
					c0.199,0.079,0.341,0.195,0.426,0.345c0.085,0.151,0.105,0.328,0.059,0.531c-0.041,0.181-0.118,0.323-0.231,0.424
					c-0.113,0.101-0.252,0.16-0.415,0.175c-0.163,0.015-0.55-0.046-1.16-0.184l-0.941-0.212L97.367,9.198z"/>
				<path fill="#1B75BB" d="M102.797,15.798c0.26,0.23,0.683,0.442,1.268,0.636c0.485,0.16,0.898,0.231,1.239,0.212
					c0.34-0.019,0.634-0.1,0.88-0.24c0.246-0.141,0.451-0.346,0.615-0.615c0.163-0.269,0.362-0.756,0.595-1.462l1.022-3.086
					l-1.238-0.41l-1.077,3.251c-0.154,0.465-0.282,0.792-0.385,0.98c-0.102,0.188-0.266,0.322-0.49,0.4
					c-0.224,0.079-0.512,0.059-0.863-0.057c-0.346-0.115-0.594-0.278-0.746-0.489c-0.151-0.211-0.213-0.446-0.187-0.705
					c0.019-0.16,0.112-0.492,0.279-0.997l1.054-3.183l-1.238-0.41l-1.038,3.134c-0.217,0.658-0.342,1.168-0.372,1.531
					c-0.019,0.246,0.025,0.501,0.131,0.766C102.354,15.321,102.537,15.568,102.797,15.798z"/>
				<polygon fill="#1B75BB" points="110.787,18.94 111.833,16.563 115.454,14.23 114.078,13.625 111.729,15.267 111.323,12.413 
					109.923,11.798 110.646,16.032 109.597,18.417 				"/>
				<polygon fill="#1B75BB" points="119.926,15.626 119.803,14.772 118.589,14.1 119.243,15.248 				"/>
				<polygon fill="#1B75BB" points="118.124,22.735 118.628,21.823 115.47,20.076 116.285,18.602 119.124,20.171 119.628,19.259 
					116.79,17.689 117.454,16.488 120.505,18.175 121.011,17.259 116.82,14.941 113.824,20.358 				"/>
				<polygon fill="#1B75BB" points="119.287,15.707 119.56,16.215 120.319,16.635 119.744,15.689 119.058,15.31 117.952,15.325 
					118.711,15.746 				"/>
				<polygon fill="#1B75BB" points="120.344,24.168 122.62,20.834 122.494,25.636 123.575,26.374 127.066,21.262 126.065,20.579 
					123.734,23.992 123.881,19.088 122.833,18.372 119.343,23.484 				"/>
				<polygon fill="#1B75BB" points="129.235,31.076 132.666,27.244 134.091,28.52 134.789,27.74 130.964,24.316 130.266,25.096 
					131.694,26.375 128.263,30.206 				"/>
				<polygon fill="#1B75BB" points="132.384,34.121 134.363,32.274 136.106,34.143 134.127,35.99 135.017,36.943 139.543,32.721 
					138.653,31.767 136.872,33.429 135.128,31.56 136.91,29.898 136.02,28.944 131.494,33.167 				"/>
				<polygon fill="#1B75BB" points="143.484,36.064 143.294,36.851 143.897,37.644 144.335,36.164 143.641,35.252 142.09,35.27 
					142.696,36.066 				"/>
				<path fill="#1B75BB" d="M137.02,38.199c-0.104,0.791,0.136,1.569,0.718,2.334c0.575,0.755,1.259,1.187,2.051,1.296
					c0.793,0.109,1.587-0.139,2.381-0.744c0.802-0.611,1.255-1.314,1.359-2.112c0.104-0.797-0.132-1.575-0.709-2.332
					c-0.318-0.419-0.665-0.738-1.038-0.96c-0.279-0.167-0.596-0.276-0.949-0.327c-0.354-0.05-0.7-0.039-1.04,0.036
					c-0.46,0.102-0.94,0.345-1.442,0.727C137.567,36.714,137.123,37.408,137.02,38.199z M139.199,37.161
					c0.567-0.431,1.09-0.623,1.57-0.575c0.48,0.048,0.883,0.286,1.209,0.713c0.326,0.428,0.448,0.876,0.367,1.346
					c-0.081,0.47-0.404,0.92-0.968,1.349c-0.571,0.435-1.101,0.628-1.588,0.58c-0.488-0.048-0.889-0.279-1.204-0.692
					c-0.315-0.414-0.431-0.865-0.348-1.353C138.321,38.042,138.641,37.586,139.199,37.161z"/>
				<polygon fill="#1B75BB" points="141.091,45.124 144.533,43.015 142.452,47.344 143.136,48.46 148.414,45.226 147.781,44.193 
					144.256,46.353 146.399,41.938 145.736,40.856 140.458,44.091 				"/>
				<path fill="#1B75BB" d="M146.661,48.366c-0.535,0.258-0.976,0.61-1.321,1.057c-0.346,0.447-0.532,0.955-0.558,1.526
					c-0.027,0.571,0.106,1.16,0.399,1.769c0.231,0.479,0.546,0.91,0.944,1.294c0.398,0.383,0.771,0.643,1.118,0.779l2.222-1.07
					l-1.22-2.533l-0.94,0.452l0.648,1.346l-0.708,0.341c-0.217-0.114-0.432-0.272-0.644-0.475c-0.212-0.203-0.377-0.427-0.496-0.673
					c-0.239-0.498-0.268-0.98-0.085-1.446c0.183-0.466,0.606-0.859,1.268-1.178c0.614-0.296,1.149-0.367,1.607-0.214
					c0.458,0.153,0.81,0.486,1.058,0.999c0.163,0.339,0.22,0.66,0.17,0.962c-0.05,0.303-0.191,0.561-0.426,0.775l0.771,1.066
					c0.456-0.363,0.732-0.818,0.826-1.364c0.095-0.546-0.032-1.18-0.38-1.903c-0.268-0.556-0.584-0.976-0.949-1.26
					c-0.477-0.374-1.002-0.579-1.576-0.616C147.819,47.965,147.242,48.086,146.661,48.366z"/>
				<polygon fill="#1B75BB" points="13.951,68.595 9.818,66.394 14.499,66.162 14.957,64.125 8.498,62.671 8.214,63.936 
					13.298,65.08 7.914,65.269 7.618,66.58 12.402,69.063 7.317,67.918 7.033,69.183 13.492,70.636 				"/>
				
					<rect x="6.621" y="71.784" transform="matrix(0.9902 0.1395 -0.1395 0.9902 10.2101 -0.6767)" fill="#1B75BB" width="6.621" height="1.395"/>
				<polygon fill="#1B75BB" points="12.588,79.452 8.176,79.158 12.776,76.631 12.866,75.276 6.26,74.836 6.174,76.129 
					10.482,76.416 5.989,78.909 5.896,80.306 12.502,80.745 				"/>
				
					<rect x="5.907" y="82.495" transform="matrix(0.9999 -0.0162 0.0162 0.9999 -1.3461 0.1602)" fill="#1B75BB" width="6.621" height="1.395"/>
				<path fill="#1B75BB" d="M8.25,91.106c0.417-0.031,0.761-0.149,1.031-0.354c0.27-0.205,0.475-0.475,0.614-0.812
					c0.139-0.337,0.26-0.849,0.362-1.537c0.102-0.688,0.218-1.125,0.346-1.312c0.101-0.146,0.229-0.225,0.386-0.237
					c0.171-0.013,0.313,0.051,0.426,0.19c0.176,0.217,0.279,0.527,0.31,0.931c0.029,0.392-0.023,0.691-0.157,0.898
					c-0.134,0.207-0.369,0.353-0.703,0.438l0.163,1.387c0.605-0.067,1.073-0.333,1.403-0.797c0.33-0.464,0.463-1.129,0.399-1.994
					c-0.04-0.53-0.15-0.976-0.331-1.339c-0.181-0.363-0.426-0.633-0.733-0.81c-0.308-0.177-0.63-0.253-0.966-0.228
					c-0.522,0.039-0.949,0.284-1.281,0.734c-0.236,0.32-0.414,0.86-0.535,1.619c-0.095,0.59-0.163,0.969-0.205,1.136
					c-0.063,0.244-0.146,0.418-0.248,0.522c-0.103,0.104-0.232,0.162-0.388,0.173c-0.243,0.018-0.464-0.079-0.663-0.293
					C7.28,89.209,7.164,88.878,7.13,88.43c-0.032-0.423,0.045-0.767,0.231-1.031c0.185-0.264,0.493-0.453,0.922-0.568l-0.227-1.344
					c-0.732,0.146-1.273,0.467-1.624,0.963c-0.351,0.496-0.494,1.179-0.428,2.05c0.045,0.598,0.163,1.092,0.353,1.481
					c0.191,0.389,0.459,0.681,0.806,0.875C7.509,91.052,7.871,91.135,8.25,91.106z"/>
				<polygon fill="#1B75BB" points="12.85,97.292 13.955,97.106 13.042,91.691 11.938,91.877 12.278,93.899 6.854,94.813 
					7.086,96.189 12.51,95.275 				"/>
				<path fill="#1B75BB" d="M11.629,102.904c0.239,0.564,0.555,0.95,0.947,1.16c0.392,0.21,0.828,0.25,1.307,0.12
					c0.378-0.102,0.687-0.29,0.929-0.563c0.241-0.274,0.375-0.587,0.403-0.941c0.028-0.354-0.055-0.887-0.247-1.6l-0.766-2.835
					L7.81,99.971l0.363,1.347l2.669-0.72l0.074,0.273c0.083,0.31,0.12,0.542,0.111,0.698c-0.01,0.155-0.062,0.314-0.156,0.477
					c-0.095,0.162-0.344,0.484-0.748,0.963l-1.128,1.349l0.435,1.611l1.027-1.151c0.41-0.456,0.687-0.805,0.831-1.047
					C11.431,103.528,11.545,103.239,11.629,102.904z M13.485,99.884l0.284,1.051c0.147,0.546,0.228,0.876,0.243,0.989
					c0.024,0.228-0.014,0.42-0.113,0.575c-0.1,0.155-0.258,0.262-0.473,0.32c-0.192,0.052-0.364,0.05-0.517-0.007
					c-0.152-0.057-0.276-0.158-0.372-0.305c-0.096-0.147-0.231-0.543-0.405-1.189l-0.269-0.996L13.485,99.884z"/>
				<polygon fill="#1B75BB" points="17.516,108.72 14.504,108.15 16.384,105.706 15.809,104.175 13.11,107.893 10.501,108.872 
					10.99,110.174 13.59,109.198 18.081,110.225 				"/>
				<path fill="#1B75BB" d="M19.901,120.922c0.943-0.522,1.532-1.196,1.765-2.024c0.234-0.828,0.104-1.687-0.388-2.578
					c-0.272-0.492-0.589-0.884-0.95-1.176c-0.27-0.221-0.588-0.385-0.954-0.493c-0.366-0.108-0.735-0.149-1.106-0.124
					c-0.502,0.037-1.049,0.219-1.639,0.546c-0.922,0.51-1.499,1.176-1.732,1.997c-0.232,0.821-0.099,1.682,0.398,2.581
					c0.491,0.888,1.148,1.451,1.969,1.69C18.087,121.578,18.966,121.439,19.901,120.922z M17.46,120.012
					c-0.509-0.126-0.897-0.433-1.166-0.919c-0.269-0.487-0.322-0.982-0.158-1.485c0.163-0.504,0.574-0.937,1.229-1.3
					c0.667-0.369,1.251-0.49,1.751-0.365c0.501,0.125,0.891,0.44,1.169,0.943c0.278,0.503,0.338,0.997,0.18,1.481
					c-0.159,0.485-0.57,0.911-1.234,1.278C18.558,120.016,17.968,120.138,17.46,120.012z"/>
				<polygon fill="#1B75BB" points="23.431,122.205 25.331,124.954 26.252,124.318 23.558,120.421 18.112,124.186 18.906,125.333 
					21.22,123.734 22.86,126.106 23.782,125.47 22.142,123.097 				"/>
				
					<rect x="23.731" y="129.805" transform="matrix(0.7553 -0.6553 0.6553 0.7553 -78.9078 49.6508)" fill="#1B75BB" width="6.621" height="1.395"/>
				<polygon fill="#1B75BB" points="34.026,133.06 30.907,136.193 32.022,131.064 31.06,130.107 26.389,134.799 27.308,135.713 
					30.354,132.653 29.282,137.678 30.274,138.666 34.945,133.974 				"/>
				<polygon fill="#1B75BB" points="36.617,136.876 39.199,138.997 39.91,138.132 36.25,135.125 32.047,140.24 33.125,141.126 
					34.911,138.952 37.14,140.783 37.851,139.918 35.622,138.086 				"/>
				<path fill="#1B75BB" d="M45.163,142.708c-0.173-0.843-0.683-1.546-1.53-2.111c-0.468-0.312-0.93-0.515-1.385-0.608
					c-0.341-0.072-0.699-0.072-1.074,0c-0.375,0.072-0.721,0.205-1.039,0.398c-0.429,0.264-0.831,0.677-1.205,1.238
					c-0.585,0.877-0.791,1.733-0.62,2.569c0.171,0.836,0.684,1.539,1.539,2.109c0.844,0.563,1.686,0.762,2.526,0.596
					c0.839-0.166,1.556-0.693,2.149-1.582C45.123,144.42,45.335,143.55,45.163,142.708z M43.342,144.49
					c-0.426,0.639-0.894,1.019-1.403,1.14c-0.51,0.122-0.996,0.028-1.459-0.281c-0.463-0.309-0.737-0.724-0.823-1.247
					c-0.086-0.522,0.079-1.095,0.495-1.719c0.423-0.634,0.885-1.01,1.388-1.129c0.502-0.119,0.993-0.019,1.471,0.3
					c0.478,0.319,0.759,0.73,0.84,1.234C43.933,143.291,43.763,143.859,43.342,144.49z"/>
				<path fill="#1B75BB" d="M51.88,146.393c-0.037-0.363-0.177-0.674-0.419-0.934c-0.242-0.26-0.69-0.561-1.345-0.903l-2.603-1.358
					l-3.063,5.869l1.237,0.645l1.278-2.45l0.251,0.131c0.284,0.148,0.48,0.279,0.588,0.391c0.108,0.112,0.189,0.259,0.245,0.438
					c0.055,0.18,0.122,0.581,0.202,1.203l0.228,1.744l1.479,0.772l-0.151-1.535c-0.057-0.61-0.126-1.05-0.207-1.32
					c-0.081-0.27-0.216-0.549-0.405-0.838c0.576,0.206,1.075,0.236,1.495,0.09c0.42-0.146,0.745-0.439,0.974-0.879
					C51.846,147.111,51.917,146.756,51.88,146.393z M50.35,146.869c-0.092,0.176-0.21,0.301-0.355,0.375
					c-0.145,0.074-0.304,0.096-0.476,0.067c-0.173-0.029-0.556-0.198-1.149-0.508l-0.915-0.478l0.777-1.489l0.965,0.504
					c0.501,0.261,0.799,0.425,0.892,0.491c0.184,0.137,0.299,0.294,0.346,0.473C50.481,146.483,50.453,146.671,50.35,146.869z"/>
				<polygon fill="#1B75BB" points="58.162,148.114 55.375,151.878 55.837,147.214 53.89,146.46 51.499,152.633 52.708,153.102 
					54.589,148.242 53.982,153.595 55.235,154.08 58.396,149.716 56.514,154.575 57.723,155.043 60.113,148.87 				"/>
				<path fill="#1B75BB" d="M63.568,149.84l-4.29,5.716l1.431,0.377l0.935-1.309l2.671,0.704l0.2,1.608l1.468,0.387l-0.988-7.107
					L63.568,149.84z M62.343,153.656l1.529-2.138l0.295,2.618L62.343,153.656z"/>
				<polygon fill="#1B75BB" points="67.308,151.956 69.328,152.304 68.393,157.725 69.768,157.962 70.703,152.542 72.719,152.89 
					72.909,151.786 67.498,150.852 				"/>
				
					<rect x="73.728" y="151.934" transform="matrix(-0.9945 -0.1045 0.1045 -0.9945 132.224 317.4138)" fill="#1B75BB" width="1.395" height="6.621"/>
				<path fill="#1B75BB" d="M80.14,152.195c-0.562-0.016-1.061,0.058-1.496,0.22c-0.327,0.12-0.63,0.311-0.909,0.571
					c-0.279,0.26-0.502,0.557-0.669,0.889c-0.223,0.452-0.344,1.014-0.363,1.688c-0.029,1.053,0.25,1.889,0.84,2.506
					c0.589,0.618,1.397,0.941,2.425,0.97c1.014,0.028,1.833-0.25,2.456-0.837c0.623-0.586,0.95-1.414,0.98-2.482
					c0.03-1.077-0.251-1.927-0.846-2.549C81.964,152.549,81.158,152.224,80.14,152.195z M81.379,157.36
					c-0.367,0.374-0.829,0.553-1.385,0.537c-0.556-0.016-1.009-0.222-1.359-0.619c-0.35-0.397-0.515-0.97-0.494-1.719
					c0.021-0.761,0.213-1.326,0.576-1.694c0.362-0.368,0.831-0.543,1.406-0.527c0.575,0.016,1.031,0.216,1.367,0.599
					c0.336,0.383,0.494,0.953,0.473,1.712C81.941,156.416,81.746,156.986,81.379,157.36z"/>
				<polygon fill="#1B75BB" points="88.983,152.017 89.323,156.425 86.163,152.235 84.809,152.339 85.319,158.94 86.612,158.84 
					86.279,154.536 89.389,158.626 90.785,158.518 90.275,151.917 				"/>
				<path fill="#1B75BB" d="M96.601,150.834l-1.183,7.048l1.444-0.323l0.229-1.592l2.695-0.602l0.917,1.336l1.481-0.331
					l-4.144-5.858L96.601,150.834z M97.266,154.785l0.375-2.601l1.465,2.19L97.266,154.785z"/>
				<polygon fill="#1B75BB" points="105.653,148.276 107.061,152.467 102.972,149.177 101.685,149.609 103.794,155.885 
					105.023,155.472 103.647,151.38 107.663,154.585 108.99,154.139 106.881,147.863 				"/>
				<path fill="#1B75BB" d="M115.141,147.901c-0.258-0.564-0.543-1.007-0.856-1.329c-0.313-0.322-0.662-0.556-1.046-0.702
					c-0.384-0.145-0.785-0.186-1.201-0.122c-0.31,0.048-0.726,0.192-1.249,0.431l-2.319,1.06l2.75,6.022l2.388-1.091
					c0.469-0.214,0.824-0.427,1.065-0.64c0.322-0.286,0.546-0.582,0.672-0.888c0.168-0.404,0.23-0.861,0.187-1.371
					C115.498,148.853,115.367,148.397,115.141,147.901z M114.112,150.342c-0.082,0.18-0.214,0.341-0.398,0.485
					c-0.14,0.11-0.387,0.246-0.741,0.408l-0.948,0.433l-1.821-3.989l0.57-0.261c0.517-0.236,0.873-0.376,1.068-0.418
					c0.26-0.059,0.499-0.054,0.717,0.015c0.218,0.069,0.427,0.209,0.627,0.419c0.199,0.21,0.405,0.548,0.618,1.013
					c0.213,0.466,0.337,0.853,0.375,1.162C114.217,149.918,114.195,150.162,114.112,150.342z"/>
				<path fill="#1B75BB" d="M123.641,143.766c0.167,0.47,0.199,0.872,0.098,1.207c-0.101,0.335-0.307,0.603-0.618,0.805
					c-0.422,0.274-0.861,0.348-1.318,0.221c-0.457-0.127-0.914-0.541-1.37-1.243c-0.43-0.661-0.607-1.227-0.531-1.696
					c0.075-0.469,0.328-0.843,0.757-1.122c0.311-0.202,0.629-0.29,0.955-0.265c0.326,0.025,0.616,0.16,0.872,0.403l0.986-1.017
					c-0.42-0.359-0.839-0.571-1.257-0.637c-0.703-0.114-1.41,0.059-2.119,0.52c-0.811,0.527-1.3,1.208-1.466,2.043
					c-0.166,0.835,0.051,1.714,0.652,2.638c0.567,0.873,1.262,1.401,2.085,1.583c0.822,0.182,1.618,0.023,2.388-0.477
					c0.622-0.404,1.039-0.885,1.253-1.441c0.213-0.557,0.21-1.195-0.01-1.914L123.641,143.766z"/>
				<path fill="#1B75BB" d="M128.413,135.829c-0.856-0.084-1.679,0.196-2.469,0.838c-0.436,0.355-0.766,0.736-0.99,1.143
					c-0.17,0.305-0.275,0.647-0.317,1.026c-0.042,0.379-0.017,0.749,0.074,1.11c0.125,0.488,0.401,0.994,0.826,1.517
					c0.665,0.817,1.422,1.268,2.272,1.351c0.849,0.083,1.673-0.199,2.47-0.848c0.787-0.64,1.226-1.386,1.315-2.237
					c0.09-0.851-0.203-1.691-0.877-2.52C130.037,136.374,129.269,135.914,128.413,135.829z M130.254,139.773
					c-0.035,0.523-0.268,0.96-0.699,1.311c-0.431,0.351-0.909,0.491-1.434,0.418c-0.524-0.072-1.023-0.399-1.496-0.98
					c-0.481-0.591-0.704-1.144-0.669-1.659s0.275-0.954,0.721-1.317c0.446-0.363,0.922-0.509,1.426-0.439
					c0.505,0.07,0.997,0.4,1.476,0.989C130.063,138.691,130.288,139.25,130.254,139.773z"/>
				<polygon fill="#1B75BB" points="132.778,130.485 135.142,134.527 131.036,132.268 129.576,133.761 134.312,138.389 
					135.217,137.462 131.49,133.819 136.173,136.484 137.112,135.523 134.343,130.9 138.07,134.542 138.976,133.615 
					134.241,128.988 				"/>
				<polygon fill="#1B75BB" points="138.06,124.18 140.881,127.918 136.538,126.156 135.264,127.81 140.509,131.85 141.3,130.823 
					137.171,127.643 142.134,129.74 142.954,128.676 139.662,124.409 143.791,127.589 144.582,126.563 139.337,122.522 				"/>
				<path fill="#1B75BB" d="M147.43,119.251c-0.241-0.235-0.702-0.558-1.381-0.971l-2.973-1.805l-0.724,1.193l3.131,1.9
					c0.448,0.272,0.758,0.484,0.93,0.636c0.172,0.152,0.272,0.355,0.3,0.607c0.028,0.252-0.061,0.548-0.266,0.886
					c-0.202,0.333-0.432,0.553-0.689,0.66c-0.257,0.107-0.517,0.116-0.779,0.026c-0.162-0.058-0.486-0.235-0.973-0.53l-3.065-1.861
					l-0.724,1.193l3.019,1.833c0.633,0.384,1.135,0.636,1.507,0.755c0.252,0.079,0.528,0.095,0.831,0.047
					c0.302-0.048,0.604-0.18,0.906-0.396c0.302-0.216,0.624-0.605,0.966-1.169c0.283-0.467,0.456-0.881,0.518-1.241
					c0.062-0.359,0.048-0.685-0.039-0.975C147.836,119.748,147.672,119.486,147.43,119.251z"/>
				<polygon fill="#1B75BB" points="145.686,111.174 149.683,113.064 144.477,113.73 143.897,114.957 149.882,117.788 
					150.436,116.617 146.533,114.77 151.627,114.098 152.226,112.833 146.24,110.002 				"/>
				
					<rect x="146.881" y="108.226" transform="matrix(-0.9332 -0.3595 0.3595 -0.9332 251.1867 264.5566)" fill="#1B75BB" width="6.62" height="1.395"/>
				<path fill="#1B75BB" d="M154.028,101.366l-0.785,1.176c0.431,0.251,0.715,0.538,0.854,0.859
					c0.139,0.321,0.155,0.659,0.048,1.014c-0.145,0.481-0.434,0.821-0.865,1.019c-0.431,0.198-1.047,0.176-1.848-0.066
					c-0.755-0.228-1.255-0.546-1.5-0.953c-0.245-0.407-0.293-0.856-0.145-1.346c0.107-0.355,0.293-0.627,0.558-0.818
					c0.265-0.191,0.574-0.275,0.926-0.254l0.097-1.413c-0.553-0.003-1.01,0.105-1.372,0.324c-0.611,0.367-1.039,0.955-1.283,1.764
					c-0.28,0.926-0.214,1.762,0.198,2.507c0.412,0.745,1.145,1.277,2.2,1.595c0.997,0.301,1.869,0.256,2.615-0.136
					c0.746-0.392,1.251-1.027,1.517-1.905c0.214-0.71,0.224-1.346,0.027-1.91C155.073,102.259,154.659,101.773,154.028,101.366z"/>
				<path fill="#1B75BB" d="M150.329,96.699l5.996,3.889l0.279-1.454l-1.37-0.843l0.52-2.713l1.591-0.31l0.286-1.491l-7.023,1.471
					L150.329,96.699z M154.574,95.809l-0.355,1.852l-2.237-1.379L154.574,95.809z"/>
				<polygon fill="#1B75BB" points="152.749,87.363 151.634,87.248 151.07,92.71 152.184,92.825 152.395,90.786 157.866,91.352 
					158.01,89.964 152.538,89.398 				"/>
				
					<rect x="151.673" y="84.799" transform="matrix(-0.9993 -0.0374 0.0374 -0.9993 306.6628 176.7276)" fill="#1B75BB" width="6.621" height="1.395"/>
				<path fill="#1B75BB" d="M154.858,76.492c-1.077,0.042-1.906,0.38-2.487,1.014c-0.581,0.634-0.852,1.46-0.813,2.477
					c0.022,0.562,0.128,1.054,0.319,1.478c0.142,0.318,0.352,0.608,0.63,0.869c0.278,0.261,0.589,0.464,0.932,0.608
					c0.465,0.192,1.035,0.276,1.709,0.25c1.053-0.041,1.868-0.376,2.445-1.005c0.577-0.629,0.845-1.457,0.805-2.484
					c-0.039-1.014-0.372-1.812-0.999-2.395C156.773,76.721,155.926,76.45,154.858,76.492z M156.731,81.146
					c-0.373,0.376-0.933,0.579-1.683,0.608c-0.761,0.029-1.337-0.124-1.728-0.461c-0.391-0.337-0.598-0.793-0.62-1.367
					c-0.022-0.575,0.146-1.043,0.506-1.404c0.36-0.361,0.919-0.557,1.677-0.586c0.767-0.03,1.349,0.126,1.747,0.467
					c0.398,0.341,0.607,0.79,0.629,1.346C157.279,80.303,157.104,80.77,156.731,81.146z"/>
				<polygon fill="#1B75BB" points="150.782,71.16 155.157,70.52 151.191,73.958 151.388,75.302 157.939,74.343 157.751,73.06 
					153.479,73.686 157.347,70.304 157.145,68.919 150.594,69.878 				"/>
				<path fill="#1B75BB" d="M150.631,65.623c-0.095-0.381-0.095-0.685,0.002-0.912c0.097-0.227,0.303-0.41,0.618-0.551l-0.396-1.339
					c-0.585,0.169-1,0.511-1.247,1.024c-0.247,0.514-0.265,1.191-0.054,2.033c0.129,0.515,0.314,0.936,0.554,1.263
					c0.24,0.327,0.527,0.551,0.86,0.673c0.333,0.122,0.663,0.142,0.99,0.06c0.508-0.127,0.887-0.441,1.138-0.941
					c0.178-0.355,0.262-0.918,0.252-1.686c-0.007-0.597-0.004-0.982,0.009-1.154c0.021-0.251,0.073-0.437,0.156-0.557
					c0.083-0.12,0.201-0.199,0.353-0.237c0.236-0.059,0.471,0,0.703,0.176c0.232,0.177,0.403,0.483,0.512,0.919
					c0.103,0.411,0.086,0.763-0.052,1.055c-0.138,0.292-0.409,0.531-0.812,0.716l0.453,1.286c0.696-0.268,1.175-0.677,1.437-1.225
					c0.261-0.548,0.286-1.246,0.073-2.094c-0.146-0.582-0.346-1.049-0.6-1.4c-0.254-0.351-0.568-0.593-0.943-0.726
					c-0.375-0.133-0.746-0.153-1.114-0.061c-0.406,0.102-0.724,0.276-0.956,0.524c-0.231,0.247-0.387,0.549-0.467,0.904
					c-0.08,0.355-0.112,0.881-0.096,1.577c0.016,0.696-0.023,1.146-0.117,1.351c-0.075,0.161-0.188,0.261-0.34,0.299
					c-0.166,0.042-0.317,0.004-0.452-0.115C150.884,66.305,150.729,66.016,150.631,65.623z"/>
				<polygon fill="#1B75BB" points="98.026,83.546 81.859,83.36 81.734,103.723 				"/>
				<polygon fill="#1B75BB" points="65.316,83.17 81.859,83.36 81.985,62.992 				"/>
				<path fill="#1B75BB" d="M138.828,114.199c2.02-3.545,3.72-7.295,5.059-11.213c-54.549,1.134-61.903,43.474-61.903,43.474
					c8.397-17.796,21.932-24.438,27.572-27.07C119.972,113.578,135.185,114.002,138.828,114.199z"/>
				<path fill="#1B75BB" d="M82.086,147.4c15.075-0.079,28.948-5.237,39.995-13.851c0.293-0.23,0.583-0.461,0.868-0.691
					c0.083-0.067,0.167-0.133,0.249-0.201c0.845-0.691,1.649-1.382,2.414-2.067c0.019-0.017,0.039-0.035,0.059-0.052
					c0.198-0.178,0.387-0.354,0.58-0.53c2.906-2.681,5.57-5.62,7.954-8.783C99.57,117.309,83.487,144.865,82.086,147.4z"/>
				<path fill="#1B75BB" d="M147.404,81.734c0-0.046-0.002-0.092-0.002-0.138c-12.83-0.061-28.101,6.145-33.537,9.023
					c-28.904,16.057-31.792,44.814-32.049,52.205c-0.26-7.417-3.166-36.143-32.048-52.189c-5.46-2.89-20.84-9.14-33.704-9.023
					c0,0.041-0.002,0.081-0.002,0.122c0,4.711,0.5,9.305,1.443,13.735c4.218,0,4.225,0,4.225,0s13.213,0.967,24.17,5.156
					c5.64,2.417,21.27,10.474,26.587,20.948c1.927,3.212,5.455,7.868,9.308,22.896c0.002,0.083,0.003,0.13,0.003,0.13
					c0.005-0.02,0.01-0.039,0.015-0.059c0.007,0.026,0.013,0.05,0.02,0.075c0,0,0.002-0.06,0.004-0.165
					c3.852-15.026,7.38-19.682,9.307-22.894c5.317-10.474,20.948-18.53,26.587-20.948c10.957-4.189,24.17-5.156,24.17-5.156
					s0.012,0,4.061,0C146.905,91.027,147.404,86.439,147.404,81.734z"/>
				<path fill="#1B75BB" d="M19.585,102.998c1.342,3.923,3.045,7.678,5.069,11.227c3.325-0.191,18.844-0.722,29.426,5.181
					c5.64,2.632,19.175,9.274,27.572,27.07C81.651,146.476,74.284,104.05,19.585,102.998z"/>
				<path fill="#1B75BB" d="M29.287,121.256c0.892,1.182,1.821,2.335,2.789,3.453c5.753,6.642,12.818,12.114,20.79,16.022
					c8.659,4.245,18.388,6.641,28.675,6.671C80.083,144.77,63.953,117.256,29.287,121.256z"/>
				<path fill="#1B75BB" d="M24.21,55.473c11.53-15.791,27.07-21.055,34.339-23.436c30.955-10.026,55.77,3.384,61.785,6.642
					c19.794,11.311,24.707,25.943,26.593,35.129c-1.458-12.12-6.216-23.224-13.351-32.387c-1.237-1.555-2.472-2.991-3.674-4.319
					c-3.377-3.643-7.16-6.904-11.281-9.707c-4.687-3-8.88-5.144-12.626-6.704c-7.506-2.986-15.691-4.629-24.261-4.629
					c-1.376,0-2.741,0.047-4.096,0.131c-3.764,0.232-7.443,0.778-11.01,1.618c-26.224,6.174-46.382,28.066-49.986,55.19
					C18.295,65.854,21.17,60.54,24.21,55.473z"/>
				<path fill="#1B75BB" d="M129.696,77.559h0.044c-2.093-24.216-22.762-43.23-47.956-43.23s-45.862,19.014-47.956,43.23h0.044
					c1.279-18.856,22.241-33.853,47.911-33.853S128.417,58.702,129.696,77.559z"/>
				<path fill="#1B75BB" d="M111.593,82.432h-0.02c0.003,0.094,0.011,0.187,0.013,0.282
					C111.587,82.619,111.591,82.526,111.593,82.432z"/>
				<path fill="#1B75BB" d="M51.996,82.432h-0.02c0.002,0.094,0.006,0.188,0.007,0.282C51.985,82.619,51.993,82.526,51.996,82.432z"
					/>
				<path fill="#1B75BB" d="M111.403,80.368h0.122c-1.012-15.548-13.936-27.847-29.739-27.847S53.057,64.82,52.045,80.368h0.122
					c1.602-12.402,14.24-22.064,29.618-22.064S109.801,67.966,111.403,80.368z"/>
			</g>
		</g>
	</g>
</g>
<g id="Layer_2">
</g>
<g id="Layer_3">
</g>
</svg>
