<?xml version="1.0" encoding="utf-8"?>
<!-- Generator: Adobe Illustrator 17.0.0, SVG Export Plug-In . SVG Version: 6.00 Build 0)  -->
<!DOCTYPE svg PUBLIC "-//W3C//DTD SVG 1.1//EN" "http://www.w3.org/Graphics/SVG/1.1/DTD/svg11.dtd">
<svg version="1.1" xmlns="http://www.w3.org/2000/svg" xmlns:xlink="http://www.w3.org/1999/xlink" x="0px" y="0px" width="200px"
	 height="133.333px" viewBox="0 0 200 133.333" enable-background="new 0 0 200 133.333" xml:space="preserve">
<g id="Layer_1">
	<g>
		<rect x="0" y="0" fill="#ED1C24" width="200" height="133.333"/>
		<path fill="#FFF100" d="M72.925,58.962l20.109-19.341c0,0,9.95-0.17,13.472-3.252c3.484,3.484,6.039,6.271,6.039,6.271
			l-10.564,9.718l28.176,27.955c0,0,17.39-32.358-22.232-54.59c7.704,1.101,7.704,1.101,7.704,1.101s21.132,5.063,29.716,25.754
			c1.321,5.943,5.503,23.773-5.063,37.641c4.843,5.063,7.044,7.044,7.044,7.044l-9.905,10.346l-7.484-7.484
			c0,0-25.094,19.371-55.471-5.503c-14.528,12.107-14.528,12.107-14.528,12.107l-7.264-8.585l21.132-17.39
			c0,0,25.314,22.672,46.005,9.465C103.302,73.27,92.076,62.484,92.076,62.484l-8.144,7.704L72.925,58.962z"/>
	</g>
</g>
<g id="Layer_2">
</g>
<g id="Layer_3">
</g>
</svg>
