<?xml version="1.0" encoding="utf-8"?>
<!-- Generator: Adobe Illustrator 17.0.0, SVG Export Plug-In . SVG Version: 6.00 Build 0)  -->
<!DOCTYPE svg PUBLIC "-//W3C//DTD SVG 1.1//EN" "http://www.w3.org/Graphics/SVG/1.1/DTD/svg11.dtd">
<svg version="1.1" xmlns="http://www.w3.org/2000/svg" xmlns:xlink="http://www.w3.org/1999/xlink" x="0px" y="0px" width="163px"
	 height="163px" viewBox="0 0 163 163" enable-background="new 0 0 163 163" xml:space="preserve">
<g id="Layer_1">
</g>
<g id="Layer_2">
</g>
<g id="Layer_3">
	<g>
		<circle fill-rule="evenodd" clip-rule="evenodd" fill="#E3500C" cx="81.5" cy="81.5" r="81.5"/>
		<path fill-rule="evenodd" clip-rule="evenodd" fill="#EEF9C1" d="M38.426,80.914c0,0,25.619-18.802,44.586-7.752
			c3.793-1.155,18.637-9.236,40.573,11.05c-14.514,39.913-14.514,39.913-14.514,39.913s-14.019-13.854-26.883-4.618
			c-2.474-1.484-11.38-6.267-24.904,3.793c-1.649-1.319-1.649-1.319-1.649-1.319L38.426,80.914z"/>
		<polygon fill-rule="evenodd" clip-rule="evenodd" fill="#FFF200" points="55.469,114.725 62.891,113.9 69.158,106.314 
			128.368,65.411 125.894,62.772 67.014,105.159 58.767,108.128 		"/>
		<g>
			<path fill-rule="evenodd" clip-rule="evenodd" fill="#FFF200" d="M114.802,144.577c0,0-6.061-5.628,2.35-13.421
				c0.804,0.371,4.329,2.103,1.67,10.329c1.67-0.124,7.278-0.804,9.545,3.34C127.234,146.247,120.925,151.813,114.802,144.577z"/>
			<path fill-rule="evenodd" clip-rule="evenodd" fill="#FFF200" d="M123.836,137.176c0,0-6.452-5.175,1.373-13.556
				c0.829,0.312,4.47,1.784,2.413,10.181c1.657-0.244,7.2-1.328,9.762,2.641C136.355,137.942,130.466,143.95,123.836,137.176z"/>
			<path fill-rule="evenodd" clip-rule="evenodd" fill="#FFF200" d="M130.164,128.819c0,0-6.452-5.175,1.373-13.556
				c0.829,0.312,4.47,1.784,2.413,10.181c1.657-0.244,7.2-1.328,9.762,2.641C142.684,129.586,136.795,135.594,130.164,128.819z"/>
			<path fill-rule="evenodd" clip-rule="evenodd" fill="#FFF200" d="M137.93,120.527c0,0-7.399-3.412-2.193-13.436
				c0.86,0.097,4.663,0.624,4.886,9.243c1.495-0.644,6.431-3.056,9.861,0.149C149.903,118.186,145.908,125.441,137.93,120.527z"/>
			<path fill-rule="evenodd" clip-rule="evenodd" fill="#FFF200" d="M145.552,111.055c0,0-9.164-2.968-4.031-14.534
				c1.608,0.384,4.329,2.041,5.133,9.401c1.318-0.995,6.68-6.247,10.281-1.901C156.763,105.818,153.272,112.787,145.552,111.055z"/>
			<path fill-rule="evenodd" clip-rule="evenodd" fill="#FFF200" d="M151.324,100.823c0,0-11.365-0.529-7.948-13.517
				c2.165,1.443,5.071,2.598,7.108,8.226c0.774-1.459,4.074-8.311,9.175-5.894C160.262,91.339,158.344,100.108,151.324,100.823z"/>
			<path fill-rule="evenodd" clip-rule="evenodd" fill="#FFF200" d="M152.37,88.749c0,0-9.2,0.003-8.588-12.452
				c2.165,1.443,5.712,1.532,7.749,7.161c0.774-1.459,2.545-7.655,7.617-7.655C161.622,77.966,159.39,88.034,152.37,88.749z"/>
			<path fill-rule="evenodd" clip-rule="evenodd" fill="#FFF200" d="M151.353,77.072c0,0-8.618-1.27-9.152-10.795
				c2.165,0.557,4.936,1.545,9.048,5.566c0.774-1.459,2.085-10.7,4.806-10.7C160.508,63.741,158.373,76.357,151.353,77.072z"/>
			<path fill-rule="evenodd" clip-rule="evenodd" fill="#FFF200" d="M149.435,65.651c0,0-8.719,2.296-10.837-10.245
				c2.165,0.557,4.936,1.545,9.048,5.566c0.244-2.928,1.791-10.7,4.806-10.7C156.906,52.87,155.808,63.123,149.435,65.651z"/>
			<path fill-rule="evenodd" clip-rule="evenodd" fill="#FFF200" d="M146.874,57.185c0,0-10.92-5.628-7.333-15.462
				C143.253,43.95,150.063,46.362,146.874,57.185z"/>
		</g>
		<g>
			<path fill-rule="evenodd" clip-rule="evenodd" fill="#FFF200" d="M48.638,143.34c0,0,6.061-5.628-2.35-13.421
				c-0.804,0.371-4.329,2.103-1.67,10.329c-1.67-0.124-7.278-0.804-9.545,3.34C36.206,145.01,42.515,150.576,48.638,143.34z"/>
			<path fill-rule="evenodd" clip-rule="evenodd" fill="#FFF200" d="M39.605,135.939c0,0,6.452-5.175-1.373-13.556
				c-0.829,0.312-4.47,1.784-2.413,10.181c-1.657-0.244-7.2-1.328-9.762,2.641C27.085,136.705,32.974,142.713,39.605,135.939z"/>
			<path fill-rule="evenodd" clip-rule="evenodd" fill="#FFF200" d="M33.276,127.582c0,0,6.452-5.175-1.373-13.556
				c-0.829,0.312-4.47,1.784-2.413,10.181c-1.657-0.244-7.2-1.328-9.762,2.641C20.756,128.349,26.646,134.357,33.276,127.582z"/>
			<path fill-rule="evenodd" clip-rule="evenodd" fill="#FFF200" d="M25.51,119.29c0,0,7.399-3.412,2.193-13.436
				c-0.86,0.097-4.663,0.624-4.886,9.243c-1.495-0.644-6.431-3.056-9.861,0.149C13.537,116.949,17.532,124.204,25.51,119.29z"/>
			<path fill-rule="evenodd" clip-rule="evenodd" fill="#FFF200" d="M17.889,109.818c0,0,9.164-2.968,4.031-14.534
				c-1.608,0.384-4.329,2.041-5.133,9.401c-1.318-0.995-6.68-6.247-10.281-1.901C6.678,104.581,10.168,111.55,17.889,109.818z"/>
			<path fill-rule="evenodd" clip-rule="evenodd" fill="#FFF200" d="M12.116,99.586c0,0,11.365-0.529,7.948-13.517
				c-2.165,1.443-5.071,2.598-7.108,8.226c-0.774-1.459-4.074-8.311-9.175-5.894C3.178,90.102,5.097,98.871,12.116,99.586z"/>
			<path fill-rule="evenodd" clip-rule="evenodd" fill="#FFF200" d="M11.07,87.512c0,0,9.2,0.003,8.588-12.452
				c-2.165,1.443-5.712,1.532-7.749,7.161c-0.774-1.459-2.545-7.655-7.617-7.655C1.819,76.729,4.05,86.797,11.07,87.512z"/>
			<path fill-rule="evenodd" clip-rule="evenodd" fill="#FFF200" d="M12.087,75.835c0,0,8.618-1.27,9.152-10.795
				c-2.165,0.557-4.936,1.545-9.048,5.566c-0.774-1.459-2.084-10.7-4.806-10.7C2.932,62.504,5.067,75.12,12.087,75.835z"/>
			<path fill-rule="evenodd" clip-rule="evenodd" fill="#FFF200" d="M14.005,64.414c0,0,8.719,2.296,10.837-10.245
				c-2.165,0.557-4.936,1.545-9.048,5.566c-0.244-2.928-1.791-10.7-4.806-10.7C6.535,51.633,7.632,61.886,14.005,64.414z"/>
			<path fill-rule="evenodd" clip-rule="evenodd" fill="#FFF200" d="M16.566,55.948c0,0,10.92-5.628,7.333-15.462
				C20.188,42.713,13.377,45.125,16.566,55.948z"/>
		</g>
		<path fill-rule="evenodd" clip-rule="evenodd" fill="#099F46" d="M44.758,151.759l11.747,4.669c0,0,24.032-34.194,49.712,1.511
			l12.024-5.004l-1.377-2.465l-3.552,1.45c0,0-1.595,0.217-2.827-1.522c-1.232-1.74-2.61-3.335-2.61-3.335s-0.797-1.087,0.435-2.61
			c1.232-1.522,2.392-2.784,2.392-2.784l-3.552-3.378l-3.77,2.827c0,0-0.87,0.435-2.102-0.362s-6.814-3.77-6.814-3.77l-0.145-5.829
			l-4.32-1.348l-2.495,5.147c0,0-5.582-0.797-9.932-0.29c-0.725-0.362-1.74-1.16-1.885-2.03c-0.58-1.45-1.087-2.392-1.087-2.392
			l-5.582,0.913l0.362,4.38c0,0,0.507,1.16-0.58,1.667c-1.087,0.507-5.075,2.48-5.075,2.48s-1.232,0.668-1.957,0
			c-0.725-0.668-3.48-3.568-3.48-3.568l-4.422,3.568l2.102,4.624c0,0,1.015,1.45-0.29,2.465s-3.915,3.407-3.915,3.407
			s-0.145-0.29-1.45-0.725s-3.625-1.244-3.625-1.244L44.758,151.759z"/>
		<path fill="#FFF100" d="M67.151,29.697l10.657-10.25c0,0,5.273-0.09,7.14-1.723c1.846,1.846,3.2,3.324,3.2,3.324l-5.598,5.15
			l14.932,14.815c0,0,9.216-17.148-11.782-28.93c4.083,0.583,4.083,0.583,4.083,0.583s11.199,2.683,15.748,13.649
			c0.7,3.15,2.916,12.599-2.683,19.948c2.566,2.683,3.733,3.733,3.733,3.733l-5.249,5.483l-3.966-3.966
			c0,0-13.299,10.266-29.397-2.916c-7.699,6.416-7.699,6.416-7.699,6.416l-3.85-4.55l11.199-9.216c0,0,13.415,12.015,24.381,5.016
			C83.25,37.279,77.3,31.563,77.3,31.563l-4.316,4.083L67.151,29.697z"/>
	</g>
</g>
</svg>
