<?xml version="1.0" encoding="utf-8"?>
<!-- Generator: Adobe Illustrator 17.0.0, SVG Export Plug-In . SVG Version: 6.00 Build 0)  -->
<!DOCTYPE svg PUBLIC "-//W3C//DTD SVG 1.1//EN" "http://www.w3.org/Graphics/SVG/1.1/DTD/svg11.dtd">
<svg version="1.1" xmlns="http://www.w3.org/2000/svg" xmlns:xlink="http://www.w3.org/1999/xlink" x="0px" y="0px" width="163px"
	 height="163px" viewBox="0 0 163 163" enable-background="new 0 0 163 163" xml:space="preserve">
<g id="Layer_1">
	<circle fill-rule="evenodd" clip-rule="evenodd" fill="#F5D00E" cx="81.5" cy="81.5" r="81.5"/>
	<g>
		<path fill-rule="evenodd" clip-rule="evenodd" fill="#ED1C24" d="M49.309,149.66c3.934-12.702,22.284-21.797,33.216-21.797
			c11.801,0,22.944,4.054,31.25,14.68c3.823,5.475,3.603,5.475,3.603,6.023c-1.747,0.767-4.259,2.191-6.228,2.303
			c-0.875-1.319-1.747-2.523-2.509-3.838c-7.652-8.432-15.847-12.705-26.007-12.377c-11.475,0.441-21.524,7.014-26.77,17.415
			C54.01,152.069,51.164,150.428,49.309,149.66z M57.833,151.194l0.327-0.438c6.227-9.751,14.747-14.348,25.349-14.46
			c8.415-0.107,19.773,3.942,24.692,14.132C89.625,157.436,75.642,157.548,57.833,151.194z M124.806,141.668
			c-0.875-4.164-3.492-8.107-6.445-10.298l-4.914,2.078c-1.418-2.409-5.135-5.033-7.759-6.02l2.185-5.474
			c-2.514-2.088-6.01-4.055-9.179-5.15l-3.604,5.477c-3.715-1.536-6.228-1.861-9.397-1.973l-0.767-6.572
			c-3.932-0.107-6.777,0-9.394,0.547l-0.439,6.685c-3.169,0.546-6.117,1.421-8.958,2.628l-4.375-5.37
			c-2.945,0.985-5.786,2.52-7.867,4.38l2.296,7.339c-1.969,1.425-4.259,3.727-5.68,5.584l-7.323-2.732
			c-2.075,2.732-3.929,5.693-5.355,8.871c-23.05-16.102-30.699-40.637-29.935-64.511C9.211,37.073,42.861,8.707,81.323,7.278
			c0.87,0,1.853-0.106,2.841-0.106C159.772,10.022,177.695,99.827,124.806,141.668z"/>
		<path fill-rule="evenodd" clip-rule="evenodd" fill="#F1E441" d="M83.287,51.636c1.53-1.641,3.281-3.394,4.81-5.038
			c6.338-0.326,6.338-0.326,17.374-0.326l-21.417,7.008C83.946,52.623,83.721,52.076,83.287,51.636z M83.07,56.128
			c0-0.106-0.107-0.106-0.107-0.218c0.436-0.33,0.758-0.876,0.984-1.316c0.107,0,0.219,0.11,0.323,0.11l6.338,2.63
			c1.754,5.368,4.154,12.374,5.904,17.745C96.511,75.405,85.145,59.084,83.07,56.128z M67.229,74.312l12.673-18.184
			c0.436,0.219,0.875,0.328,1.311,0.328h0.219l-0.439,7.339C76.406,67.298,71.814,70.802,67.229,74.312z M72.035,57.115
			c-12.782-9.202-12.782-9.202-14.86-10.954l21.305,6.792c0,0.218-0.105,0.439-0.105,0.654c0,0.439,0.105,0.88,0.329,1.318v0.109
			L72.035,57.115z M79.571,51.311l-3.276-6.132c1.639-5.588,3.276-11.174,4.811-16.759h0.327v22.342h-0.219
			C80.665,50.761,80.005,50.984,79.571,51.311z M91.921,57.333c0.44,2.52,0.44,2.52,5.791,19.382L81.432,65.218L65.043,76.935
			l5.677-19.602L54.989,45.179h20.323c5.682-18.514,5.682-18.514,6.12-18.952c6.005,16.868,6.005,16.868,7.1,19.165h19.012
			L91.921,57.333z"/>
		<path fill-rule="evenodd" clip-rule="evenodd" fill="#F1E441" d="M120.549,94.681v-5.912c0-1.208,0.329-2.081,0.983-2.742
			c0.545-0.655,1.418-0.984,2.402-0.984c0.986,0,1.751,0.328,2.409,0.984c0.651,0.661,0.87,1.534,0.87,2.742v1.2H124.7v-1.422
			c0-0.326-0.107-0.546-0.107-0.768c-0.107-0.217-0.331-0.438-0.66-0.438c-0.323,0-0.548,0.221-0.655,0.438
			c-0.105,0.222-0.105,0.443-0.105,0.768v6.461c0,0.327,0.105,0.658,0.212,0.879c0.112,0.219,0.225,0.327,0.548,0.327
			c0.328,0,0.552-0.219,0.66-0.548c0-0.22,0.107-0.438,0.107-0.658v-1.97h2.512v1.644c0,1.206-0.219,2.082-0.87,2.736
			c-0.552,0.769-1.423,1.1-2.409,1.1c-0.984,0-1.857-0.331-2.402-0.988C120.877,96.762,120.549,95.887,120.549,94.681z
			 M119.126,87.011c0.219,0.44,0.331,1.097,0.331,1.757v5.912c0,1.206-0.331,2.082-0.879,2.736c-0.651,0.769-1.418,1.1-2.51,1.1
			c-0.982,0-1.749-0.331-2.405-0.988c-0.548-0.766-0.875-1.642-0.875-2.848v-5.912c0-1.208,0.327-2.194,0.875-2.849
			c0.655-0.548,1.422-0.876,2.405-0.876c0.764,0,1.42,0.222,1.968,0.549v-1.755h1.966v2.082L119.126,87.011z M115.302,95.007
			c0,0.327,0.109,0.658,0.216,0.879c0.116,0.219,0.329,0.327,0.551,0.327c0.326,0,0.545-0.219,0.655-0.548
			c0.109-0.22,0.109-0.438,0.109-0.658v-6.461c0-0.326,0-0.546-0.109-0.768c-0.11-0.326-0.33-0.438-0.655-0.438
			c-0.327,0-0.551,0.112-0.658,0.438c0,0.222-0.109,0.443-0.109,0.768V95.007z M115.847,82.302h2.19l-1.532,2.191h-1.309
			L115.847,82.302z M111.259,83.837h1.966v2.082l-0.984,1.093h-0.548l-0.103,7.669c0,1.206-0.219,2.082-0.879,2.736
			c-0.543,0.769-1.418,1.1-2.4,1.1c-0.984,0-1.858-0.331-2.405-0.988c-0.657-0.766-0.984-1.642-0.984-2.848v-9.416h2.621v9.523
			c0,0.44,0,0.771,0.11,0.988c0.113,0.218,0.326,0.33,0.657,0.33c0.215,0,0.436-0.112,0.546-0.33
			c0.109-0.11,0.215-0.442,0.215-0.988v-9.523h2.187V83.837z M96.396,98.294V85.265h2.849l2.074,7.66v-7.66h2.508v13.029h-2.837
			l-2.073-8.105v8.105H96.396z M87.662,93.694h1.31l-0.551-6.46L87.662,93.694z M88.753,82.302l0.546,2.191h-1.313l-1.532-2.191
			H88.753z M86.678,85.265h3.384l2.187,13.029h-2.733l-0.216-2.3h-1.861l-0.216,2.3h-2.62L86.678,85.265z M77.277,98.294V85.265
			h2.517v4.924h1.527v-4.924h2.626v13.029H81.32v-5.586h-1.527v5.586H77.277z M68.647,98.294V85.265h2.841l2.081,7.66v-7.66h2.511
			v13.029h-2.735l-2.185-8.105v8.105H68.647z M63.292,80.773h1.966l-1.311,1.969h-1.203L63.292,80.773z M59.029,84.493l1.096-2.191
			h2.074l0.982,2.191h-1.526l-0.548-1.311l-0.763,1.311H59.029z M58.159,85.265h5.789v2.512H60.78v2.631h2.732v2.411H60.78v2.957
			h3.279v2.518h-5.901V85.265z M50.292,94.681v-9.416h2.621v9.523c0,0.44,0,0.771,0.107,0.988c0.112,0.218,0.327,0.33,0.654,0.33
			c0.221,0,0.445-0.112,0.548-0.33c0.109-0.11,0.223-0.442,0.223-0.988v-9.523h2.509v9.416c0,1.206-0.219,2.082-0.875,2.736
			c-0.543,0.769-1.419,1.1-2.406,1.1c-0.982,0-1.854-0.331-2.4-0.988C50.614,96.762,50.292,95.887,50.292,94.681z M42.535,98.294
			V85.265h2.621v4.924h1.422v-4.924h2.617v13.029h-2.617v-5.586h-1.422v5.586H42.535z M35.867,87.777v-2.512h5.901v2.512H40.13
			v10.517h-2.626V87.777H35.867z"/>
		<path fill-rule="evenodd" clip-rule="evenodd" fill="#F1E441" d="M42.862,124.249c-0.984-3.063-1.206-4.163,0-7.006
			c0.548-1.313,1.75-2.742,2.297-4.055c2.838,5.039,7.424,5.917,5.57,12.378c-0.327,1.533-2.078,2.955-2.297,2.081
			c-0.327-3.176-2.29-5.805-3.273-8.762c-0.223,0.767-0.331,1.425,0.105,2.957c0.878,1.86,2.074,3.724,2.297,5.805
			C45.812,126.33,43.954,126.442,42.862,124.249z M37.728,120.965c-2.299-0.439-4.153-2.52-6.674-3.176
			c2.19,1.422,3.94,2.955,6.341,4.052c0.108,0.219-0.107,0.437-0.548,0.437c-4.259,0.875-6.883,1.205-9.066-0.658
			c-1.09-1.094-2.841-4.271-4.59-5.144c-0.546-0.33-0.546-0.33,0-0.661c4.263-2.409,8.743-3.724,11.911,1.208
			C35.977,118.339,37.288,120.199,37.728,120.965z M36.197,117.898c-0.22-0.329-0.327-0.548-0.439-0.769
			c-1.53-3.723-1.422-5.911-0.548-8.102c0.548-1.093,2.518-3.175,3.277-3.943c0.986,3.066,3.5,5.148,4.484,8.217
			c0.106,0.765,0.326,1.86-0.767,4.269c-0.76,1.642-1.527,2.082-1.967,3.396c-0.435-2.19-0.435-2.19-2.074-7.23
			c-0.331,2.52,0.875,4.711,1.203,7.23C37.832,120.087,36.633,118.339,36.197,117.898z M25.053,113.188
			c-1.861-0.327-3.168-0.763-4.047-1.642c-3.932-4.818-2.51-6.462-4.48-7.668c1.31-1.534,5.026-1.86,7.432-0.985
			c3.715,2.085,4.81,4.929,6.005,9.091c-2.074-0.987-3.605-3.175-5.462-4.709c-0.543-0.219-0.436,0-0.436,0.218
			c1.747,2.082,3.169,3.945,5.353,5.479C28.002,113.301,26.579,113.407,25.053,113.188z M35.543,107.935
			c-0.881,1.969-1.968,2.297-2.954,3.611c0-2.63-0.763-5.147-0.875-7.774c-0.219-0.33-0.327-0.33-0.435,0
			c-0.109,2.735-0.109,2.735,0.435,7.338c-1.853-0.66-3.932-5.369-3.713-7.451c-0.11-4.049,2.075-5.908,5.352-7.882
			C34.888,100.595,37.069,103.003,35.543,107.935z M21.886,101.69c-7.323-1.422-5.466-3.939-8.963-9.963
			c7.755-2.851,10.381,2.515,11.47,9.307c-1.857-1.646-2.841-3.835-4.698-5.15c0.763,2.302,2.95,3.836,3.936,5.806
			C23.192,101.908,22.865,101.908,21.886,101.69z M26.145,99.387c0.651-1.86,0.651-1.86,1.418-6.786
			c-0.107-0.657-0.219-0.657-0.436-0.334c-0.767,2.521-0.767,2.521-1.638,6.466c0,0.547-0.331,0.547-0.331,0.218
			c-1.966-7.557-1.854-11.172,6.229-13.91c0.327-0.107,0.439-0.218,0.548-0.328c0.106,0,0,0.328,0,0.437
			C31.387,92.159,34.228,96.433,26.145,99.387z M20.678,90.52c-3.388-0.882-5.789-1.424-7.103-4.932
			c-0.545-2.188-1.088-4.382-1.635-6.567c5.789,0.106,8.194,0.434,9.833,6.02c0.436,1.534,0.546,3.175,0.546,4.711
			c-1.965-1.096-2.405-5.145-4.375-5.365c0.984,2.075,1.97,4.051,3.393,5.911C21.114,90.298,20.902,90.41,20.678,90.52z
			 M23.738,87.453c1.315-2.191,1.858-3.942,2.511-6.351c-0.105-0.331-0.212-0.331-0.436,0c-1.854,4.487-1.854,4.487-2.621,5.805
			c-0.327-8.217-0.112-11.174,8.522-12.378c-0.543,5.368,0.112,9.199-4.919,11.934C26.145,86.682,25.378,86.682,23.738,87.453z
			 M20.787,79.238c-4.04-1.422-5.679-1.645-7.424-5.808c-0.552-2.188-0.44-4.269-1.1-6.46c6.117,0.55,7.98,1.209,9.51,6.901
			c0.324,1.754-0.112,3.503,0.215,4.603c-1.854-0.658-1.965-5.59-3.819-5.369C20.135,76.064,20.024,77.921,20.787,79.238z
			 M23.192,75.076c1.53-1.646,2.405-3.394,3.501-5.477c0.215-0.221-0.22-0.439-0.443-0.112c-1.308,1.645-2.075,3.506-3.604,4.822
			c0.658-6.132,2.512-11.829,10.163-9.748c-1.202,4.051-1.202,7.557-5.026,9.528C25.921,74.747,24.722,74.528,23.192,75.076z
			 M20.571,68.613c-6.776-5.257-4.699-6.68-4.044-14.674c8.195,3.283,7.759,6.68,5.135,14.565c-0.874-2.3-0.436-4.817-1.418-7.12
			C20.355,66.75,20.678,68.504,20.571,68.613z M27.019,63.356c-0.77-0.216-1.422-0.328-2.188-0.437
			c1.748-1.208,1.748-1.208,5.03-4.488c0.103-0.334-0.109-0.437-0.333-0.222c-3.715,2.957-4.807,4.493-5.355,4.051
			c0,0,0.329-0.766,0.445-0.981c2.944-6.791,5.018-8.436,12.342-5.916C33.465,60.51,33.353,63.028,27.019,63.356z M27.127,48.354
			c0.875,3.065,0,5.038-1.09,7.774c-0.116,0.328-0.767,2.303-1.096,2.08c0-2.299,0-4.927-0.548-7.118
			c-0.434,3.287-0.434,3.287-0.327,7.118c-0.875-0.875-1.969-1.422-2.621-2.518c-2.733-4.6-0.331-7.23,0.216-12.049
			C24.174,44.956,25.597,45.945,27.127,48.354z M29.529,52.405c4.047,2.188,7.867,1.751,9.837-1.315
			c2.181-2.41,1.854-2.848,3.82-3.723c-2.075-1.206-4.699-3.833-9.175-1.642c-2.185,1.313-3.389,3.83-4.811,5.911
			c1.422,0,2.735-1.202,3.498-1.641c1.53-1.316,2.297-1.316,3.387-1.316c-1.423,0.548-2.181,1.533-3.387,2.303
			C31.826,51.747,30.512,52.296,29.529,52.405z M28.769,50.104c-3.715-4.602-3.827-7.12-1.861-10.077
			c1.203-1.863,0.984-1.643,1.747-4.052c1.099,1.75,4.921,3.176,4.263,7.995c-0.548,2.301-2.295,3.943-3.389,6.025
			c-0.434-1.316,0-2.628,0.333-3.505c0.546-2.194,0.103-2.849-0.109-3.615c-0.116,1.421-0.333,1.969-0.658,3.395
			C28.769,47.367,28.546,49.227,28.769,50.104z M35.87,42.876c4.48,3.069,7.207,3.069,9.725,0.546
			c2.289-1.969,2.181-2.188,4.15-2.737c-1.969-1.533-3.499-4.376-8.301-3.175c-2.297,0.763-4.048,3.391-5.574,4.706
			c1.199,0.22,2.617-0.654,3.496-0.982c1.745-0.88,2.512-0.768,3.496-0.549c-1.418,0.216-2.406,0.985-3.608,1.531
			C38.163,42.659,36.848,42.985,35.87,42.876z M34.011,43.094c-2.732-5.035-2.624-7.992-0.223-10.401
			c1.534-1.648,1.315-1.428,2.518-3.617c0.763,1.969,4.371,3.835,2.841,8.327c-0.984,2.187-2.95,3.721-4.375,5.472
			c-0.212-1.314,0.331-2.629,0.771-3.397c0.978-1.969,0.654-2.842,0.542-3.614c-0.327,1.312-0.763,2.3-1.313,3.614
			C34.228,40.465,33.68,42.216,34.011,43.094z M43.517,35.756c4.807,3.288,7.32,3.612,9.942,1.648
			c1.969-1.208,1.853-0.992,4.262-1.754c-1.202-1.422-3.168-4.931-8.086-4.057c-2.402,0.546-3.717,2.303-5.791,3.509
			c1.315,0.326,2.298-0.221,3.169-0.439c1.861-0.767,2.621-0.33,3.603-0.113c-1.53,0.224-2.4,0.331-3.603,0.878
			C45.812,35.756,44.5,35.975,43.517,35.756z M41.22,36.196c-2.51-5.151-1.966-7.448,0.436-9.636
			c1.53-1.646,1.421-1.428,2.517-3.615c0.655,1.969,4.151,4.051,2.406,8.429c-0.984,2.194-3.062,3.069-4.592,4.822
			c-0.109-1.315,0.327-2.409,0.875-3.069c1.091-1.641,1.091-2.409,0.875-3.396c-0.327,1.313-1.098,1.973-1.642,3.287
			C41.444,34.005,40.896,35.322,41.22,36.196z M52.476,30.171c3.935,3.503,5.898,3.945,8.525,2.523
			c1.858-0.876,1.744-0.66,4.041-0.988c-0.984-1.421-2.182-4.491-6.668-4.382c-2.183,0.219-3.605,1.645-5.571,2.302
			c1.091,0.433,2.078,0.218,2.841,0.107c1.75-0.436,2.402,0,3.277,0.326c-1.311,0-2.181,0-3.384,0.227
			C54.553,30.499,53.238,30.499,52.476,30.171z M47.997,30.284c-0.66-5.37,0.219-7.339,2.951-8.436
			c1.854-0.985,1.963-0.985,3.605-2.628c0,1.97,2.186,4.6-0.543,8.104c-1.534,1.645-3.504,1.754-5.251,2.961
			c0.221-1.208,0.876-1.864,1.534-2.412c1.42-1.205,1.639-1.864,1.742-2.74c-0.651,1.096-1.53,1.428-2.4,2.523
			C48.875,28.309,47.997,29.296,47.997,30.284z M55.536,26.56c0.655-3.397,2.509-6.247,6.337-6.572
			c2.841-0.331,5.355,0.106,8.304-0.331c-1.639,1.864-4.041,3.614-6.665,5.369c-2.405,1.642-5.138,1.97-7.868,1.86
			c1.203-1.094,2.402-1.86,4.156-2.409c1.527-0.546,2.733-1.094,3.713-1.972c-1.639,0.658-2.95,0.982-4.592,1.534
			C57.609,24.585,56.3,25.573,55.536,26.56z M36.848,122.608c2.625-0.441,4.048,0.328,5.247,1.313
			c0.44,0.328,1.091,1.097,1.315,1.534c0.763,1.315,0.543,2.191,0.87,3.397c-1.094,0-2.293-1.094-3.169-1.094
			c-3.279-0.548-5.026,0-6.116-0.443c-0.223,0-0.333,0.222-0.107,0.443c1.418,0.217,1.857,0.548,3.599,0.875
			c1.642,0.219,3.717-0.112,5.25,0.985c-6.556,4.818-11.148,1.643-14.208-5.257C31.935,124.47,34.448,123.375,36.848,122.608z"/>
		<path fill-rule="evenodd" clip-rule="evenodd" fill="#F1E441" d="M121.968,124.249c0.982-3.063,1.206-4.163,0-7.006
			c-0.548-1.313-1.747-2.742-2.297-4.055c-2.837,5.039-7.428,5.917-5.677,12.378c0.435,1.533,2.184,2.955,2.4,2.081
			c0.331-3.176,2.293-5.805,3.277-8.762c0.223,0.767,0.331,1.425-0.109,2.957c-0.875,1.86-2.074,3.724-2.293,5.805
			C119.014,126.33,120.877,126.442,121.968,124.249z M127.102,120.965c2.298-0.439,4.151-2.52,6.665-3.176
			c-2.183,1.422-3.932,2.955-6.338,4.052c-0.103,0.219,0.109,0.437,0.548,0.437c4.26,0.875,6.885,1.205,9.07-0.658
			c1.091-1.094,2.841-4.271,4.592-5.144c0.435-0.33,0.435-0.33,0-0.661c-4.263-2.409-8.743-3.724-11.911,1.208
			C128.852,118.339,127.538,120.199,127.102,120.965z M128.632,117.898c0.219-0.329,0.328-0.548,0.436-0.769
			c1.53-3.723,1.427-5.911,0.44-8.102c-0.44-1.093-2.406-3.175-3.165-3.943c-0.988,3.066-3.501,5.148-4.483,8.217
			c-0.113,0.765-0.328,1.86,0.767,4.269c0.759,1.642,1.526,2.082,1.965,3.396c0.436-2.19,0.436-2.19,2.074-7.23
			c0.328,2.52-0.875,4.711-1.202,7.23C126.995,120.087,128.196,118.339,128.632,117.898z M139.668,113.188
			c1.97-0.327,3.277-0.763,4.151-1.642c3.932-4.818,2.514-6.462,4.483-7.668c-1.315-1.534-5.029-1.86-7.431-0.985
			c-3.716,2.085-4.811,4.929-6.01,9.091c2.074-0.987,3.496-3.175,5.465-4.709c0.545-0.219,0.436,0,0.436,0.218
			c-1.75,2.082-3.168,3.945-5.358,5.479C136.827,113.301,138.25,113.407,139.668,113.188z M129.288,107.935
			c0.876,1.969,1.966,2.297,2.95,3.611c0-2.63,0.767-5.147,0.879-7.774c0.103-0.33,0.327-0.33,0.436,0
			c0.106,2.735,0.106,2.735-0.436,7.338c1.854-0.66,3.931-5.369,3.711-7.451c0.108-4.049-2.073-5.908-5.35-7.882
			C129.944,100.595,127.762,103.003,129.288,107.935z M142.945,101.69c7.325-1.422,5.465-3.939,8.963-9.963
			c-7.756-2.851-10.381,2.515-11.472,9.307c1.854-1.646,2.838-3.835,4.699-5.15c-0.768,2.302-2.953,3.836-3.94,5.806
			C141.639,101.908,141.966,101.908,142.945,101.69z M138.686,99.387c-0.655-1.86-0.655-1.86-1.42-6.786
			c0-0.657,0.213-0.657,0.436-0.334c0.767,2.521,0.767,2.521,1.638,6.466c0,0.547,0.328,0.547,0.328,0.218
			c1.97-7.557,1.858-11.172-6.225-13.91c-0.327-0.107-0.439-0.218-0.548-0.328c-0.11,0,0,0.328,0,0.437
			C133.443,92.159,130.598,96.433,138.686,99.387z M144.151,90.52c3.384-0.882,5.791-1.424,7.101-4.932
			c0.543-2.188,1.09-4.382,1.633-6.567c-5.785,0.106-8.191,0.434-9.829,6.02c-0.439,1.534-0.548,3.175-0.548,4.711
			c1.857-1.096,2.402-5.145,4.375-5.365c-0.987,2.075-1.973,4.051-3.391,5.911C143.715,90.298,143.927,90.41,144.151,90.52z
			 M141.091,87.453c-1.315-2.191-1.858-3.942-2.512-6.351c0.107-0.331,0.215-0.331,0.435,0c1.858,4.487,1.858,4.487,2.625,5.805
			c0.327-8.217,0.108-11.174-8.522-12.378c0.542,5.368-0.112,9.199,4.805,11.934C138.686,86.682,139.453,86.682,141.091,87.453z
			 M144.04,79.238c4.04-1.422,5.682-1.645,7.319-5.808c0.658-2.188,0.436-4.269,1.206-6.46c-6.12,0.55-7.979,1.209-9.509,6.901
			c-0.328,1.754,0.112,3.503-0.219,4.603c1.857-0.658,1.969-5.59,3.824-5.369C144.587,76.064,144.806,77.921,144.04,79.238z
			 M141.639,75.076c-1.534-1.646-2.406-3.394-3.5-5.477c-0.217-0.221,0.219-0.439,0.44-0.112c1.309,1.645,2.074,3.506,3.604,4.822
			c-0.655-6.132-2.514-11.829-10.161-9.748c1.199,4.051,1.199,7.557,5.026,9.528C138.905,74.747,140.104,74.528,141.639,75.076z
			 M144.26,68.613c6.776-5.257,4.698-6.68,3.931-14.674c-8.086,3.283-7.648,6.68-5.134,14.565c0.984-2.3,0.548-4.817,1.53-7.12
			C144.475,66.75,144.151,68.504,144.26,68.613z M137.811,63.356c0.767-0.216,1.421-0.328,2.19-0.437
			c-1.751-1.208-1.751-1.208-5.03-4.488c-0.109-0.334,0-0.437,0.33-0.222c3.713,2.957,4.701,4.493,5.352,4.051
			c0,0-0.326-0.766-0.441-0.981c-2.945-6.791-5.134-8.436-12.342-5.916C131.366,60.51,131.477,63.028,137.811,63.356z
			 M137.702,48.354c-0.875,3.065,0,5.038,1.091,7.774c0.112,0.328,0.763,2.303,1.094,2.08c0-2.299-0.112-4.927,0.548-7.118
			c0.436,3.287,0.436,3.287,0.327,7.118c0.876-0.875,1.966-1.422,2.621-2.518c2.733-4.6,0.331-7.23-0.215-12.049
			C140.652,44.956,139.232,45.945,137.702,48.354z M135.3,52.405c-4.047,2.188-7.871,1.751-9.836-1.315
			c-2.185-2.41-1.854-2.848-3.824-3.723c2.078-1.206,4.704-3.833,9.177-1.642c2.187,1.313,3.389,3.83,4.699,5.911
			c-1.311,0-2.621-1.202-3.385-1.641c-1.534-1.316-2.297-1.316-3.388-1.316c1.419,0.548,2.183,1.533,3.388,2.303
			C133.005,51.747,134.314,52.296,135.3,52.405z M136.06,50.104c3.715-4.602,3.827-7.12,1.861-10.077
			c-1.203-1.863-0.986-1.643-1.745-4.052c-1.099,1.75-4.923,3.176-4.263,7.995c0.547,2.301,2.181,3.943,3.387,6.025
			c0.436-1.316,0-2.628-0.33-3.505c-0.548-2.194-0.109-2.849,0.107-3.615c0.115,1.421,0.327,1.969,0.658,3.395
			C136.06,47.367,136.284,49.227,136.06,50.104z M128.961,42.876c-4.478,3.069-7.213,3.069-9.833,0.546
			c-2.293-1.969-2.074-2.188-4.041-2.737c1.967-1.533,3.493-4.376,8.193-3.175c2.405,0.763,4.15,3.391,5.681,4.706
			c-1.31,0.22-2.617-0.654-3.496-0.982c-1.747-0.88-2.514-0.768-3.496-0.549c1.418,0.216,2.4,0.985,3.608,1.531
			C126.666,42.659,127.977,42.985,128.961,42.876z M130.818,43.094c2.735-5.035,2.626-7.992,0.224-10.401
			c-1.533-1.648-1.313-1.428-2.52-3.617c-0.76,1.969-4.368,3.835-2.838,8.327c0.983,2.187,2.948,3.721,4.371,5.472
			c0.215-1.314-0.327-2.629-0.767-3.397c-0.978-1.969-0.766-2.842-0.543-3.614c0.324,1.312,0.764,2.3,1.31,3.614
			C130.598,40.465,131.146,42.216,130.818,43.094z M121.313,35.756c-4.807,3.288-7.319,3.612-9.94,1.648
			c-1.97-1.208-1.858-0.992-4.265-1.754c1.203-1.422,3.169-4.931,8.088-4.057c2.4,0.546,3.715,2.303,5.789,3.509
			c-1.313,0.326-2.297-0.221-3.168-0.439c-1.863-0.767-2.621-0.33-3.603-0.113c1.418,0.224,2.293,0.331,3.603,0.878
			C119.014,35.756,120.329,35.975,121.313,35.756z M123.611,36.196c2.509-5.151,1.966-7.448-0.436-9.636
			c-1.642-1.646-1.427-1.428-2.626-3.615c-0.654,1.969-4.042,4.051-2.296,8.429c0.982,2.194,3.06,3.069,4.59,4.822
			c0.107-1.315-0.327-2.409-0.875-3.069c-1.091-1.641-1.091-2.409-0.984-3.396c0.436,1.313,1.203,1.973,1.747,3.287
			C123.387,34.005,123.935,35.322,123.611,36.196z M112.355,30.171c-3.936,3.503-5.902,3.945-8.526,2.523
			c-1.858-0.876-1.742-0.66-4.04-0.988c0.982-1.421,2.181-4.491,6.664-4.382c2.187,0.219,3.605,1.645,5.574,2.302
			c-1.09,0.433-2.077,0.218-2.841,0.107c-1.754-0.436-2.4,0-3.279,0.326c1.313,0,2.181,0,3.387,0.227
			C110.277,30.499,111.592,30.499,112.355,30.171z M116.835,30.284c0.654-5.37-0.221-7.339-2.954-8.436
			c-1.854-0.985-1.962-0.985-3.603-2.628c0,1.97-2.19,4.6,0.543,8.104c1.534,1.645,3.499,1.754,5.25,2.961
			c-0.224-1.208-0.875-1.864-1.534-2.412c-1.418-1.205-1.638-1.864-1.745-2.74c0.655,1.096,1.529,1.428,2.405,2.523
			C115.954,28.309,116.835,29.296,116.835,30.284z M109.293,26.56c-0.654-3.397-2.508-6.247-6.34-6.572
			c-2.841-0.331-5.352,0.106-8.298-0.331c1.638,1.864,4.04,3.614,6.664,5.369c2.402,1.642,5.134,1.97,7.867,1.86
			c-1.206-1.094-2.4-1.86-4.154-2.409c-1.526-0.546-2.733-1.094-3.712-1.972c1.635,0.658,2.944,0.982,4.587,1.534
			C107.22,24.585,108.526,25.573,109.293,26.56z M127.977,122.608c-2.621-0.441-4.042,0.328-5.246,1.313
			c-0.436,0.328-1.091,1.097-1.418,1.534c-0.66,1.315-0.436,2.191-0.764,3.397c0.984,0,2.295-1.094,3.169-1.094
			c3.277-0.548,5.026,0,6.117-0.443c0.219,0,0.328,0.222,0.109,0.443c-1.422,0.217-1.86,0.548-3.6,0.875
			c-1.751,0.219-3.716-0.112-5.25,0.985c6.556,4.818,11.144,1.643,14.207-5.257C132.896,124.47,130.383,123.375,127.977,122.608z"/>
	</g>
</g>
<g id="Layer_2">
</g>
<g id="Layer_3">
</g>
</svg>
