<?xml version="1.0" encoding="utf-8"?>
<!-- Generator: Adobe Illustrator 17.0.0, SVG Export Plug-In . SVG Version: 6.00 Build 0)  -->
<!DOCTYPE svg PUBLIC "-//W3C//DTD SVG 1.1//EN" "http://www.w3.org/Graphics/SVG/1.1/DTD/svg11.dtd">
<svg version="1.1" xmlns="http://www.w3.org/2000/svg" xmlns:xlink="http://www.w3.org/1999/xlink" x="0px" y="0px"
	 width="156.357px" height="127.335px" viewBox="0 0 156.357 127.335" enable-background="new 0 0 156.357 127.335"
	 xml:space="preserve">
<g id="Layer_1">
</g>
<g id="Layer_2">
</g>
<g id="Layer_3">
	<g>
		<g>
			<g>
				<path fill="#201B18" d="M63.138,19.831V0C63.138,0,4.178,4.696,0,62.886c0,17.855,11.216,56.1,63.138,64.449
					c0-17.482,0-19.573,0-19.573S24.003,99.15,22.436,63.669C22.436,60.536,23.223,29.226,63.138,19.831z"/>
			</g>
			<g>
				<path fill="#201B18" d="M82.779,0v19.569c0,0,18.393,2.153,32.68,18.983c2.157,3.133,10.961,14.484,6.849,34.832
					c7.438,6.462,17.416,15.66,17.416,15.66s17.223-32.096-7.435-62.427C129.746,23.288,111.55,1.37,82.779,0z"/>
			</g>
			<g>
				<polygon fill="#201B18" points="82.779,62.23 156.357,127.335 123.681,127.335 105.871,112.33 105.871,127.335 82.779,127.335 
									"/>
			</g>
		</g>
	</g>
</g>
</svg>
