<?xml version="1.0" encoding="utf-8"?>
<!-- Generator: Adobe Illustrator 17.0.0, SVG Export Plug-In . SVG Version: 6.00 Build 0)  -->
<!DOCTYPE svg PUBLIC "-//W3C//DTD SVG 1.1//EN" "http://www.w3.org/Graphics/SVG/1.1/DTD/svg11.dtd">
<svg version="1.1" xmlns="http://www.w3.org/2000/svg" xmlns:xlink="http://www.w3.org/1999/xlink" x="0px" y="0px"
	 width="144.135px" height="153.18px" viewBox="0 0 144.135 153.18" enable-background="new 0 0 144.135 153.18"
	 xml:space="preserve">
<g id="Layer_1">
</g>
<g id="Layer_2">
</g>
<g id="Layer_3">
	<g>
		<g>
			<path fill="#01549F" d="M7.155,148.25l3.674-0.405c0.09,0.747,0.324,1.301,0.702,1.661s0.878,0.54,1.499,0.54
				c0.783,0,1.45-0.36,1.999-1.081c0.549-0.72,0.901-2.215,1.054-4.485c-0.955,1.108-2.148,1.661-3.58,1.661
				c-1.558,0-2.902-0.601-4.032-1.803s-1.695-2.767-1.695-4.694c0-2.008,0.597-3.627,1.79-4.856
				c1.193-1.229,2.713-1.844,4.559-1.844c2.008,0,3.656,0.777,4.944,2.33c1.288,1.553,1.932,4.109,1.932,7.666
				c0,3.62-0.671,6.232-2.013,7.835c-1.342,1.603-3.089,2.404-5.241,2.404c-1.549,0-2.801-0.412-3.755-1.236
				S7.425,149.889,7.155,148.25z M15.746,139.956c0-1.225-0.281-2.175-0.844-2.85c-0.563-0.675-1.213-1.013-1.952-1.013
				c-0.702,0-1.286,0.277-1.749,0.831s-0.696,1.461-0.696,2.722c0,1.279,0.252,2.218,0.756,2.816
				c0.504,0.599,1.135,0.898,1.891,0.898c0.729,0,1.344-0.288,1.844-0.865C15.496,141.919,15.746,141.073,15.746,139.956z"/>
			<path fill="#01549F" d="M28.876,132.945c1.918,0,3.418,0.684,4.498,2.053c1.288,1.621,1.932,4.309,1.932,8.064
				c0,3.746-0.648,6.439-1.945,8.078c-1.072,1.351-2.567,2.026-4.485,2.026c-1.927,0-3.481-0.741-4.66-2.222
				c-1.18-1.481-1.77-4.122-1.77-7.922c0-3.728,0.648-6.412,1.945-8.051C25.463,133.621,26.958,132.945,28.876,132.945z
				 M28.876,136.093c-0.459,0-0.869,0.146-1.229,0.439c-0.36,0.293-0.639,0.817-0.837,1.574c-0.261,0.982-0.392,2.634-0.392,4.957
				c0,2.323,0.117,3.92,0.351,4.789c0.234,0.869,0.529,1.448,0.885,1.736c0.356,0.288,0.763,0.432,1.222,0.432
				s0.869-0.146,1.229-0.439s0.639-0.817,0.837-1.574c0.261-0.973,0.392-2.621,0.392-4.944c0-2.323-0.117-3.92-0.351-4.789
				c-0.234-0.869-0.529-1.45-0.885-1.743C29.743,136.239,29.335,136.093,28.876,136.093z"/>
			<path fill="#01549F" d="M44.262,132.945c1.918,0,3.418,0.684,4.498,2.053c1.288,1.621,1.932,4.309,1.932,8.064
				c0,3.746-0.648,6.439-1.945,8.078c-1.072,1.351-2.567,2.026-4.485,2.026c-1.927,0-3.481-0.741-4.66-2.222s-1.77-4.122-1.77-7.922
				c0-3.728,0.648-6.412,1.945-8.051C40.849,133.621,42.343,132.945,44.262,132.945z M44.262,136.093
				c-0.459,0-0.869,0.146-1.229,0.439c-0.36,0.293-0.639,0.817-0.837,1.574c-0.261,0.982-0.392,2.634-0.392,4.957
				c0,2.323,0.117,3.92,0.351,4.789c0.234,0.869,0.529,1.448,0.885,1.736c0.356,0.288,0.763,0.432,1.222,0.432
				s0.869-0.146,1.229-0.439c0.36-0.293,0.639-0.817,0.837-1.574c0.261-0.973,0.392-2.621,0.392-4.944
				c0-2.323-0.117-3.92-0.351-4.789c-0.234-0.869-0.529-1.45-0.885-1.743C45.128,136.239,44.721,136.093,44.262,136.093z"/>
			<path fill="#01549F" d="M62.943,152.829h-3.796v-14.305c-1.387,1.297-3.021,2.256-4.903,2.877v-3.445
				c0.991-0.324,2.067-0.939,3.228-1.844c1.162-0.905,1.959-1.961,2.391-3.168h3.08V152.829z"/>
			<path fill="#01549F" d="M70.156,142.279v-3.796h3.796v3.796H70.156z M70.156,152.829v-3.796h3.796v3.796H70.156z"/>
			<path fill="#01549F" d="M90.648,149.304v3.526H77.343c0.144-1.333,0.576-2.596,1.297-3.789c0.72-1.193,2.143-2.776,4.269-4.748
				c1.711-1.594,2.76-2.675,3.147-3.242c0.522-0.783,0.783-1.558,0.783-2.323c0-0.846-0.227-1.497-0.682-1.952
				c-0.455-0.455-1.083-0.682-1.884-0.682c-0.792,0-1.423,0.239-1.891,0.716s-0.738,1.27-0.81,2.377l-3.782-0.378
				c0.225-2.089,0.932-3.589,2.121-4.498c1.189-0.91,2.675-1.364,4.458-1.364c1.954,0,3.49,0.527,4.606,1.58
				c1.117,1.054,1.675,2.364,1.675,3.931c0,0.892-0.16,1.74-0.48,2.546c-0.32,0.806-0.826,1.65-1.52,2.533
				c-0.459,0.585-1.288,1.427-2.485,2.526c-1.198,1.099-1.956,1.828-2.276,2.188c-0.32,0.36-0.579,0.711-0.777,1.054H90.648z"/>
			<path fill="#01549F" d="M99.631,132.945c1.918,0,3.418,0.684,4.498,2.053c1.288,1.621,1.932,4.309,1.932,8.064
				c0,3.746-0.648,6.439-1.945,8.078c-1.072,1.351-2.567,2.026-4.485,2.026c-1.927,0-3.481-0.741-4.66-2.222
				c-1.18-1.481-1.77-4.122-1.77-7.922c0-3.728,0.648-6.412,1.945-8.051C96.218,133.621,97.713,132.945,99.631,132.945z
				 M99.631,136.093c-0.459,0-0.869,0.146-1.229,0.439c-0.36,0.293-0.639,0.817-0.837,1.574c-0.261,0.982-0.392,2.634-0.392,4.957
				c0,2.323,0.117,3.92,0.351,4.789c0.234,0.869,0.529,1.448,0.885,1.736c0.356,0.288,0.763,0.432,1.222,0.432
				c0.459,0,0.869-0.146,1.229-0.439s0.639-0.817,0.837-1.574c0.261-0.973,0.392-2.621,0.392-4.944c0-2.323-0.117-3.92-0.351-4.789
				c-0.234-0.869-0.529-1.45-0.885-1.743C100.497,136.239,100.09,136.093,99.631,136.093z"/>
			<path fill="#01549F" d="M118.312,152.829h-3.796v-14.305c-1.387,1.297-3.021,2.256-4.903,2.877v-3.445
				c0.991-0.324,2.067-0.939,3.228-1.844c1.162-0.905,1.959-1.961,2.391-3.168h3.08V152.829z"/>
			<path fill="#01549F" d="M124.04,147.737l3.782-0.392c0.108,0.855,0.428,1.533,0.959,2.033c0.531,0.5,1.144,0.75,1.837,0.75
				c0.792,0,1.463-0.322,2.013-0.966c0.549-0.644,0.824-1.614,0.824-2.911c0-1.216-0.272-2.128-0.817-2.735
				c-0.545-0.608-1.254-0.912-2.128-0.912c-1.09,0-2.067,0.482-2.931,1.445l-3.08-0.446l1.945-10.307h10.036v3.553h-7.159
				l-0.594,3.363c0.846-0.423,1.711-0.635,2.594-0.635c1.684,0,3.111,0.612,4.282,1.837c1.171,1.225,1.756,2.814,1.756,4.768
				c0,1.63-0.473,3.084-1.418,4.363c-1.288,1.747-3.075,2.621-5.363,2.621c-1.828,0-3.318-0.491-4.471-1.472
				C124.954,150.713,124.265,149.394,124.04,147.737z"/>
		</g>
		<g>
			<g>
				<path fill="#01549F" d="M118.25,91.691c-3.198,4.647-7.236,9.141-11.653,12.644c-0.153,0.228-0.61,0.152-0.762-0.076
					c-1.904-1.219-3.961-2.209-5.789-3.428c2.438-2.971,4.798-5.942,6.627-9.217h-2.362c-1.904,2.818-3.884,5.789-6.397,8.302
					c-3.352-1.37-6.399-2.589-9.826-3.503l-0.381-0.305c0.533-1.523,1.524-2.97,1.828-4.493h-2.056l-2.057,4.113
					c-4.494-0.989-9.445-1.523-14.015-1.828c-0.229-0.686,0.076-1.676-0.229-2.285h-1.98c-0.153,0.914,0.228,1.599-0.229,2.362
					c-4.722,0.228-9.292,0.762-13.71,1.675l-2.056-4.037c-0.762,0-1.6-0.153-2.133,0.076l1.904,4.494l-0.228,0.228
					c-3.427,0.991-6.778,2.209-10.054,3.58l-0.305-0.152c-2.132-2.361-4.189-4.951-5.865-7.54c-0.381-1.295-1.904-0.533-2.742-0.686
					c1.828,3.351,4.265,6.322,6.703,9.369c-2.056,1.218-4.113,2.59-6.246,3.58c-4.57-3.504-8.835-8.074-12.034-12.873
					c-0.914-0.152-1.524-0.076-2.438,0c5.484,8.683,14.015,16.3,22.927,20.794c0,0,0-0.076,0.076-0.076
					c0.076,0,0.228,0.152,0.076,0.229c6.017,2.97,12.416,5.103,19.194,6.017c23.384,3.123,45.701-7.008,58.649-26.964
					C120.003,91.615,119.011,91.615,118.25,91.691z M86.489,98.547l0.228-0.153c3.275,0.762,6.397,1.828,9.293,3.276
					c-2.438,2.818-5.561,5.256-8.455,7.312c-1.752,1.067-3.503,2.209-5.332,3.123l-3.275-1.447l0.228-0.533
					C81.919,106.391,84.356,102.583,86.489,98.547z M71.483,96.262c4.342,0.076,8.683,0.533,12.72,1.523l0.076,0.228
					c-2.133,4.113-4.799,8.074-7.693,11.806c-1.295,0.153-2.514-0.381-3.808-0.457l-1.295-0.152
					C71.331,104.716,71.255,100.755,71.483,96.262z M56.783,97.632c3.961-0.762,8.074-1.37,12.339-1.37l0.076,12.872
					c-1.599,0.381-3.352,0.381-4.875,0.762c-3.123-3.732-5.713-7.769-7.922-11.958L56.783,97.632z M44.52,101.745
					c2.971-1.447,6.093-2.513,9.293-3.352l0.304,0.077c2.209,4.189,4.951,8.15,7.693,12.11c-1.067,0.61-2.361,0.991-3.428,1.6
					c-5.027-2.513-9.825-6.017-13.862-10.206V101.745z M54.346,114.77c-6.399-1.675-12.339-4.57-17.823-8.53v-0.229
					c1.828-1.142,3.656-2.361,5.637-3.198c4.341,4.341,8.835,7.617,13.71,10.739C55.488,114.008,54.879,114.466,54.346,114.77z
					 M82.604,115.761c-8.074,1.752-17.062,1.828-25.136-0.153c-0.152-0.381,0.381-0.457,0.61-0.685
					c7.084-4.647,18.128-4.647,25.059,0.381C83.365,115.761,82.756,115.608,82.604,115.761z M89.917,113.627l-3.58,1.143
					c-0.609-0.304-1.142-0.762-1.676-1.218l0.153-0.228c4.874-2.894,9.293-6.398,13.482-10.587c2.056,0.838,4.037,1.98,5.864,3.274
					C99.894,109.438,94.943,111.723,89.917,113.627z"/>
				<path fill="#01549F" d="M141.938,46.981c-1.371-3.656-4.189-6.931-7.616-9.292c-9.902-6.398-24.983-6.855-35.19-1.067
					c-5.56,2.895-9.216,8.607-10.359,14.472c-2.056,9.673-1.523,21.175,5.789,28.41c8.531,7.617,20.946,9.293,31.991,6.17
					c0.523-0.105,2.19-0.533,3.332-1.152l0.324-0.143c3.427-1.447,6.703-3.808,9.14-7.008
					C144.986,68.993,145.366,56.426,141.938,46.981z M123.963,68.689c-0.381,1.828-1.599,3.732-3.504,4.418
					c-3.047,1.371-7.16,0.99-9.978-0.609c-2.362-1.676-2.666-4.494-2.971-7.16c-0.228-5.256-0.609-10.816,0.838-15.614
					c1.142-2.97,4.266-3.732,7.084-3.961c2.97,0,5.864,0.457,7.693,2.895c1.142,1.752,1.067,4.037,1.295,6.093
					C124.343,59.092,124.724,64.271,123.963,68.689z"/>
				<path fill="#01549F" d="M22.05,27.33c1.828-2.59,3.885-5.104,6.17-7.541c1.981-1.904,3.808-3.733,5.941-5.103
					c1.98,1.295,4.19,2.361,6.094,3.58c-2.361,2.97-4.799,5.941-6.551,9.14c0.533,0.228,1.524,0.152,2.285,0
					c1.904-2.818,3.96-5.637,6.398-8.15c3.275,1.219,6.474,2.513,9.825,3.428l0.305,0.305l-1.904,4.418
					c0.838,0.152,1.371,0.076,2.209,0c0.685-1.295,1.218-2.742,1.98-4.037c4.418,0.99,9.065,1.523,13.787,1.676
					c0.61,0.533,0.153,1.676,0.381,2.361h2.057c0.228-0.762-0.076-1.6,0.228-2.285c4.418-0.229,9.064-0.686,13.33-1.752l0.381,0.076
					l2.056,3.961c0.686,0,1.6,0.152,2.133-0.153l-1.904-4.418l0.152-0.152c3.504-0.914,6.779-2.285,10.131-3.656
					c2.361,2.513,4.57,5.484,6.55,8.378c0.838,0,1.676,0.076,2.285-0.153c-0.914-1.676-2.057-3.351-3.275-4.798
					c-0.99-1.447-2.056-2.742-3.352-4.113v-0.381l5.332-3.123l0.762-0.305c4.647,3.58,8.759,7.922,12.035,12.72
					c0.914,0,1.676,0.305,2.438-0.076C110.101,11.639,93.267,1.661,75.063,0.214l-0.076,0.152l-0.153-0.152
					c-2.056-0.228-4.57-0.305-6.778-0.076c-0.838-0.076-1.828,0-2.819,0.076c-18.28,1.447-35.113,10.968-45.624,27.192
					C20.375,27.33,21.289,27.634,22.05,27.33z M53.66,20.627l-0.304,0.076c-3.123-0.838-6.17-1.828-9.064-3.123l0.153-0.457
					c4.189-4.037,8.607-7.389,13.481-9.978c1.143,0.457,2.285,0.838,3.428,1.371l-0.228,0.61
					C58.23,12.782,55.945,16.743,53.66,20.627z M68.817,22.684c-2.133,0.305-4.037-0.076-6.17-0.228
					c-2.056-0.305-4.646-0.533-6.703-1.219c2.209-4.189,4.799-8.226,7.922-11.959l4.875,0.685
					C68.97,13.924,68.817,18.494,68.817,22.684z M71.179,22.76c-0.152-4.037-0.076-8.531,0-12.72
					c1.523-0.228,3.199-0.457,4.722-0.685c2.971,3.808,5.865,7.693,7.845,11.882C79.634,22.226,75.444,22.76,71.179,22.76z
					 M95.477,17.428c-2.971,1.295-6.018,2.513-9.293,3.199c-2.361-4.037-4.95-8.073-7.845-11.958
					c1.066-0.609,2.361-1.066,3.503-1.676c4.951,2.514,9.75,6.093,13.787,10.206L95.477,17.428z M85.727,4.403
					c6.398,1.676,12.415,4.57,17.899,8.531l-0.152,0.305l-5.256,2.97h-0.381C93.8,12.096,89.078,8.516,84.28,5.698
					C84.432,5.165,85.194,4.784,85.727,4.403z M82.68,3.642v0.152c-6.627,4.875-17.367,5.332-24.374,0.838
					c-0.381-0.305-1.142-0.457-1.218-0.99C65.162,1.737,74.683,1.585,82.68,3.642z M36.218,13.086
					c4.799-3.58,10.131-6.245,15.767-8.074c0.228-0.228,0.381-0.457,0.685-0.457v0.152c0.609,0.152,1.066-0.533,1.599-0.076
					c0.457,0.381,0.99,0.686,1.371,1.067c-4.722,2.97-9.369,6.474-13.634,10.739c-2.057-0.762-3.961-1.904-5.789-3.199V13.086z"/>
				<path fill="#01549F" d="M33.704,73.411c-2.514-0.152-5.332,0.077-7.769-0.228l0.076-26.735l0.152-0.229l7.541-0.076
					c0.076-4.341,0.152-8.988-0.076-12.948L4.913,33.119L0.19,33.195c-0.076,4.037-0.076,8.759,0,12.873
					c2.59,0.076,5.027,0,7.541,0.228v25.897l-0.076,1.067l-7.54,0.152c-0.153,4.266-0.153,8.378,0,12.568h33.59V73.411z"/>
				<path fill="#01549F" d="M68.894,74.021c-7.16,1.98-14.929,0.457-20.108-5.028c-0.609-0.762-0.99-1.676-1.599-2.437
					l-10.283,0.077c-0.152,6.169-0.228,13.253,0,19.346l11.425-0.076l0.152-3.656c1.295,0.609,2.59,1.371,3.885,2.057
					c7.921,3.351,18.128,4.113,25.973,0c5.713-3.199,8.759-9.369,7.921-15.995c-0.838-6.474-6.931-12.339-13.101-13.939
					l-18.433-5.408l-1.371-0.685c-0.61-0.533-0.99-1.219-0.838-2.057c1.448-2.513,4.799-1.752,7.312-1.675
					c5.332,0.762,10.816,2.59,13.939,7.541c3.351,0,7.236,0.076,10.892-0.076c0.153-6.246-0.076-11.73-0.153-18.052
					c-3.427-0.076-7.616-0.076-11.044,0.076c-0.153,0.914,0.153,2.209-0.228,3.123l-3.504-1.904
					c-8.378-3.58-20.108-3.961-27.725,1.6c-4.951,3.656-6.474,10.206-5.179,15.995c0.99,5.484,6.17,9.521,11.12,11.425
					c6.779,2.438,13.863,4.189,20.718,6.551c0.685,0.304,1.599,0.99,1.447,1.828C70.112,73.335,69.427,73.716,68.894,74.021z"/>
			</g>
		</g>
	</g>
</g>
</svg>
