<?xml version="1.0" encoding="utf-8"?>
<!-- Generator: Adobe Illustrator 17.0.0, SVG Export Plug-In . SVG Version: 6.00 Build 0)  -->
<!DOCTYPE svg PUBLIC "-//W3C//DTD SVG 1.1//EN" "http://www.w3.org/Graphics/SVG/1.1/DTD/svg11.dtd">
<svg version="1.1" xmlns="http://www.w3.org/2000/svg" xmlns:xlink="http://www.w3.org/1999/xlink" x="0px" y="0px" width="163px"
	 height="163.591px" viewBox="0 0 163 163.591" enable-background="new 0 0 163 163.591" xml:space="preserve">
<g id="Layer_1">
	<g>
		<path fill="#2E3192" d="M63.698,160.321c1.296,0,2.45,0,3.658,0c0-1.705,0-3.338,0-4.972c0-2.671,0.01-5.342-0.016-8.013
			c-0.003-0.257-0.218-0.726-0.355-0.734c-1.074-0.061-2.152-0.034-3.305-0.034c0,1.84,0,3.546,0,5.267c-0.421,0-0.761,0-1.229,0
			c0-1.768,0-3.493,0-5.203c-1.284,0-2.438,0-3.581,0c0,4.614,0,9.154,0,13.703c1.211,0,2.365,0,3.623,0c0-1.895,0-3.735,0-5.615
			c0.443,0,0.781,0,1.205,0C63.698,156.601,63.698,158.442,63.698,160.321z"/>
		<path fill="#2E3192" d="M86.583,150.84c-0.071,0.015-0.142,0.031-0.213,0.046c-0.112-0.266-0.239-0.526-0.332-0.798
			c-0.335-0.978-0.638-1.968-1.002-2.936c-0.087-0.233-0.348-0.544-0.553-0.563c-0.751-0.067-1.512-0.027-2.303-0.027
			c0,4.655,0,9.213,0,13.756c1.227,0,2.379,0,3.636,0c0-1.314,0-2.556,0-3.799c0.469,1.062,0.725,2.145,1.032,3.212
			c0.07,0.244,0.306,0.612,0.486,0.624c0.939,0.063,1.884,0.029,2.827,0.029c0-4.657,0-9.198,0-13.763c-1.207,0-2.36,0-3.578,0
			C86.583,148.072,86.583,149.456,86.583,150.84z"/>
		<path fill="#2E3192" d="M100.536,160.322c1.227,0,2.38,0,3.506,0c0-4.61,0-9.149,0-13.717c-1.193,0-2.327,0-3.506,0
			C100.536,151.193,100.536,155.734,100.536,160.322z"/>
		<path fill="#2E3192" d="M91.912,146.128c0.543,0,0.969,0.005,1.395-0.001c0.58-0.008,1.137,0.085,1.559-0.566
			c0.318-0.491,1.137-0.332,1.567,0.16c0.13,0.149,0.293,0.368,0.45,0.377c0.74,0.04,1.483,0.018,2.299,0.018
			C97.152,142.91,94.141,142.686,91.912,146.128z"/>
		<path fill="#2E3192" d="M93.973,163.591c0.906,0,1.803,0,2.716,0c0-0.91,0-1.788,0-2.658c-0.94,0-1.819,0-2.716,0
			C93.973,161.84,93.973,162.679,93.973,163.591z"/>
		<path fill="#2E3192" d="M74.983,146.054c-0.961-2.154-2.087-2.754-4.233-2.212C71.859,145.196,72.867,146.678,74.983,146.054z"/>
		<path fill="#2E3192" d="M104.95,160.473c0-15.744,0-31.328,0-46.963c-15.678,0-31.261,0-46.941,0c0,15.621,0,31.227,0,47.034
			c-1.083-0.335-2.032-0.603-2.963-0.922c-10.291-3.529-19.436-9.056-27.588-16.19c-6.611-5.785-11.986-12.617-16.443-20.206
			c-4.091-6.967-7.029-14.358-8.809-22.221C0.921,95.34-0.162,89.647,0.028,83.793c0.029-0.899,0.029-1.8-0.001-2.699
			c-0.229-6.71,1.024-13.218,2.6-19.694c3.168-13.023,9.597-24.313,18.368-34.302c5.892-6.71,12.916-12.072,20.662-16.522
			c6.737-3.871,13.863-6.709,21.449-8.329c3.988-0.852,8.022-1.519,12.059-2.103c1.738-0.251,3.539-0.04,5.309-0.105
			c4.787-0.176,9.515,0.246,14.227,1.114c5.205,0.959,10.305,2.245,15.263,4.121c11.447,4.332,21.372,10.946,29.939,19.665
			c6.412,6.526,11.331,14.074,15.366,22.227c2.682,5.419,4.456,11.171,5.725,17.065c1.124,5.218,1.897,10.47,1.992,15.85
			c0.14,7.943-0.87,15.689-2.837,23.359c-2.133,8.316-5.707,15.961-10.314,23.175c-8.559,13.401-20.241,23.205-34.517,29.99
			c-2.962,1.408-6.117,2.41-9.187,3.588C105.811,160.316,105.46,160.355,104.95,160.473z M105.412,102.902c3.462,0,6.841,0,10.219,0
			c1.138,0,1.139,0.001,1.14,1.155c0.003,13.25,0.006,26.501,0.009,39.751c0,0.335,0,0.67,0,1.232
			c1.511-0.914,2.849-1.64,4.099-2.495c5.108-3.492,9.724-7.565,13.874-12.144c3.113-3.435,5.932-7.101,8.341-11.086
			c2.949-4.878,5.168-10.071,6.945-15.461c1.661-5.04,2.763-10.254,3.019-15.518c0.291-5.993,0.374-12.018-0.649-18.017
			c-1.005-5.893-2.622-11.587-4.957-17.051c-3.561-8.33-8.707-15.594-15.086-22.059c-8.239-8.35-17.809-14.467-28.968-18.055
			C96.569,10.96,89.585,9.61,82.365,9.783c-2.534,0.061-5.089-0.112-7.598,0.16c-6.847,0.743-13.527,2.273-19.919,4.897
			c-5.794,2.378-11.239,5.368-16.204,9.227c-6.662,5.177-12.462,11.172-17.174,18.163c-3.267,4.846-5.804,10.078-7.729,15.622
			c-2.404,6.924-3.898,13.996-3.944,21.339c-0.021,3.27-0.192,6.566,0.138,9.806c0.635,6.239,1.967,12.331,4.16,18.26
			c3.519,9.514,8.84,17.804,15.909,25.044c3.883,3.977,8.078,7.554,12.687,10.647c1.07,0.718,2.214,1.325,3.504,2.091
			c0-14.185,0-28.124,0-42.137c0.425,0,0.747,0.001,1.07,0c3.135-0.007,6.271-0.038,9.406-0.006c0.749,0.008,0.96-0.2,0.956-0.957
			c-0.032-6.052-0.019-12.105-0.023-18.158c0-0.29-0.028-0.58-0.046-0.931c-0.408,0-0.731,0-1.054,0
			c-7.361-0.004-14.723-0.012-22.084-0.004c-0.521,0.001-0.907-0.118-1.291-0.506c-5.141-5.191-10.302-10.364-15.455-15.544
			c-0.163-0.164-0.306-0.348-0.459-0.523c0.105,0.068,0.21,0.136,0.314,0.204c2.674-2.826,5.347-5.651,8.03-8.487
			c0.185,0.17,0.289,0.257,0.383,0.353c3.859,3.89,7.723,7.776,11.566,11.682c0.414,0.421,0.82,0.601,1.418,0.6
			c9.788-0.011,19.575,0.002,29.363,0.01c0.347,0,0.694,0,1.135,0c0,10.661,0,21.222,0,31.796c8.069,0,16.042,0,24.092,0
			c0-0.4,0-0.749,0-1.098c0.003-9.897,0.018-19.794-0.012-29.691c-0.003-0.855,0.246-1.028,1.053-1.026
			c9.433,0.02,18.867-0.03,28.3,0.029c1.425,0.009,2.399-0.387,3.387-1.416c3.455-3.598,7.026-7.084,10.531-10.635
			c0.471-0.477,0.779-0.538,1.243-0.011c0.575,0.654,1.224,1.242,1.844,1.857c1.934,1.917,3.869,3.833,5.865,5.811
			c-0.376,0.434-0.672,0.821-1.013,1.163c-4.948,4.96-9.908,9.909-14.847,14.878c-0.399,0.401-0.794,0.558-1.356,0.557
			c-7.361-0.013-14.723-0.003-22.084,0.001c-0.32,0-0.64,0-1.013,0C105.412,89.546,105.412,96.154,105.412,102.902z"/>
		<path fill="#2E3192" d="M63.698,160.321c0-1.879,0-3.719,0-5.601c-0.424,0-0.763,0-1.205,0c0,1.88,0,3.72,0,5.615
			c-1.258,0-2.412,0-3.623,0c0-4.549,0-9.089,0-13.703c1.142,0,2.296,0,3.581,0c0,1.711,0,3.435,0,5.203c0.468,0,0.807,0,1.229,0
			c0-1.721,0-3.427,0-5.267c1.153,0,2.232-0.027,3.305,0.034c0.137,0.008,0.352,0.477,0.355,0.734
			c0.026,2.671,0.016,5.342,0.016,8.013c0,1.634,0,3.267,0,4.972C66.148,160.321,64.994,160.321,63.698,160.321z"/>
		<path fill="#2E3192" d="M86.583,150.84c0-1.384,0-2.768,0-4.217c1.218,0,2.371,0,3.578,0c0,4.565,0,9.105,0,13.763
			c-0.943,0-1.889,0.034-2.827-0.029c-0.18-0.012-0.416-0.38-0.486-0.624c-0.307-1.068-0.563-2.15-1.032-3.212
			c0,1.242,0,2.484,0,3.799c-1.257,0-2.409,0-3.636,0c0-4.543,0-9.101,0-13.756c0.791,0,1.552-0.041,2.303,0.027
			c0.204,0.018,0.465,0.33,0.553,0.563c0.364,0.967,0.667,1.957,1.002,2.936c0.093,0.272,0.221,0.532,0.332,0.798
			C86.44,150.87,86.511,150.855,86.583,150.84z"/>
		<path fill="#2E3192" d="M99.608,150.207c-0.035-0.736-0.36-1.546-0.786-2.159c-1.069-1.534-2.68-1.694-4.393-1.451
			c-2.041,0.289-3.361,1.775-3.367,3.833c-0.003,1.009-0.001,2.017-0.001,3.026c0.002,0,0.004,0,0.006,0
			c0,1.091,0.011,2.181-0.003,3.272c-0.012,0.89,0.319,1.631,0.864,2.318c1.092,1.376,2.573,1.457,4.15,1.359
			c1.967-0.121,3.543-1.686,3.562-3.658C99.661,154.568,99.71,152.384,99.608,150.207z M95.906,157.937c-0.382,0-0.721,0-1.111,0
			c0-2.977,0-5.923,0-8.917c0.381,0,0.719,0,1.111,0C95.906,152.005,95.906,154.949,95.906,157.937z"/>
		<path fill="#2E3192" d="M100.536,160.322c0-4.587,0-9.128,0-13.717c1.179,0,2.313,0,3.506,0c0,4.568,0,9.107,0,13.717
			C102.916,160.322,101.763,160.322,100.536,160.322z"/>
		<path fill="#2E3192" d="M91.912,146.128c2.229-3.442,5.24-3.218,7.269-0.013c-0.816,0-1.559,0.022-2.299-0.018
			c-0.157-0.008-0.32-0.228-0.45-0.377c-0.43-0.492-1.248-0.651-1.567-0.16c-0.422,0.651-0.979,0.558-1.559,0.566
			C92.881,146.133,92.455,146.128,91.912,146.128z"/>
		<path fill="#2E3192" d="M93.973,163.591c0-0.912,0-1.751,0-2.658c0.898,0,1.776,0,2.716,0c0,0.87,0,1.748,0,2.658
			C95.776,163.591,94.879,163.591,93.973,163.591z"/>
		<path fill="#2E3192" d="M74.983,146.054c-2.115,0.624-3.124-0.857-4.233-2.212C72.896,143.3,74.022,143.9,74.983,146.054z"/>
		<path fill="#2E3192" d="M29.546,53.725c1.267-1.182,2.496-2.296,3.686-3.45c1.194-1.157,2.371-2.333,3.512-3.541
			c0.481-0.509,0.782-0.457,1.25,0.022c2.306,2.358,4.633,4.696,6.988,7.006c0.29,0.284,0.786,0.509,1.186,0.509
			c19.6,0.032,39.2,0.038,58.799,0.043c3.925,0.001,7.851,0.003,11.776-0.045c0.427-0.005,0.95-0.236,1.257-0.537
			c2.339-2.286,4.636-4.616,6.948-6.93c0.188-0.188,0.393-0.358,0.584-0.53c2.574,2.56,5.099,5.072,7.687,7.646
			c-0.903,0.924-1.804,1.86-2.72,2.781c-2.537,2.551-5.089,5.088-7.612,7.654c-0.38,0.386-0.762,0.519-1.288,0.519
			c-26.742-0.01-53.484-0.01-80.226,0.001c-0.557,0-0.956-0.142-1.356-0.549c-3.19-3.248-6.405-6.47-9.612-9.701
			C30.195,54.411,29.992,54.191,29.546,53.725z"/>
		<path fill="#2E3192" d="M52.663,47.294c0.146-0.396,0.269-0.75,0.406-1.099c2.263-5.749,4.537-11.494,6.776-17.252
			c0.227-0.584,0.513-0.751,1.121-0.745c3.051,0.034,6.103,0.016,9.255,0.016c-0.279,1.088-0.544,2.122-0.824,3.214
			c8.045,0,16.021,0,24.131,0c-0.27-1.073-0.53-2.107-0.812-3.226c1.002,0,1.924-0.001,2.847,0c2.208,0.003,4.417-0.008,6.625,0.034
			c0.265,0.005,0.673,0.246,0.765,0.478c2.44,6.118,4.847,12.249,7.257,18.379c0.018,0.046,0.009,0.104,0.016,0.204
			c-4.16,0-8.313,0-12.511,0c-0.338-1.321-0.697-2.632-1.004-3.954c-0.161-0.691-0.489-0.927-1.233-0.925
			c-9.351,0.03-18.703,0.029-28.054,0.001c-0.71-0.002-1.02,0.221-1.176,0.885c-0.31,1.322-0.676,2.63-1.031,3.99
			C61.058,47.294,56.9,47.294,52.663,47.294z"/>
		<path fill="#2E3192" d="M77.937,160.362c-1.323,0-2.592,0-3.939,0c-0.039-0.782-0.076-1.532-0.116-2.347c-0.51,0-0.98,0-1.547,0
			c-0.045,0.758-0.091,1.528-0.139,2.339c-1.321,0-2.591,0-3.99,0c0.202-1.293,0.401-2.565,0.598-3.837
			c0.474-3.065,0.963-6.128,1.407-9.198c0.077-0.531,0.219-0.763,0.791-0.75c1.416,0.034,2.833-0.01,4.248,0.033
			c0.236,0.007,0.638,0.264,0.668,0.452c0.704,4.351,1.367,8.708,2.035,13.064C77.961,160.171,77.947,160.227,77.937,160.362z
			 M73.469,155.486c0-0.942,0-1.852,0-2.816c-0.281,0.016-0.509,0.029-0.756,0.043c0,0.951,0,1.839,0,2.773
			C72.978,155.486,73.206,155.486,73.469,155.486z"/>
	</g>
</g>
<g id="Layer_2">
</g>
<g id="Layer_3">
</g>
</svg>
