<?xml version="1.0" encoding="utf-8"?>
<!-- Generator: Adobe Illustrator 17.0.0, SVG Export Plug-In . SVG Version: 6.00 Build 0)  -->
<!DOCTYPE svg PUBLIC "-//W3C//DTD SVG 1.1//EN" "http://www.w3.org/Graphics/SVG/1.1/DTD/svg11.dtd">
<svg version="1.1" xmlns="http://www.w3.org/2000/svg" xmlns:xlink="http://www.w3.org/1999/xlink" x="0px" y="0px" width="380px"
	 height="78.296px" viewBox="0 0 380 78.296" enable-background="new 0 0 380 78.296" xml:space="preserve">
<g id="Layer_1">
	<g>
		<path fill="#97B63F" d="M253.399,46.416c0-3.747-0.92-6.705-2.826-8.874c-1.972-2.235-4.864-3.352-8.611-3.352h-19.325v29.777
			h13.212V41.551c0-0.657,0.197-1.249,0.657-1.709c0.723-0.855,2.103-0.986,2.958-0.197c0.066,0.066,0.131,0.131,0.197,0.197
			c0.46,0.46,0.657,1.052,0.657,1.709v22.415h13.081V46.416L253.399,46.416z M214.354,29.457l-6.31-7.888l-0.197-0.197h-3.944
			l-0.197,0.197l-6.31,7.888l-0.855,1.052h5.85l0.197-0.197l3.287-4.075l3.287,4.075l0.197,0.197h5.85L214.354,29.457z
			 M202.128,34.255c-3.484-0.131-6.77,1.512-8.742,4.338c-1.906,2.695-2.826,6.179-2.826,10.517s0.92,7.888,2.826,10.517
			c1.972,2.892,5.259,4.536,8.742,4.338h7.691c3.484,0.131,6.77-1.512,8.742-4.338c1.906-2.695,2.892-6.179,2.892-10.517
			s-0.986-7.822-2.892-10.517c-1.972-2.892-5.259-4.536-8.742-4.338C209.818,34.255,202.128,34.255,202.128,34.255z M208.241,56.604
			c0,0.657-0.197,1.249-0.657,1.709c-0.789,0.855-2.103,0.92-2.958,0.131c-0.066-0.066-0.131-0.131-0.131-0.131
			c-0.46-0.46-0.657-1.117-0.657-1.709V41.617c0-0.657,0.197-1.249,0.657-1.709c0.723-0.855,2.038-0.986,2.892-0.263
			c0.066,0.066,0.197,0.131,0.263,0.263c0.46,0.46,0.657,1.052,0.657,1.709v14.987H208.241z M189.376,49.242
			c0-4.338-0.92-7.822-2.826-10.451c-1.972-2.826-5.259-4.47-8.677-4.338h-6.113v-8.874h-13.147v38.454h13.147V41.749
			c0-0.657,0.197-1.249,0.657-1.709c0.394-0.46,0.986-0.723,1.578-0.723c0.592,0,1.183,0.263,1.578,0.723
			c0.46,0.46,0.657,1.052,0.657,1.709v22.283h13.147V49.571c0-0.066,0-0.131,0-0.197V49.242z M153.288,51.28v-9.4h4.01v-7.494h-4.01
			c0-3.221,0-6.179,0-8.808h-14.461v25.767c-0.066,3.155,1.117,6.245,3.221,8.611c2.235,2.564,5.456,4.01,8.808,4.075h0.263
			c0.131,0,0.197,0,0.263,0h6.047V55.75c-0.723,0-1.446-0.197-2.103-0.526C153.946,54.435,153.288,53.12,153.288,51.28
			 M111.548,34.255c-3.418-0.197-6.705,1.446-8.677,4.273c-1.906,2.629-2.826,6.113-2.826,10.451s0.92,7.822,2.826,10.451
			c1.972,2.827,5.193,4.47,8.677,4.338h6.047v4.93c0.066,0.855-0.197,1.775-0.723,2.498c-0.592,0.855-1.709,1.052-2.564,0.526
			c-0.197-0.131-0.394-0.329-0.526-0.526c-0.526-0.723-0.723-1.578-0.723-2.498v-1.446h-11.437c0,2.366,0.92,4.601,2.498,6.376
			c1.643,2.038,4.141,3.287,6.77,3.352h0.263c0.066,0,0.197,0,0.263,0h7.888c0.066,0,0.197,0,0.263,0h0.263
			c3.155-0.066,6.047-1.578,7.954-4.075c1.972-2.432,2.958-5.456,2.892-8.545V34.124h-19.128V34.255z M115.361,58.839
			c-0.592,0-1.183-0.263-1.578-0.723c-0.46-0.46-0.657-1.052-0.657-1.709V41.551c0-0.657,0.197-1.249,0.657-1.709
			c0.394-0.46,0.986-0.723,1.578-0.723s1.117,0.263,1.512,0.657c0.394,0.394,0.657,0.986,0.723,1.578c0,0.329,0,5.39,0,15.118
			c0,0.592-0.263,1.249-0.657,1.643C116.544,58.642,115.952,58.839,115.361,58.839 M98.862,46.416c0-3.747-0.92-6.705-2.826-8.874
			c-1.972-2.235-4.864-3.352-8.611-3.352H68.099v29.777h13.212V41.551c0-0.657,0.197-1.249,0.657-1.709
			c0.723-0.855,2.103-0.986,2.958-0.197c0.066,0.066,0.131,0.131,0.197,0.197c0.46,0.46,0.657,1.052,0.657,1.709v22.415h13.081
			L98.862,46.416L98.862,46.416z M59.882,29.457l-6.31-7.888l-0.197-0.197h-3.944l-0.197,0.197l-6.31,7.888l-0.855,1.052h5.85
			l0.197-0.197l3.287-4.075l3.287,4.075l0.197,0.197h5.85L59.882,29.457z M47.656,34.255c-3.484-0.131-6.77,1.512-8.742,4.338
			c-1.906,2.695-2.826,6.179-2.826,10.517s0.92,7.888,2.826,10.517c1.972,2.892,5.259,4.536,8.742,4.338h7.691
			c3.484,0.131,6.77-1.512,8.742-4.338c1.906-2.695,2.892-6.179,2.892-10.517s-0.986-7.822-2.892-10.517
			c-1.972-2.892-5.259-4.536-8.742-4.338C55.347,34.255,47.656,34.255,47.656,34.255z M53.704,56.604
			c0,0.657-0.197,1.249-0.657,1.709c-0.394,0.46-0.986,0.723-1.578,0.723s-1.183-0.263-1.578-0.723
			c-0.46-0.46-0.657-1.117-0.657-1.709V41.617c0-0.657,0.197-1.249,0.657-1.709c0.394-0.46,0.986-0.723,1.578-0.723
			s1.183,0.263,1.578,0.723c0.46,0.46,0.657,1.052,0.657,1.709V56.604z M34.904,21.174v42.858H21.823l-9.334-19.457v19.457H0V21.174
			h12.489L22.415,40.5V21.174H34.904z"/>
		<path fill="#ED1C24" d="M374.939,48.322V36.753h4.93V27.55h-4.93c0-3.944,0-7.559,0-10.846h-17.814v31.749
			c-0.066,3.878,1.38,7.691,3.944,10.583c2.761,3.155,6.705,4.93,10.846,4.996h0.329c0.131,0,0.197,0,0.329,0.066H380V53.843
			c-0.92,0-1.775-0.197-2.564-0.657C375.793,52.266,374.939,50.622,374.939,48.322 M347.331,21.503l-7.691-9.728l-0.197-0.263
			h-4.864l-0.197,0.263l-7.756,9.728l-1.052,1.315h7.165l0.197-0.263l4.075-5.061l4.01,5.061l0.197,0.263h7.231L347.331,21.503z
			 M339.377,54.895c0,0.789-0.263,1.578-0.789,2.103c-0.46,0.526-1.183,0.855-1.906,0.855c-0.723,0-1.446-0.329-1.906-0.855
			c-0.526-0.592-0.789-1.315-0.789-2.103V44.838h21.692c0-4.996-1.183-9.137-3.615-12.358c-2.564-3.418-6.113-5.127-10.649-5.127
			h-9.531c-4.601,0-8.217,1.775-10.714,5.39c-2.366,3.287-3.484,7.625-3.484,12.949s1.183,9.663,3.484,12.949
			c2.564,3.615,6.113,5.39,10.714,5.39h9.531c3.944,0.066,7.756-1.709,10.254-4.733c2.498-2.827,3.878-6.508,3.812-10.32h-16.104
			L339.377,54.895L339.377,54.895z M336.682,33.466c0.723,0,1.446,0.329,1.906,0.92c0.526,0.592,0.789,1.315,0.789,2.103v1.709
			h-5.456V36.49c0-0.789,0.263-1.512,0.789-2.103C335.236,33.795,335.893,33.466,336.682,33.466 M316.239,16.704h-16.17v9.203h16.17
			V16.704z M316.239,27.616h-16.17v36.416h16.17V27.616z M298.623,11.314l-9.005,52.718h-25.241l-9.663-52.718h17.222l5.39,38.519
			c0.394-2.761,1.117-9.663,2.169-20.771c0.592-5.916,1.183-11.832,1.906-17.748L298.623,11.314z"/>
		<rect x="329.386" y="68.304" fill="#ED1C24" width="16.893" height="8.282"/>
		<path fill="#231F20" d="M4.93,6.319v7.691H2.235V6.319H0.197V4.084h6.836v2.235H4.93z"/>
		<path fill="#231F20" d="M19.062,14.009l-0.526-1.446h-3.615l-0.592,1.446h-2.892l4.207-9.926h2.103l4.207,9.926H19.062z
			 M15.579,17.23v-2.038h2.235v2.038H15.579z M16.762,7.173L16.762,7.173l-1.117,3.418h2.169L16.762,7.173z"/>
		<path fill="#231F20" d="M34.904,8.816c-0.197,0.46-0.46,0.855-0.855,1.183s-0.92,0.592-1.446,0.723s-1.052,0.131-1.643,0.131
			h-1.183v3.155h-2.498V4.084h3.418c0.329,0,0.592,0,0.855,0c0.263,0,0.592,0.066,0.855,0.066c0.526,0.066,1.117,0.263,1.512,0.592
			c0.789,0.657,1.249,1.578,1.249,2.629C35.167,7.896,35.101,8.422,34.904,8.816z M32.077,6.516
			c-0.394-0.131-0.789-0.197-1.249-0.197h-0.986v2.366h1.117c0.394,0,0.789-0.066,1.183-0.197c0.329-0.197,0.526-0.592,0.526-0.986
			C32.669,7.042,32.406,6.647,32.077,6.516z"/>
		<path fill="#231F20" d="M58.173,10.263c-0.263,1.117-0.986,2.169-1.906,2.826c-2.235,1.578-5.259,1.38-7.296-0.394
			c-2.038-1.841-2.169-4.996-0.329-7.033c0.066-0.131,0.197-0.197,0.329-0.329c1.052-0.986,2.432-1.512,3.878-1.446
			c1.841-0.066,3.615,0.789,4.601,2.301c0.329,0.46,0.592,1.052,0.723,1.643h-2.827c-0.329-1.052-1.38-1.775-2.564-1.709
			c-0.789,0-1.512,0.329-2.038,0.855c-0.526,0.526-0.789,1.249-0.789,2.038c0,0.789,0.263,1.512,0.789,2.038
			c1.052,1.117,2.761,1.183,3.878,0.197c0.263-0.263,0.526-0.592,0.657-0.986C55.281,10.263,58.173,10.263,58.173,10.263z"/>
		<path fill="#231F20" d="M69.939,14.009v-3.944h-3.418v3.944h-2.695V4.084h2.695v3.747h3.418V4.084h2.695v9.926H69.939z"/>
		<path fill="#231F20" d="M79.339,3.624l-0.657-1.315L82.1,0.6l0.723,1.578L79.339,3.624z M78.748,14.009V4.084h2.695v9.926H78.748z
			"/>
		<path fill="#231F20" d="M102.937,12.629c-0.986,0.92-2.366,1.446-3.747,1.38h-3.944v-3.944h-0.92V7.831h0.92V4.084h3.55
			c0.46,0,0.92,0,1.38,0.066c0.394,0.066,0.789,0.131,1.183,0.263c0.789,0.263,1.512,0.789,2.038,1.512
			c0.657,0.92,0.986,1.972,0.986,3.089C104.318,10.328,103.857,11.643,102.937,12.629z M100.965,7.107
			c-0.526-0.526-1.183-0.855-1.972-0.789H97.81v1.512h1.512v2.235H97.81v1.709h1.117c0.723,0.066,1.446-0.197,1.972-0.789
			c0.46-0.592,0.657-1.249,0.592-1.972C101.623,8.356,101.425,7.633,100.965,7.107L100.965,7.107z"/>
		<path fill="#231F20" d="M109.971,14.009V4.084h2.695v9.926H109.971z"/>
		<path fill="#231F20" d="M122.328,3.229l-0.657-0.789l-0.657,0.789h-2.301l2.235-2.235h1.512l2.103,2.235H122.328z M118.779,14.009
			V4.084h5.85v2.235h-3.287v1.578h3.155v2.169h-3.155v1.709h3.287v2.235H118.779z M120.619,17.23v-2.038h2.235v2.038H120.619z"/>
		<path fill="#231F20" d="M137.052,14.009l-4.01-6.047h-0.066l0.131,6.047h-2.564V4.084h2.301l4.075,6.245l0,0l-0.131-6.245h2.564
			v9.926H137.052z"/>
		<path fill="#231F20" d="M156.706,6.319v7.691h-2.695V6.319h-2.038V4.084h6.77v2.235H156.706z"/>
		<path fill="#231F20" d="M172.088,5.793v4.273c0,0.526-0.066,1.117-0.197,1.643c-0.131,0.526-0.46,0.986-0.855,1.38
			c-0.789,0.723-1.84,1.117-2.958,1.052c-0.526,0-1.117-0.066-1.643-0.263c-0.526-0.131-0.986-0.46-1.38-0.789
			c-0.394-0.394-0.723-0.855-0.855-1.446c-0.066-0.263-0.131-0.526-0.131-0.789c0-0.197-0.066-0.526-0.066-0.855V4.018h2.695v6.047
			c0,0.197,0,0.46,0.066,0.657c0,0.197,0.066,0.394,0.197,0.592c0.197,0.394,0.657,0.657,1.117,0.592
			c0.46,0.066,0.92-0.197,1.117-0.592c0.066-0.197,0.131-0.394,0.197-0.592c0-0.197,0-0.394,0-0.723V4.018h2.695v0.526
			c0.197-0.197,0.263-0.46,0.263-0.657h-0.526V2.375h1.578v1.512c0,0.526-0.263,1.052-0.657,1.446
			C172.548,5.53,172.351,5.661,172.088,5.793z M169.787,2.046c-0.066,0.066-0.131,0.197-0.197,0.263
			c-0.066,0.066-0.131,0.131-0.263,0.197l-0.263,0.197c-0.066,0.066-0.131,0.131-0.197,0.197c-0.131,0.131-0.197,0.263-0.197,0.46
			h-1.183c0-0.197,0.066-0.394,0.197-0.592c0.066-0.066,0.131-0.131,0.197-0.263c0.066-0.066,0.131-0.131,0.197-0.197l0.197-0.197
			c0.066-0.066,0.131-0.131,0.197-0.197c0.131-0.131,0.197-0.263,0.197-0.394c0-0.197-0.131-0.394-0.329-0.394
			c-0.066,0-0.066,0-0.131,0c-0.131,0-0.329,0.066-0.394,0.197s-0.066,0.263-0.066,0.46h-1.249V1.717V1.652
			c0-0.46,0.197-0.92,0.526-1.183c0.329-0.329,0.789-0.46,1.315-0.46c0.592-0.066,1.183,0.263,1.512,0.789
			c0.131,0.197,0.197,0.394,0.197,0.592C169.984,1.652,169.919,1.849,169.787,2.046z"/>
		<g enable-background="new    ">
			<path fill="#231F20" d="M140.01,71.723h-1.643v4.864h-1.117v-4.864h-1.643v-0.986h4.404V71.723z"/>
		</g>
		<g enable-background="new    ">
			<path fill="#231F20" d="M139.616,74.418c0-0.46,0.066-0.789,0.263-1.183c0.131-0.329,0.394-0.592,0.657-0.789
				s0.657-0.263,0.986-0.263c0.526,0,0.986,0.197,1.315,0.526c0.329,0.329,0.526,0.855,0.592,1.446v0.329
				c0,0.657-0.197,1.183-0.526,1.578s-0.789,0.592-1.38,0.592c-0.592,0-1.052-0.197-1.38-0.592
				C139.813,75.667,139.616,75.141,139.616,74.418L139.616,74.418z M142.903,71.723h-0.789l-0.592-0.526l-0.592,0.526h-0.789
				l1.052-0.92h0.657L142.903,71.723z M140.733,74.483c0,0.394,0.066,0.723,0.197,0.92c0.131,0.197,0.329,0.329,0.592,0.329
				s0.46-0.131,0.592-0.329c0.131-0.197,0.197-0.592,0.197-1.052c0-0.394-0.066-0.723-0.197-0.92
				c-0.131-0.197-0.329-0.329-0.592-0.329s-0.46,0.131-0.592,0.329C140.799,73.629,140.733,74.023,140.733,74.483z M142.574,71.197
				l-0.066-0.46c0.131,0,0.263,0,0.329-0.066c0.066-0.066,0.131-0.066,0.131-0.131c0-0.131-0.131-0.263-0.46-0.263v-0.46
				c0.329,0,0.657,0.066,0.789,0.197c0.197,0.131,0.263,0.263,0.263,0.46c0,0.131-0.066,0.263-0.131,0.329
				c-0.066,0.066-0.197,0.131-0.329,0.131v0.197h-0.526V71.197z"/>
			<path fill="#231F20" d="M145.138,72.248l0.066,0.526c0.263-0.394,0.657-0.592,1.183-0.592c0.394,0,0.723,0.131,0.986,0.394
				s0.329,0.657,0.329,1.183v2.826h-1.052v-2.761c0-0.263-0.066-0.394-0.131-0.526c-0.131-0.131-0.263-0.197-0.526-0.197
				c-0.329,0-0.526,0.131-0.657,0.394v3.089h-1.052v-4.338C144.283,72.248,145.138,72.248,145.138,72.248z"/>
			<path fill="#231F20" d="M148.227,74.418c0-0.657,0.131-1.183,0.46-1.643c0.263-0.394,0.723-0.592,1.183-0.592
				s0.789,0.131,1.052,0.46l0.066-0.394h0.986v4.207c0,0.394-0.066,0.723-0.263,0.986c-0.131,0.263-0.394,0.526-0.657,0.657
				s-0.657,0.197-1.052,0.197c-0.263,0-0.592-0.066-0.855-0.197c-0.263-0.131-0.526-0.263-0.657-0.46l0.46-0.723
				c0.263,0.329,0.592,0.46,0.986,0.46c0.263,0,0.526-0.066,0.657-0.263c0.131-0.197,0.263-0.394,0.263-0.723v-0.263
				c-0.263,0.329-0.592,0.46-0.986,0.46c-0.46,0-0.855-0.197-1.183-0.592C148.358,75.667,148.227,75.141,148.227,74.418
				L148.227,74.418z M149.344,74.483c0,0.394,0.066,0.723,0.197,0.92c0.131,0.197,0.329,0.329,0.592,0.329
				c0.329,0,0.592-0.131,0.723-0.394v-1.841c-0.131-0.263-0.394-0.394-0.723-0.394c-0.263,0-0.46,0.131-0.592,0.329
				C149.41,73.695,149.344,74.023,149.344,74.483z"/>
			<path fill="#231F20" d="M155.72,72.709c0.263-0.394,0.657-0.526,1.052-0.526c0.855,0,1.315,0.526,1.315,1.643v2.761h-1.052
				v-2.761c0-0.263-0.066-0.46-0.131-0.526c-0.131-0.131-0.263-0.197-0.526-0.197c-0.329,0-0.526,0.131-0.657,0.394v3.089h-1.052
				v-6.179h1.052V72.709z"/>
			<path fill="#231F20" d="M158.744,74.418c0-0.46,0.066-0.789,0.263-1.183c0.131-0.329,0.394-0.592,0.657-0.789
				c0.263-0.197,0.657-0.263,0.986-0.263c0.526,0,0.986,0.197,1.315,0.526c0.329,0.329,0.526,0.855,0.592,1.446v0.329
				c0,0.657-0.197,1.183-0.526,1.578s-0.789,0.592-1.38,0.592c-0.592,0-1.052-0.197-1.38-0.592S158.744,75.141,158.744,74.418
				L158.744,74.418z M162.097,71.525L162.097,71.525l-0.855,0.066L160.65,71l-0.592,0.592h-0.855v-0.066l1.117-1.117h0.657
				L162.097,71.525z M159.796,74.483c0,0.394,0.066,0.723,0.197,0.92c0.131,0.197,0.329,0.329,0.592,0.329s0.46-0.131,0.592-0.329
				c0.131-0.197,0.197-0.592,0.197-1.052c0-0.394-0.066-0.723-0.197-0.92c-0.131-0.197-0.329-0.329-0.592-0.329
				s-0.46,0.131-0.592,0.329C159.927,73.629,159.796,74.023,159.796,74.483z M160.059,77.573c0-0.131,0.066-0.263,0.197-0.394
				c0.131-0.131,0.263-0.131,0.46-0.131c0.197,0,0.329,0.066,0.46,0.131c0.131,0.066,0.197,0.263,0.197,0.394
				s-0.066,0.263-0.197,0.394s-0.263,0.131-0.46,0.131c-0.197,0-0.329-0.066-0.46-0.131
				C160.125,77.836,160.059,77.704,160.059,77.573z"/>
			<path fill="#231F20" d="M163.214,71.131c0-0.197,0.066-0.329,0.131-0.46c0.131-0.131,0.263-0.197,0.46-0.197
				c0.197,0,0.329,0.066,0.46,0.197c0.131,0.131,0.131,0.263,0.131,0.46s-0.066,0.329-0.197,0.46s-0.263,0.197-0.46,0.197
				c-0.197,0-0.329-0.066-0.46-0.197C163.28,71.46,163.214,71.328,163.214,71.131z M164.397,76.587h-1.052v-4.338h1.052V76.587z"/>
			<path fill="#231F20" d="M171.628,76.587h-1.117l-2.169-3.878v3.878h-1.117v-5.85h1.117l2.169,3.878v-3.878h1.117V76.587z"/>
			<path fill="#231F20" d="M172.351,74.418c0-0.46,0.066-0.789,0.263-1.183c0.131-0.329,0.394-0.592,0.657-0.789
				s0.657-0.263,0.986-0.263c0.526,0,0.986,0.197,1.315,0.526c0.329,0.329,0.526,0.855,0.592,1.446v0.329
				c0,0.657-0.197,1.183-0.526,1.578c-0.329,0.394-0.789,0.592-1.38,0.592c-0.592,0-1.052-0.197-1.38-0.592
				C172.548,75.667,172.351,75.141,172.351,74.418L172.351,74.418z M175.703,71.525L175.703,71.525l-0.855,0.066L174.257,71
				l-0.592,0.592h-0.855v-0.066l1.117-1.117h0.657L175.703,71.525z M173.468,74.483c0,0.394,0.066,0.723,0.197,0.92
				c0.131,0.197,0.329,0.329,0.592,0.329s0.46-0.131,0.592-0.329c0.131-0.197,0.197-0.592,0.197-1.052
				c0-0.394-0.066-0.723-0.197-0.92c-0.131-0.197-0.329-0.329-0.592-0.329s-0.46,0.131-0.592,0.329
				C173.534,73.629,173.468,74.023,173.468,74.483z"/>
			<path fill="#231F20" d="M177.872,72.248l0.066,0.526c0.263-0.394,0.657-0.592,1.183-0.592c0.394,0,0.723,0.131,0.986,0.394
				s0.329,0.657,0.329,1.183v2.826h-1.052v-2.761c0-0.263-0.066-0.394-0.131-0.526c-0.131-0.131-0.263-0.197-0.526-0.197
				c-0.329,0-0.526,0.131-0.657,0.394v3.089h-1.052v-4.338C177.018,72.248,177.872,72.248,177.872,72.248z"/>
			<path fill="#231F20" d="M180.962,74.418c0-0.657,0.131-1.183,0.46-1.643c0.263-0.394,0.723-0.592,1.183-0.592
				s0.789,0.131,1.052,0.46l0.066-0.394h0.986v4.207c0,0.394-0.066,0.723-0.263,0.986c-0.131,0.263-0.394,0.526-0.657,0.657
				s-0.657,0.197-1.052,0.197c-0.263,0-0.592-0.066-0.855-0.197c-0.263-0.131-0.526-0.263-0.657-0.46l0.46-0.723
				c0.263,0.329,0.592,0.46,0.986,0.46c0.263,0,0.526-0.066,0.657-0.263c0.131-0.197,0.263-0.394,0.263-0.723v-0.263
				c-0.263,0.329-0.592,0.46-0.986,0.46c-0.46,0-0.855-0.197-1.183-0.592C181.093,75.667,180.962,75.141,180.962,74.418
				L180.962,74.418z M182.079,74.483c0,0.394,0.066,0.723,0.197,0.92c0.131,0.197,0.329,0.329,0.592,0.329
				c0.329,0,0.592-0.131,0.723-0.394v-1.841c-0.131-0.263-0.394-0.394-0.723-0.394c-0.263,0-0.46,0.131-0.592,0.329
				C182.145,73.695,182.079,74.023,182.079,74.483z"/>
			<path fill="#231F20" d="M188.39,72.248l0.066,0.526c0.263-0.394,0.657-0.592,1.183-0.592c0.394,0,0.723,0.131,0.986,0.394
				s0.329,0.657,0.329,1.183v2.826h-1.052v-2.761c0-0.263-0.066-0.394-0.131-0.526s-0.263-0.197-0.526-0.197
				c-0.329,0-0.526,0.131-0.657,0.394v3.089h-1.052v-4.338C187.535,72.248,188.39,72.248,188.39,72.248z"/>
			<path fill="#231F20" d="M191.479,74.418c0-0.657,0.131-1.183,0.46-1.643c0.263-0.394,0.723-0.592,1.183-0.592
				s0.789,0.131,1.052,0.46l0.066-0.394h0.986v4.207c0,0.394-0.066,0.723-0.263,0.986c-0.131,0.263-0.394,0.526-0.657,0.657
				c-0.263,0.131-0.657,0.197-1.052,0.197c-0.263,0-0.592-0.066-0.855-0.197c-0.263-0.131-0.526-0.263-0.657-0.46l0.46-0.723
				c0.263,0.329,0.592,0.46,0.986,0.46c0.263,0,0.526-0.066,0.657-0.263c0.131-0.197,0.263-0.394,0.263-0.723v-0.263
				c-0.263,0.329-0.592,0.46-0.986,0.46c-0.46,0-0.855-0.197-1.183-0.592C191.676,75.667,191.479,75.141,191.479,74.418
				L191.479,74.418z M192.596,74.483c0,0.394,0.066,0.723,0.197,0.92c0.131,0.197,0.329,0.329,0.592,0.329
				c0.329,0,0.592-0.131,0.723-0.394v-1.841c-0.131-0.263-0.394-0.394-0.723-0.394c-0.263,0-0.46,0.131-0.592,0.329
				C192.662,73.695,192.596,74.023,192.596,74.483z"/>
			<path fill="#231F20" d="M197.066,72.709c0.263-0.394,0.657-0.526,1.052-0.526c0.855,0,1.315,0.526,1.315,1.643v2.761h-1.052
				v-2.761c0-0.263-0.066-0.46-0.131-0.526c-0.131-0.131-0.263-0.197-0.526-0.197c-0.329,0-0.526,0.131-0.657,0.394v3.089h-1.052
				v-6.179h1.052V72.709z"/>
			<path fill="#231F20" d="M200.287,71.131c0-0.197,0.066-0.329,0.131-0.46c0.131-0.131,0.263-0.197,0.46-0.197
				c0.197,0,0.329,0.066,0.46,0.197c0.131,0.131,0.131,0.263,0.131,0.46s-0.066,0.329-0.197,0.46
				c-0.131,0.131-0.263,0.197-0.46,0.197c-0.197,0-0.329-0.066-0.46-0.197C200.221,71.46,200.287,71.328,200.287,71.131z
				 M201.405,76.587h-1.052v-4.338h1.052V76.587z"/>
			<path fill="#231F20" d="M204.165,76.653c-0.592,0-1.052-0.197-1.446-0.592c-0.394-0.394-0.526-0.92-0.526-1.578v-0.131
				c0-0.46,0.066-0.855,0.263-1.183c0.131-0.329,0.394-0.592,0.657-0.789c0.263-0.197,0.592-0.263,0.986-0.263
				c0.526,0,0.986,0.197,1.315,0.592s0.46,0.92,0.46,1.578v0.46h-2.564c0.066,0.263,0.131,0.526,0.329,0.657
				c0.197,0.197,0.394,0.263,0.657,0.263c0.394,0,0.723-0.131,0.986-0.46l0.526,0.657c-0.131,0.263-0.394,0.46-0.657,0.592
				C204.823,76.587,204.494,76.653,204.165,76.653z M205.349,71.525L205.349,71.525l-0.855,0.066L203.902,71l-0.592,0.592h-0.855
				v-0.066l1.117-1.117h0.657L205.349,71.525z M204.034,73.103c-0.197,0-0.394,0.066-0.526,0.263
				c-0.131,0.131-0.197,0.394-0.263,0.657h1.512v-0.066c0-0.263-0.066-0.46-0.197-0.592
				C204.428,73.169,204.231,73.103,204.034,73.103z M203.377,77.573c0-0.131,0.066-0.263,0.197-0.394
				c0.131-0.131,0.263-0.131,0.46-0.131c0.197,0,0.329,0.066,0.46,0.131c0.131,0.131,0.197,0.263,0.197,0.394
				s-0.066,0.263-0.197,0.394s-0.263,0.131-0.46,0.131c-0.197,0-0.329-0.066-0.46-0.131
				C203.442,77.836,203.377,77.704,203.377,77.573z"/>
			<path fill="#231F20" d="M210.081,74.483c0,0.657-0.131,1.183-0.394,1.578s-0.657,0.592-1.117,0.592
				c-0.394,0-0.723-0.131-0.986-0.46v2.038h-1.052v-6.047h0.986l0.066,0.394c0.263-0.329,0.592-0.526,1.052-0.526
				c0.526,0,0.855,0.197,1.183,0.592C209.884,73.169,210.081,73.695,210.081,74.483L210.081,74.483z M208.964,74.352
				c0-0.394-0.066-0.723-0.197-0.92c-0.131-0.197-0.329-0.329-0.592-0.329c-0.329,0-0.592,0.131-0.723,0.394v1.775
				c0.131,0.263,0.394,0.46,0.723,0.46C208.701,75.732,208.964,75.272,208.964,74.352z"/>
		</g>
		<g enable-background="new    ">
			<path fill="#231F20" d="M214.157,75.206l0.723-2.958h1.117l-1.38,4.338h-1.052l-1.38-4.338h1.117L214.157,75.206z"/>
		</g>
		<g enable-background="new    ">
			<path fill="#231F20" d="M218.758,76.587c-0.066-0.131-0.066-0.263-0.131-0.394c-0.263,0.329-0.592,0.46-0.986,0.46
				s-0.723-0.131-0.986-0.394s-0.394-0.526-0.394-0.92c0-0.46,0.131-0.789,0.46-1.052c0.329-0.263,0.789-0.394,1.38-0.394h0.526
				v-0.263c0-0.197-0.066-0.394-0.131-0.46c-0.066-0.131-0.263-0.197-0.46-0.197c-0.197,0-0.329,0.066-0.394,0.131
				c-0.131,0.066-0.131,0.197-0.131,0.394h-1.052c0-0.263,0.066-0.46,0.197-0.723c0.131-0.197,0.329-0.394,0.592-0.526
				s0.592-0.197,0.855-0.197c0.526,0,0.92,0.131,1.183,0.394s0.46,0.657,0.46,1.117v1.906c0,0.394,0.066,0.723,0.131,0.92v0.066
				h-1.117V76.587z M218.627,71.657h-0.855l-1.052-1.249h1.183L218.627,71.657z M217.838,75.798c0.131,0,0.329-0.066,0.46-0.131
				c0.131-0.066,0.263-0.197,0.329-0.329v-0.723h-0.394c-0.526,0-0.855,0.197-0.855,0.592v0.066c0,0.131,0.066,0.263,0.131,0.329
				S217.706,75.798,217.838,75.798z"/>
			<path fill="#231F20" d="M223.622,74.549v2.038h-1.117v-5.85h2.103c0.394,0,0.789,0.066,1.052,0.263
				c0.329,0.131,0.526,0.394,0.723,0.657c0.197,0.329,0.263,0.657,0.263,0.986c0,0.592-0.197,1.052-0.526,1.38
				c-0.394,0.329-0.855,0.526-1.512,0.526H223.622z M223.622,73.563h0.986c0.263,0,0.526-0.066,0.657-0.197
				c0.131-0.131,0.263-0.394,0.263-0.657s-0.066-0.526-0.263-0.723s-0.394-0.263-0.657-0.263h-1.052v1.841H223.622z"/>
			<path fill="#231F20" d="M228.355,72.709c0.263-0.394,0.657-0.526,1.052-0.526c0.855,0,1.315,0.526,1.315,1.643v2.761h-0.986
				v-2.761c0-0.263-0.066-0.46-0.131-0.526c-0.131-0.131-0.263-0.197-0.526-0.197c-0.329,0-0.526,0.131-0.657,0.394v3.089h-1.052
				v-6.179h1.052v2.301H228.355z"/>
			<path fill="#231F20" d="M233.942,76.587c-0.066-0.131-0.066-0.263-0.131-0.394c-0.263,0.329-0.592,0.46-0.986,0.46
				c-0.394,0-0.723-0.131-0.986-0.394s-0.394-0.526-0.394-0.92c0-0.46,0.131-0.789,0.46-1.052s0.789-0.394,1.38-0.394h0.526v-0.263
				c0-0.197-0.066-0.394-0.131-0.46c-0.066-0.131-0.263-0.197-0.46-0.197c-0.197,0-0.329,0.066-0.394,0.131
				c-0.131,0.066-0.131,0.197-0.131,0.394h-1.052c0-0.263,0.066-0.46,0.197-0.723c0.131-0.197,0.329-0.394,0.592-0.526
				c0.263-0.131,0.592-0.197,0.855-0.197c0.526,0,0.92,0.131,1.183,0.394s0.46,0.657,0.46,1.117v1.906
				c0,0.394,0.066,0.723,0.131,0.92v0.066h-1.117V76.587z M233.022,75.798c0.131,0,0.329-0.066,0.46-0.131
				c0.131-0.066,0.263-0.197,0.329-0.329v-0.723h-0.394c-0.526,0-0.855,0.197-0.855,0.592v0.066c0,0.131,0.066,0.263,0.131,0.329
				S232.89,75.798,233.022,75.798z M233.482,70.408h1.183l-1.052,1.249h-0.855L233.482,70.408z"/>
			<path fill="#231F20" d="M236.966,71.197v1.052h0.657v0.855h-0.657v2.169c0,0.131,0,0.263,0.066,0.329s0.197,0.131,0.329,0.131
				s0.197,0,0.329,0v0.855c-0.197,0.066-0.46,0.131-0.657,0.131c-0.723,0-1.117-0.394-1.183-1.249v-2.366h-0.592v-0.855h0.592
				v-1.052H236.966z"/>
			<path fill="#231F20" d="M241.436,71.197v1.052h0.657v0.855h-0.657v2.169c0,0.131,0,0.263,0.066,0.329s0.197,0.131,0.329,0.131
				c0.131,0,0.197,0,0.329,0v0.855c-0.197,0.066-0.46,0.131-0.657,0.131c-0.723,0-1.117-0.394-1.183-1.249v-2.366h-0.592v-0.855
				h0.592v-1.052H241.436z"/>
			<path fill="#231F20" d="M244.985,73.366c-0.131,0-0.263,0-0.394,0c-0.394,0-0.657,0.131-0.789,0.46v2.826h-1.052v-4.338h0.986
				v0.526c0.197-0.394,0.526-0.592,0.92-0.592c0.131,0,0.263,0,0.329,0.066L244.985,73.366z"/>
			<path fill="#231F20" d="M245.511,71.131c0-0.197,0.066-0.329,0.131-0.46c0.131-0.131,0.263-0.197,0.46-0.197
				c0.197,0,0.329,0.066,0.46,0.197c0.131,0.131,0.131,0.263,0.131,0.46s-0.066,0.329-0.197,0.46
				c-0.131,0.131-0.263,0.197-0.46,0.197c-0.197,0-0.329-0.066-0.46-0.197C245.445,71.46,245.511,71.328,245.511,71.131z
				 M246.694,76.587h-1.052v-4.338h1.052V76.587z"/>
			<path fill="#231F20" d="M249.389,76.653c-0.592,0-1.052-0.197-1.446-0.592c-0.394-0.394-0.526-0.92-0.526-1.578v-0.131
				c0-0.46,0.066-0.855,0.263-1.183c0.131-0.329,0.394-0.592,0.657-0.789c0.263-0.197,0.592-0.263,0.986-0.263
				c0.526,0,0.986,0.197,1.315,0.592s0.46,0.92,0.46,1.578v0.46h-2.564c0.066,0.263,0.131,0.526,0.329,0.657
				c0.197,0.197,0.394,0.263,0.657,0.263c0.394,0,0.723-0.131,0.986-0.46l0.526,0.657c-0.131,0.263-0.394,0.46-0.657,0.592
				C250.047,76.587,249.718,76.653,249.389,76.653z M250.507,71.723h-0.789l-0.592-0.526l-0.592,0.526h-0.789l1.052-0.92h0.657
				L250.507,71.723z M249.258,73.103c-0.197,0-0.394,0.066-0.526,0.263c-0.131,0.131-0.197,0.394-0.263,0.657h1.512v-0.066
				c0-0.263-0.066-0.46-0.197-0.592C249.718,73.169,249.521,73.103,249.258,73.103z M250.178,71.197l-0.066-0.46
				c0.131,0,0.263,0,0.329-0.066c0.066-0.066,0.131-0.066,0.131-0.131c0-0.131-0.131-0.263-0.46-0.263v-0.46
				c0.329,0,0.657,0.066,0.789,0.197c0.197,0.131,0.263,0.263,0.263,0.46c0,0.131-0.066,0.263-0.131,0.329
				c-0.066,0.066-0.197,0.131-0.329,0.131v0.197h-0.526V71.197z"/>
			<path fill="#231F20" d="M252.676,72.248l0.066,0.526c0.263-0.394,0.657-0.592,1.183-0.592c0.394,0,0.723,0.131,0.986,0.394
				s0.329,0.657,0.329,1.183v2.826h-1.183v-2.761c0-0.263-0.066-0.394-0.131-0.526c-0.131-0.131-0.263-0.197-0.526-0.197
				c-0.329,0-0.526,0.131-0.657,0.394v3.089h-1.052v-4.338C251.69,72.248,252.676,72.248,252.676,72.248z"/>
			<path fill="#231F20" d="M262.339,76.587h-1.117l-2.169-3.878v3.878h-1.117v-5.85h1.117l2.169,3.878v-3.878h1.117V76.587z"/>
			<path fill="#231F20" d="M263.062,74.418c0-0.46,0.066-0.789,0.263-1.183c0.197-0.394,0.394-0.592,0.657-0.789
				c0.263-0.197,0.657-0.263,0.986-0.263c0.526,0,0.986,0.197,1.315,0.526c0.329,0.329,0.526,0.855,0.592,1.446v0.329
				c0,0.657-0.197,1.183-0.526,1.578c-0.329,0.394-0.789,0.592-1.38,0.592s-1.052-0.197-1.38-0.592
				C263.259,75.667,263.062,75.141,263.062,74.418L263.062,74.418z M266.414,71.525L266.414,71.525l-0.855,0.066L264.968,71
				l-0.592,0.592h-0.855v-0.066l1.117-1.117h0.657L266.414,71.525z M264.113,74.483c0,0.394,0.066,0.723,0.197,0.92
				c0.131,0.197,0.329,0.329,0.592,0.329c0.263,0,0.46-0.131,0.592-0.329c0.131-0.197,0.197-0.592,0.197-1.052
				c0-0.394-0.066-0.723-0.197-0.92c-0.131-0.197-0.329-0.329-0.592-0.329c-0.263,0-0.46,0.131-0.592,0.329
				C264.245,73.629,264.113,74.023,264.113,74.483z"/>
			<path fill="#231F20" d="M268.518,72.248l0.066,0.526c0.263-0.394,0.657-0.592,1.183-0.592c0.394,0,0.723,0.131,0.986,0.394
				c0.263,0.263,0.329,0.657,0.329,1.183v2.826h-1.052v-2.761c0-0.263-0.066-0.394-0.131-0.526
				c-0.131-0.131-0.263-0.197-0.526-0.197c-0.329,0-0.526,0.131-0.657,0.394v3.089h-1.052v-4.338
				C267.663,72.248,268.518,72.248,268.518,72.248z"/>
			<path fill="#231F20" d="M271.673,74.418c0-0.657,0.131-1.183,0.46-1.643c0.263-0.394,0.723-0.592,1.183-0.592
				c0.46,0,0.789,0.131,1.052,0.46l0.066-0.394h0.986v4.207c0,0.394-0.066,0.723-0.263,0.986c-0.131,0.263-0.394,0.526-0.657,0.657
				s-0.657,0.197-1.052,0.197c-0.263,0-0.592-0.066-0.855-0.197c-0.263-0.131-0.526-0.263-0.657-0.46l0.46-0.723
				c0.263,0.329,0.592,0.46,0.986,0.46c0.263,0,0.526-0.066,0.657-0.263c0.131-0.197,0.263-0.394,0.263-0.723v-0.263
				c-0.263,0.329-0.592,0.46-0.986,0.46c-0.46,0-0.855-0.197-1.183-0.592C271.804,75.667,271.673,75.141,271.673,74.418
				L271.673,74.418z M272.724,74.483c0,0.394,0.066,0.723,0.197,0.92c0.131,0.197,0.329,0.329,0.592,0.329
				c0.329,0,0.592-0.131,0.723-0.394v-1.841c-0.131-0.263-0.394-0.394-0.723-0.394c-0.263,0-0.46,0.131-0.592,0.329
				C272.79,73.695,272.724,74.023,272.724,74.483z"/>
			<path fill="#231F20" d="M279.363,71.197v1.052h0.657v0.855h-0.657v2.169c0,0.131,0,0.263,0.066,0.329s0.197,0.131,0.329,0.131
				s0.197,0,0.329,0v0.855c-0.197,0.066-0.46,0.131-0.657,0.131c-0.723,0-1.117-0.394-1.183-1.249v-2.366h-0.526v-0.855h0.592
				v-1.052H279.363z"/>
			<path fill="#231F20" d="M281.73,72.709c0.263-0.394,0.657-0.526,1.052-0.526c0.854,0,1.315,0.526,1.315,1.643v2.761h-1.052
				v-2.761c0-0.263-0.066-0.46-0.131-0.526c-0.131-0.131-0.263-0.197-0.526-0.197c-0.329,0-0.526,0.131-0.657,0.394v3.089h-1.052
				v-6.179h1.052V72.709z"/>
			<path fill="#231F20" d="M284.753,74.418c0-0.46,0.066-0.789,0.263-1.183c0.197-0.394,0.394-0.592,0.657-0.789
				c0.263-0.197,0.657-0.263,0.986-0.263c0.526,0,0.986,0.197,1.315,0.526c0.329,0.329,0.526,0.855,0.592,1.446v0.329
				c0,0.657-0.197,1.183-0.526,1.578c-0.329,0.394-0.789,0.592-1.38,0.592s-1.052-0.197-1.38-0.592
				C284.951,75.667,284.753,75.141,284.753,74.418L284.753,74.418z M288.106,71.525L288.106,71.525l-0.855,0.066L286.66,71
				l-0.592,0.592h-0.855v-0.066l1.117-1.117h0.657L288.106,71.525z M285.805,74.483c0,0.394,0.066,0.723,0.197,0.92
				c0.131,0.197,0.329,0.329,0.592,0.329c0.263,0,0.46-0.131,0.592-0.329c0.131-0.197,0.197-0.592,0.197-1.052
				c0-0.394-0.066-0.723-0.197-0.92c-0.131-0.197-0.329-0.329-0.592-0.329c-0.263,0-0.46,0.131-0.592,0.329
				C285.937,73.629,285.805,74.023,285.805,74.483z"/>
			<path fill="#231F20" d="M290.209,72.248l0.066,0.526c0.263-0.394,0.657-0.592,1.183-0.592c0.394,0,0.723,0.131,0.986,0.394
				c0.263,0.263,0.329,0.657,0.329,1.183v2.826h-1.052v-2.761c0-0.263-0.066-0.394-0.131-0.526
				c-0.131-0.131-0.263-0.197-0.526-0.197c-0.329,0-0.526,0.131-0.657,0.394v3.089h-1.052v-4.338
				C289.355,72.248,290.209,72.248,290.209,72.248z"/>
			<path fill="#231F20" d="M297.506,75.141l1.249-4.404h1.249l-1.906,5.85h-1.183l-1.906-5.85h1.249L297.506,75.141z"/>
			<path fill="#231F20" d="M300.398,71.131c0-0.197,0.066-0.329,0.131-0.46c0.132-0.131,0.263-0.197,0.46-0.197
				s0.329,0.066,0.46,0.197c0.131,0.131,0.131,0.263,0.131,0.46s-0.066,0.329-0.197,0.46s-0.263,0.197-0.46,0.197
				s-0.329-0.066-0.46-0.197S300.398,71.328,300.398,71.131z M301.515,76.587h-1.052v-4.338h1.052V76.587z"/>
			<path fill="#231F20" d="M304.276,76.653c-0.592,0-1.052-0.197-1.446-0.592s-0.526-0.92-0.526-1.578v-0.131
				c0-0.46,0.066-0.855,0.263-1.183c0.131-0.329,0.394-0.592,0.657-0.789c0.263-0.197,0.592-0.263,0.986-0.263
				c0.526,0,0.986,0.197,1.315,0.592c0.329,0.394,0.46,0.92,0.46,1.578v0.46h-2.629c0.066,0.263,0.131,0.526,0.329,0.657
				c0.197,0.197,0.394,0.263,0.657,0.263c0.394,0,0.723-0.131,0.986-0.46l0.526,0.657c-0.131,0.263-0.394,0.46-0.657,0.592
				C304.933,76.587,304.605,76.653,304.276,76.653z M305.459,71.525L305.459,71.525l-0.855,0.066L304.013,71l-0.592,0.592h-0.855
				v-0.066l1.117-1.117h0.657L305.459,71.525z M304.145,73.103c-0.197,0-0.394,0.066-0.526,0.263
				c-0.131,0.131-0.197,0.394-0.263,0.657h1.512v-0.066c0-0.263-0.066-0.46-0.197-0.592
				C304.539,73.169,304.408,73.103,304.145,73.103z M303.553,77.573c0-0.131,0.066-0.263,0.197-0.394s0.263-0.131,0.46-0.131
				c0.197,0,0.329,0.066,0.46,0.131c0.132,0.131,0.197,0.263,0.197,0.394s-0.066,0.263-0.197,0.394
				c-0.131,0.131-0.263,0.131-0.46,0.131s-0.329-0.066-0.46-0.131C303.553,77.836,303.553,77.704,303.553,77.573z"/>
			<path fill="#231F20" d="M307.826,71.197v1.052h0.657v0.855h-0.657v2.169c0,0.131,0,0.263,0.066,0.329s0.197,0.131,0.329,0.131
				s0.197,0,0.329,0v0.855c-0.197,0.066-0.46,0.131-0.657,0.131c-0.723,0-1.117-0.394-1.183-1.249v-2.366h-0.592v-0.855h0.592
				v-1.052H307.826z"/>
			<path fill="#231F20" d="M315.516,76.587h-1.117l-2.169-3.878v3.878h-1.117v-5.85h1.117l2.169,3.878v-3.878h1.117V76.587z"/>
			<path fill="#231F20" d="M318.737,76.587c-0.066-0.131-0.066-0.263-0.131-0.394c-0.263,0.329-0.592,0.46-0.986,0.46
				c-0.394,0-0.723-0.131-0.986-0.394c-0.263-0.263-0.394-0.526-0.394-0.92c0-0.46,0.131-0.789,0.46-1.052
				c0.329-0.263,0.789-0.394,1.38-0.394h0.526v-0.263c0-0.197-0.066-0.394-0.131-0.46c-0.066-0.131-0.263-0.197-0.46-0.197
				c-0.197,0-0.329,0.066-0.394,0.131c-0.132,0.066-0.132,0.197-0.132,0.394h-1.052c0-0.263,0.066-0.46,0.197-0.723
				c0.131-0.197,0.329-0.394,0.592-0.526c0.263-0.131,0.592-0.197,0.855-0.197c0.526,0,0.92,0.131,1.183,0.394
				c0.263,0.263,0.46,0.657,0.46,1.117v1.906c0,0.394,0.066,0.723,0.131,0.92v0.066h-1.117V76.587z M317.883,75.798
				c0.132,0,0.329-0.066,0.46-0.131c0.131-0.066,0.263-0.197,0.329-0.329v-0.723h-0.394c-0.526,0-0.855,0.197-0.855,0.592v0.066
				c0,0.131,0.066,0.263,0.131,0.329C317.62,75.667,317.685,75.798,317.883,75.798z"/>
			<path fill="#231F20" d="M321.498,72.248l0.066,0.46c0.263-0.394,0.657-0.592,1.183-0.592s0.854,0.197,1.052,0.657
				c0.263-0.46,0.657-0.657,1.183-0.657c0.46,0,0.789,0.131,0.986,0.394c0.197,0.263,0.329,0.657,0.329,1.249v2.761h-1.052v-2.695
				c0-0.263-0.066-0.394-0.132-0.526c-0.066-0.131-0.263-0.197-0.46-0.197c-0.329,0-0.526,0.197-0.657,0.526v2.958h-1.052v-2.761
				c0-0.263-0.066-0.46-0.132-0.526c-0.066-0.131-0.263-0.197-0.46-0.197c-0.329,0-0.526,0.131-0.657,0.394v3.089h-1.052v-4.338
				C320.643,72.248,321.498,72.248,321.498,72.248z"/>
		</g>
	</g>
</g>
<g id="Layer_2">
</g>
<g id="Layer_3">
</g>
</svg>
